<?xml version="1.0" encoding="utf-8"?>
<!-- Generator: Adobe Illustrator 23.1.1, SVG Export Plug-In . SVG Version: 6.00 Build 0)  -->
<svg version="1.1" id="image" xmlns="http://www.w3.org/2000/svg" xmlns:xlink="http://www.w3.org/1999/xlink" x="0px" y="0px"
	 viewBox="0 0 6339.7 971.7" style="enable-background:new 0 0 6339.7 971.7;" xml:space="preserve">
<style type="text/css">
	.st0{fill:#F28B03;}
	.st1{fill:#E57E03;}
	.st2{opacity:0.56;fill:#D67500;}
	.st3{opacity:0.09;fill:#FFFFFF;}
	.st4{opacity:0.36;}
	.st5{fill:#00D3CD;}
	.st6{opacity:0.85;fill:none;stroke:#FFFFFF;stroke-width:6;stroke-miterlimit:10;}
	.st7{opacity:0.08;}
	.st8{opacity:0.86;}
	.st9{fill:none;stroke:#FFFFFF;stroke-width:3;stroke-miterlimit:10;stroke-dasharray:5.0457,5.0457;}
	.st10{fill:#006D67;}
	.st11{fill:#0DA398;}
	.st12{fill:#666666;}
	.st13{fill:#4C4C4C;}
	.st14{fill:#7A58A8;}
	.st15{fill:#EBC8B4;}
	.st16{opacity:0.5;fill:#C69E8B;}
	.st17{fill:#7050A3;}
	.st18{fill:#E0B199;}
	.st19{fill:#91006D;}
	.st20{fill:#820267;}
	.st21{fill:#603813;}
	.st22{fill:#1A1A1A;}
	.st23{fill:none;stroke:#D39E84;stroke-width:2;stroke-miterlimit:10;}
	.st24{fill:#D39E84;}
	.st25{opacity:0.45;fill:#D39E84;}
	.st26{fill:#7F0165;}
	.st27{fill:none;}
	.st28{fill:#FFB229;}
	.st29{fill:#FF9900;}
	.st30{fill:#FFCC66;}
	.st31{fill:#565656;}
	.st32{fill:#3F3F3F;}
	.st33{fill:#ABFFFB;}
	.st34{fill:#31DDD0;}
	.st35{fill:#FFFFFF;}
	.st36{fill:none;stroke:#D39E84;stroke-miterlimit:10;}
	.st37{fill:#FFF1D9;}
	.st38{opacity:0.65;}
	.st39{fill:#FCD695;}
	.st40{fill:none;stroke:#FFB229;stroke-width:2;stroke-linecap:round;stroke-linejoin:round;stroke-miterlimit:10;}
	.st41{fill:none;stroke:#AD0088;stroke-width:4;stroke-miterlimit:10;}
	.st42{fill:#5E3D91;}
	.st43{font-family:'CircularStd-Black';}
	.st44{font-size:41.0675px;}
	.st45{fill:#AD0088;}
	.st46{fill:#72005A;}
	.st47{fill:#E1FFFD;}
	.st48{opacity:0.31;fill:#777777;}
	.st49{fill:#FFE6FA;}
	.st50{fill:#D3BB94;}
	.st51{fill:#540145;}
	.st52{fill:#660050;}
	.st53{fill:#1E1E47;}
	.st54{fill:#27275B;}
	.st55{opacity:0.5;fill:none;stroke:#FFFFFF;stroke-miterlimit:10;stroke-dasharray:2,4;}
	.st56{fill:#333366;}
	.st57{opacity:0.5;}
	.st58{fill:none;stroke:#FFFFFF;stroke-miterlimit:10;}
	.st59{fill:none;stroke:#FFFFFF;stroke-miterlimit:10;stroke-dasharray:1.9899,3.9798;}
	.st60{opacity:0.21;}
	.st61{fill:#0D9386;}
	.st62{fill:#AF9A7D;}
	.st63{fill:#050505;}
	.st64{fill:none;stroke:#050505;stroke-width:3;stroke-miterlimit:10;}
	.st65{fill:#E5E5E5;}
	.st66{opacity:0.47;fill:#B78574;}
	.st67{opacity:0.37;fill:#AF6C00;}
</style>
<g id="ayak_x5F_on_1_">
	<rect x="3743.49" y="591.54" class="st0" width="15.48" height="259.74"/>
	<rect x="3758.97" y="591.54" class="st1" width="4.94" height="259.74"/>
	<rect x="3743.49" y="591.54" class="st2" width="20.42" height="13.89"/>
	<rect x="3211.01" y="591.54" class="st0" width="15.48" height="259.74"/>
	<rect x="3226.49" y="591.54" class="st1" width="4.94" height="259.74"/>
	<rect x="3211.01" y="591.54" class="st2" width="20.42" height="13.89"/>
	<polygon class="st2" points="3211.01,713.48 3231.43,734.16 3231.43,694.32 3211.01,694.32 	"/>
</g>
<g id="circle">
	<ellipse class="st3" cx="3047.17" cy="402.11" rx="207.74" ry="204.68"/>
	<ellipse class="st3" cx="3047.17" cy="400.99" rx="189.45" ry="187.79"/>
	<g class="st4">
		<path class="st5" d="M3047.17,248.51c-85.21,0-154.28,68.27-154.28,152.48s69.07,152.47,154.28,152.47
			c85.2,0,154.27-68.26,154.27-152.47S3132.37,248.51,3047.17,248.51z M3047.17,511.17c-61.57,0-111.49-49.33-111.49-110.18
			c0-60.86,49.92-110.19,111.49-110.19c61.57,0,111.48,49.33,111.48,110.19C3158.65,461.84,3108.74,511.17,3047.17,511.17z"/>
	</g>
	<path class="st6" d="M2847.79,452.23c-4.3-16.37-6.58-33.55-6.58-51.25c0-112.42,92.21-203.56,205.96-203.56
		c99.53,0,182.57,69.78,201.77,162.53"/>
	<path class="st6" d="M3218.91,320.56c11.71,24.38,18.26,51.64,18.26,80.42c0,103.71-85.07,187.79-190,187.79
		c-104.94,0-190-84.08-190-187.79c0-12.96,1.33-25.62,3.86-37.85"/>
	<g class="st7">
		<ellipse class="st5" cx="3047.17" cy="400.99" rx="72.69" ry="71.85"/>
	</g>
	<g class="st8">
		<ellipse class="st9" cx="3047.17" cy="400.99" rx="72.69" ry="71.85"/>
	</g>
</g>
<g id="sandalye">
	<g>
		<path class="st10" d="M3094.64,519.67v152.06c0,4.69-4.31,8.5-9.62,8.5H2972.8V511.17h112.22c2.65,0,5.07,0.95,6.8,2.49
			C3093.56,515.2,3094.64,517.33,3094.64,519.67z"/>
	</g>
	<g>
		<path class="st11" d="M2972.8,680.23L2972.8,680.23c-4.69,0-8.5-3.81-8.5-8.5V519.67c0-4.69,3.81-8.5,8.5-8.5l0,0
			c4.69,0,8.5,3.81,8.5,8.5v152.06C2981.3,676.42,2977.5,680.23,2972.8,680.23z"/>
	</g>
	<g>
		<path class="st10" d="M3192.67,705.73h-122.58c-8.31,0-15.11-6.8-15.11-15.11l0,0c0-8.31,6.8-15.11,15.11-15.11h122.58
			c8.31,0,15.11,6.8,15.11,15.11l0,0C3207.78,698.93,3200.98,705.73,3192.67,705.73z"/>
	</g>
	<g>
		<path class="st11" d="M3099.85,705.73h-114.77c-8.31,0-15.11-6.8-15.11-15.11l0,0c0-8.31,6.8-15.11,15.11-15.11h114.77
			c8.31,0,15.11,6.8,15.11,15.11l0,0C3114.96,698.93,3108.16,705.73,3099.85,705.73z"/>
	</g>
	<path class="st12" d="M3099.35,864.36L3099.35,864.36c-1.99,0.22-3.8-1.24-4.02-3.23l-16.42-150.92c-0.22-1.99,1.24-3.8,3.23-4.02
		l0,0c1.99-0.22,3.8,1.24,4.02,3.23l16.42,150.92C3102.8,862.34,3101.35,864.15,3099.35,864.36z"/>
	<path class="st12" d="M2984.56,864.36L2984.56,864.36c1.99,0.22,3.8-1.24,4.02-3.23l16.42-150.92c0.22-1.99-1.24-3.8-3.23-4.02l0,0
		c-1.99-0.22-3.8,1.24-4.02,3.23l-16.42,150.92C2981.11,862.34,2982.56,864.15,2984.56,864.36z"/>
	<path class="st13" d="M3196.93,864.36L3196.93,864.36c-1.99,0.22-3.8-1.24-4.02-3.23l-16.42-150.92c-0.22-1.99,1.24-3.8,3.23-4.02
		l0,0c1.99-0.22,3.8,1.24,4.02,3.23l16.42,150.92C3200.38,862.34,3198.92,864.15,3196.93,864.36z"/>
	<path class="st12" d="M3180.14,713.48H3001.2c-1.9,0-3.46-1.56-3.46-3.46v-0.84c0-1.9,1.56-3.46,3.46-3.46h178.94
		c1.9,0,3.46,1.56,3.46,3.46v0.84C3183.6,711.93,3182.05,713.48,3180.14,713.48z"/>
</g>
<g id="employee">
	<path class="st14" d="M3191.43,863.97c-6.7-1.08-15.51-6.42-20.48-9.89c-4.98-3.46-19.39-2.68-23.02-6.1
		c-6.98-6.57-3.41-16.07,0.55-23.21c8.97,4.31,15.92,16.83,23.4,20.35c6.6,3.1,18.52,3.83,25.58,3.35h0.01
		c5.78,3.67,11.83,7.5,14.07,11.19C3215.22,865.72,3198.14,865.05,3191.43,863.97z"/>
	<path class="st15" d="M3197.46,848.47c-7.06,0.48-18.98-0.25-25.58-3.35c-7.48-3.52-14.43-16.04-23.4-20.35
		c2.3-4.16,4.73-7.52,5.29-9.03c1.51-4.11-5.85-99.31-6-108.34c-0.23-13.54,5.1-27.88,5.1-27.88s-1.74-0.63-7.1-0.63
		c-5.32,0-10.86,0.75-14.07,0l10.82-44.89c0,0,29.64-8.65,41.11-4.97c11.46,3.67,10.17,17.3,10.82,27.04
		c0.64,9.74-7.99,52.77-9.5,67.79c-0.76,7.51-15.52,90.37-11.41,99.24c3.02,6.52,8.51,13.59,14.2,18.6
		C3190.16,843.84,3193.76,846.12,3197.46,848.47z"/>
	<path class="st16" d="M3192.67,678.88c-3.03-1.68-7.47-4.52-11.87-9.01c-10.17-10.38-7.57-16.8-16.18-22.39
		c-7-4.54-18.84-6.87-23.5-4.21c-0.27,0.15-0.86,0.45-1.4,0.3c-3.4-0.93-1.82-15.95,4.73-16.49c7.31-0.6,13.08-2.22,24.16,5.76
		c11.47,8.26,20.73,14.88,24.07,27.27C3193.62,663.66,3194.78,670.22,3192.67,678.88z"/>
	<path class="st14" d="M3323.83,797.46c0,0-7.67,5.18-20.33-0.67c-12.66-5.84-17.37-8.44-23.94-8.57
		c-9.37-0.19-17.72,0.48-20.97-5.69c-2.66-5.06,0.8-11.44,2.66-18.04c2.62-0.1,5.39,0.24,8,1.38c5.32,2.33,13.96,9.64,22.61,12.97
		c5.72,2.19,10.56,1.78,13.86,0.56C3312.28,783.94,3323.83,791.56,3323.83,797.46z"/>
	<path class="st15" d="M3305.72,779.4c-3.3,1.22-8.14,1.63-13.86-0.56c-8.65-3.33-17.29-10.64-22.61-12.97
		c-2.61-1.14-5.38-1.48-8-1.38c0.41-1.44,0.74-2.9,0.91-4.35c0.98-8.12-18.28-20.08-27.72-29.74
		c-12.11-12.39-49.38-59.75-53.65-69.61c-16.52-38.2-45.28-23.07-46.09-22.63l38.51-38.02c8.47,0,25.02,3.45,33.14,14.13
		c4.6,6.06,56.14,104.65,60.03,110.17c3.9,5.52,11.9,22.58,14.49,28.42c2.6,5.84,15.67,19.9,22.63,24.98
		C3304.14,778.3,3304.89,778.83,3305.72,779.4z"/>
	<path class="st16" d="M3156.35,607.69c-1.41,0.5,0.94,4.21,4.92,7.23c8.73-4.01,17.93-4.43,30.43,1.37
		c23.67,10.97,35.77,36.15,35.77,36.15l-21.12-38.17l-17.99-14.72l-25.85,7.25"/>
	<path class="st14" d="M3161.27,614.92c-7.07,6.7-11.38,14.49-12.48,16.48c-12.43,22.46-3.95,42.67-15.52,51.61
		c-6.77,5.23-18.78-7.64-40.93-7.5c-24.82,0.16-39.88,0.6-50.68,0.24c-3.07-0.03-17.23-0.47-28.47-11.69
		c-7.06-7.05-15.02-20.4-11.31-31.48c6.66-19.84,47.03-21.28,55.09-21.39c32.51-0.46,44.35,13.64,77.68,9.99
		C3146.07,619.93,3155.24,617.13,3161.27,614.92z"/>
	<path class="st17" d="M3207.14,615.46c-4.25-3.39-13.15-11.36-23.34-11.04c-9.17,0.29-16.77,5.03-22.53,10.5
		c-6.02,3.52-16.1,8.55-29.25,10.79c-36.08,6.13-53.46-15.92-90.23-10.36c-5.46,0.82-33.86,5.12-37.91,21.12
		c-2.85,11.28,7.39,24.45,16.13,31.01c8.34,6.26,17.07,7.81,21.65,8.28c-3.87,0.52-10.85-0.19-19.15-2.5
		c-3.27-0.91-17.71-11.18-21.5-29.04c-2.83-13.35,1.76-25.56,6.54-32.81c11.98-18.18,38.86-26.02,66.82-18.73l0.56-1.66
		c92.46-6.98,106.75,0.53,106.75,0.53C3201.85,597.2,3204.55,610.75,3207.14,615.46z"/>
	<path class="st18" d="M3171.81,500.98c-10.39,5.29-22.32,11.27-24.19,11.86c-3.41,1.08-5.62,1.58-11.83,1.36
		c-6.21-0.23-15.74-5.88-21.51-6.43c-5.76-0.56-8.27,2.2-11.59,4.73c-1.94,1.48-3.3,2.44-4.1,2.98c-2.99-1.82-4.83-3.05-4.83-3.05
		l10.73-22.84c0,0,25.46,23.2,34.62,23.32C3143.85,512.97,3158.42,507.27,3171.81,500.98z"/>
	<path class="st18" d="M3230.33,483.28c-2.26,1.21-7.82,3.85-13.51,4.2c-3.87,0.24-7.03-0.38-7.03-0.38
		c-0.85-0.17-0.88-0.22-3.17-0.73c-4.56-1-5.35-0.99-5.93-0.94c-0.97,0.09-2.51,0.42-4.32,1.67c0.39-0.38,0.67-0.72,0.83-1.01
		c2.61-4.86,13.07-0.38,16.91-0.6C3221.48,485.06,3229.66,481.53,3230.33,483.28z"/>
	<path class="st15" d="M3215.73,493.71c-3.74-1.22-8.69-2.08-13.88-0.58c-4.19,1.22-6.87,3.48-8.42,4.77
		c-9.15,7.6-19.42,13.74-29.04,20.73c-4.21,3.05-10.11,7.08-17.67,11.4c-3.17,0.93-6.26,1.45-9.2,1.45
		c-11.41-0.01-30.15-10.6-38.93-16c0.8-0.54,2.16-1.5,4.1-2.98c3.32-2.53,5.83-5.29,11.59-4.73c5.77,0.55,15.3,6.2,21.51,6.43
		c6.21,0.22,8.42-0.28,11.83-1.36c1.87-0.59,13.8-6.57,24.19-11.86c0.07-0.02,0.14-0.06,0.2-0.09c5.83-2.74,11.43-5.59,15.87-8.12
		c3.97-2.25,7.02-4.24,8.49-5.67c1.81-1.25,3.35-1.58,4.32-1.67c0.58-0.05,1.37-0.06,5.93,0.94c2.29,0.51,2.32,0.56,3.17,0.73
		c0,0,3.16,0.62,7.03,0.38c5.69-0.35,11.25-2.99,13.51-4.2c0.03,0.07,0.05,0.16,0.05,0.26
		C3230.38,483.54,3230.8,491.29,3215.73,493.71z"/>
	<path class="st19" d="M3109.08,492.63l-10.36,24.57c0,0-4.91-2.82-7.05-4.07c-2.79-1.62-2.29,12.37-1.67,26.64
		c0.2,4.57-5.68,12.99-7.63,16.88c-0.71,1.43-1.31,3.12-1.79,4.99h-80.05c-0.13-7.12-0.32-12.54-0.63-14.53
		c-1.3-8.44-5.07-23.53-9.56-30.48c-5.16-7.98-5.47-22.45-3.61-29.04c2.44-8.64,5.69-13.86,14.05-20.29
		c8.54-6.56,24.31-9.52,24.31-9.52l29.26-0.69c0,0,16.3,1.72,24.05,7.26c6.82,4.88,8.96,7.02,16.24,13.52
		C3102.77,485.15,3109.08,492.63,3109.08,492.63z"/>
	<path class="st20" d="M3016.84,534.67l-5.23,3.19c0,0,13.66,18.35,20.42,19.34s25.05,1.5,25.05,1.5L3016.84,534.67z"/>
	<path class="st15" d="M3054.7,450.44c-1.1,2.84-0.98,4.88,0.64,6.75c1.66,1.91,2.45,1.93,2.45,1.93s-1.68,11.13-12.71,11.46
		s-22.63-10.52-21.84-11.57c0.75-1,4.13-8.47,4.29-12.37c0.16-3.89,0-17.85,0-17.85l21.26,7.95L3054.7,450.44z"/>
	<path class="st15" d="M3085.51,419.65c-0.21,2.99-0.72,5.91-1.52,8.76c-0.27,1.05-0.6,2.09-0.96,3.12
		c-2.6,7.4-6.46,14.42-12.02,18.19c-4.99,3.39-13.41,2.73-19.15-0.66c-6.34-3.77-19.95-9.9-24.34-20.28
		c-1.91-4.53-12.32-28.4-12.32-28.4l9.72-17.2l54.05,7.14l4.06,10.05C3085.19,406.96,3085.98,413.42,3085.51,419.65z"/>
	<path class="st21" d="M3087.57,398.6c-1.14,6.01-15.68,2.07-33.1,0.65c-6.4-0.52-17.4-0.06-19.96,5.35
		c-1.46,3.08-2.27,7.14-2.27,7.14s-0.53-2.77-1.2-5.81c-0.92-4.19-0.61-5.83-2.05-7.44c-0.33-0.37-1.56-1.74-3.41-1.84
		c-1.36-0.07-2.39,0.58-2.76,0.81c-2.77,1.75-4.02,6.44-3.41,10.22c0.73,4.51,3.73,5.34,7.98,10.73
		c1.05,1.33,11.19,14.49,6.79,23.83c-0.28,0.6-1.52,3.08-4.22,4.71c-7.11,4.28-17.25-1.68-18.5-2.43
		c-15.78-9.56-14.47-36.68-14.28-39.76c0.28-4.53,1.75-28.73,22.23-42.68c5.16-3.51,17.63-10.54,33.26-8.11
		c16.18,2.51,33.27,14.75,35.86,31.32C3089.37,390.61,3088.54,395.27,3087.57,398.6z"/>
	
		<ellipse transform="matrix(0.9988 -0.0485 0.0485 0.9988 -16.4844 149)" class="st22" cx="3059.42" cy="413.89" rx="1.22" ry="3.16"/>
	
		<ellipse transform="matrix(0.9988 -0.0485 0.0485 0.9988 -16.4207 149.8722)" class="st22" cx="3077.41" cy="413.01" rx="1.22" ry="3.16"/>
	<path class="st23" d="M3069.23,410.77c0.81,3.93,2.06,6.82,3.08,8.76c1.18,2.25,2.14,3.39,1.79,4.71c-0.57,2.1-4.06,2.99-6.98,3.41
		"/>
	<path class="st24" d="M3072.64,434.14c-0.88,3.64-3.76,6.36-7.14,6.82c-4.22,0.57-8.58-2.47-9.63-7.21
		c2.03,0.83,5.58,1.97,10.06,1.75C3068.7,435.35,3070.99,434.73,3072.64,434.14z"/>
	
		<ellipse transform="matrix(0.0698 -0.9976 0.9976 0.0698 2416.4797 3435.4915)" class="st25" cx="3050.42" cy="421.98" rx="4.69" ry="9.82"/>
	<path class="st25" d="M3085.51,419.65c-0.21,2.99-0.72,5.91-1.52,8.76c-3.26-0.68-5.52-2.21-5.58-4.06
		C3078.34,422.18,3081.35,420.29,3085.51,419.65z"/>
	<path class="st15" d="M3144.43,558.55c-4.74-0.28-20.96-0.07-26.53-0.4c-5.57-0.33-45.35-2.91-50.59-2.83
		c-5.24,0.08-23.59-2.25-27.14-4.91c-3.54-2.66-17.6-19.33-17.6-19.33l13.46-8.42l23.39,21.12c0,0,49.1,7.71,55.75,7.71
		c6.65,0,14.21-3.11,20.17-1.78C3139.54,550.65,3143.15,556.27,3144.43,558.55z"/>
	<path class="st18" d="M3144.43,558.55c0,0-84.47,0.34-91.11,0c-16.85-0.86-36.48-23.88-36.48-23.88c6.4-4,12.79-8.01,19.19-12.01
		c-1.15,2.53-3.72,9.17-1.67,16.92c0.65,2.46,1.99,7.48,6.43,10.53c1.96,1.34,4.18,2.07,11.97,2.55c6.48,0.4,9.71,0.6,14.63,0.22
		c17.11-1.31,27.98,4.55,53.2,5.1c5.18,0.11,13.14,0.05,23.01-1.05C3143.88,557.47,3144.16,558.01,3144.43,558.55z"/>
	<path class="st23" d="M3063.1,407.1c-0.95-0.45-2.68-1.11-4.91-1.08c-3.35,0.04-5.71,1.61-6.57,2.24"/>
	<path class="st23" d="M3075.16,406.64c0.69-0.33,2.05-0.87,3.82-0.83c2.13,0.05,3.67,0.91,4.32,1.33"/>
	<path class="st24" d="M3054.7,450.44c-3.83-1.17-11.72-7.72-11.72-7.72l11.02,11.45C3053.68,452.78,3054.7,450.44,3054.7,450.44z"
		/>
	<path class="st26" d="M3077.99,585.41c-0.65,4.51,6.25,3.84,6.25,3.84c1.43-0.65,1.72-0.74,1.74-0.71
		c0.15,0.29-18.04,16.93-40.19,18.54c-5.21,0.38-14.66,0.22-25.33,4.15c-3.16,1.16-5.82,2.47-6.34,2.72
		c-6.73,3.31-11.71,7.16-15.01,10.09c0.7-6.99,1.25-14.28,1.6-21.86c0.66-14.46,0.5-28.02-0.18-40.54h80.05
		c-0.83,3.23-1.29,7.01-1.29,10.91C3079.29,575.64,3078.64,580.91,3077.99,585.41z"/>
	<path class="st27" d="M3044.62,677.53c-1-0.58-1.99-1.17-2.96-1.78"/>
	<polyline class="st20" points="3037.51,521.88 3024.17,500.23 3038.78,520.88 	"/>
	<polyline class="st20" points="3011.61,537.86 2992.99,509.37 3012.36,537.41 	"/>
	<path class="st27" d="M3187.88,492.77c0,0-7.4,3.81-15.87,8.12c-0.06,0.03-0.13,0.07-0.2,0.09"/>
	<path class="st27" d="M3098.59,515.48c-0.57,0.39-0.85,0.56-0.85,0.56"/>
	<path class="st18" d="M3215.73,493.71c-3.31,0.54-7.36,0.81-12.33,0.69c-5.44-0.13-33.2,28.77-56.68,35.63
		c7.56-4.32,13.46-8.35,17.67-11.4c9.62-6.99,19.89-13.13,29.04-20.73c1.55-1.29,4.23-3.55,8.42-4.77
		C3207.04,491.63,3211.99,492.49,3215.73,493.71z"/>
</g>
<g id="masa_x5F_ust">
	<path class="st28" d="M3808.28,575.04h-510.16c1.44-2.51,3.21-4.8,5.24-6.83c5.98-5.98,14.22-9.67,23.34-9.67h453
		C3791.92,558.54,3802.58,565.18,3808.28,575.04z"/>
	<path class="st29" d="M3812.7,591.54h-519c0-6.01,1.61-11.65,4.42-16.5h510.16C3811.09,579.89,3812.7,585.53,3812.7,591.54z"/>
	<path class="st30" d="M3531.53,575.04h-634.86c1.45-2.51,3.22-4.8,5.25-6.83c5.97-5.98,14.22-9.67,23.33-9.67h577.71
		C3515.17,558.54,3525.83,565.18,3531.53,575.04z"/>
	<path class="st28" d="M3535.96,591.54h-643.71c0-6.01,1.61-11.65,4.42-16.5h634.86C3534.35,579.89,3535.96,585.53,3535.96,591.54z"
		/>
</g>
<g id="laptop">
	<path class="st31" d="M3659.33,558.55h-145.15c-3.04,0-5.52-2.49-5.52-5.52l0,0c0-3.04,2.49-5.52,5.52-5.52h145.15
		c3.04,0,5.52,2.49,5.52,5.52l0,0C3664.86,556.06,3662.37,558.55,3659.33,558.55z"/>
	<path class="st32" d="M3547.89,558.51h-104.64L3427.3,451.3h104.63c0.17-0.03,0.33-0.03,0.5-0.03c1.63,0,3.07,1.2,3.32,2.86
		l14.96,100.56C3550.99,556.51,3549.72,558.24,3547.89,558.51z"/>
	<path class="st12" d="M3439.44,555.68l-14.97-100.56c-0.27-1.83,1-3.55,2.83-3.82l0,0c1.83-0.27,3.55,1,3.82,2.83l14.97,100.56
		c0.27,1.83-1,3.55-2.83,3.82l0,0C3441.43,558.78,3439.71,557.51,3439.44,555.68z"/>
	<path class="st12" d="M3612.28,545.72c-0.17,0.03-0.33,0.03-0.5,0.03c-0.14,0-0.28-0.01-0.42-0.03H3612.28z"/>
	<path class="st12" d="M3562.39,558.55h-117.31c-3.04,0-5.52-2.49-5.52-5.52l0,0c0-3.04,2.49-5.52,5.52-5.52h117.31
		c3.04,0,5.52,2.49,5.52,5.52l0,0C3567.91,556.06,3565.42,558.55,3562.39,558.55z"/>
	<g>
		<polygon class="st33" points="3543.43,536.93 3448.82,536.93 3437.27,457.44 3531.89,457.44 		"/>
	</g>
	<g>
		<polygon class="st34" points="3439.55,457.44 3451.26,534.26 3538.61,534.26 3527.3,457.99 		"/>
	</g>
	<g>
		<polygon class="st35" points="3540.31,533.2 3453.17,533.2 3435.46,414.32 3522.6,414.32 		"/>
		<g>
			<path class="st11" d="M3514,492.47h-47.29c-2.41,0-4.47-1.73-4.88-4.11l0,0c-0.53-3.03,1.81-5.8,4.88-5.8H3514
				c2.41,0,4.47,1.73,4.88,4.11l0,0C3519.4,489.7,3517.07,492.47,3514,492.47z"/>
		</g>
		<g>
			<path class="st33" d="M3512.87,451.12c0,11.49-7.74,21.16-18.29,24.08c-2.12,0.61-4.38,0.92-6.7,0.92
				c-2.62,0-5.15-0.41-7.54-1.16c-10.12-3.19-17.45-12.65-17.45-23.84c0-13.8,11.19-24.99,24.99-24.99
				C3501.68,426.13,3512.87,437.32,3512.87,451.12z"/>
		</g>
		<g id="employee_1_">
			<path class="st15" d="M3494.58,475.2c-2.12,0.61-4.38,0.92-6.7,0.92c-2.62,0-5.15-0.41-7.54-1.16c-0.12-0.58,0.99-4.1,1.26-5.86
				c0.03-0.2,0.05-0.38,0.05-0.53c0.07-1.47,0-6.81,0-6.81l2.61,0.97l5.49,2.06l1.95,5.07c0.22,1.06-0.03,2.79,0.77,3.29
				c0.81,0.49,1.99,1.35,1.99,1.35S3494.54,474.79,3494.58,475.2z"/>
			<path class="st15" d="M3503.77,458.29c-0.08,1.14-0.28,2.25-0.58,3.34c-0.1,0.4-0.23,0.8-0.36,1.19
				c-0.99,2.82-3.1,6.19-4.58,6.94c-1.48,0.74-5.11,1.04-7.3-0.25c-2.42-1.44-7.61-3.77-9.28-7.73c-0.73-1.73-4.7-10.83-4.7-10.83
				l3.71-6.56l20.61,2.72l1.55,3.83C3503.65,453.45,3503.95,455.92,3503.77,458.29z"/>
			<path class="st21" d="M3504.55,450.27c-0.44,2.29-5.98,0.79-12.62,0.25c-2.44-0.2-6.63-0.02-7.61,2.04
				c-0.56,1.18-0.87,2.72-0.87,2.72s-0.2-1.06-0.46-2.22c-0.35-1.6-0.23-2.22-0.78-2.84c-0.13-0.14-0.59-0.66-1.3-0.7
				c-0.52-0.03-0.91,0.22-1.05,0.31c-1.06,0.67-1.53,2.46-1.3,3.9c0.28,1.72,1.42,2.04,3.04,4.09c0.4,0.51,4.27,5.53,2.59,9.09
				c-0.11,0.23-0.58,1.17-1.61,1.79c-2.71,1.63-6.58-0.64-7.05-0.93c-6.02-3.64-5.52-13.98-5.44-15.16
				c0.11-1.73,0.67-10.95,8.48-16.27c1.97-1.34,6.72-4.02,12.68-3.09c6.17,0.96,12.68,5.62,13.67,11.94
				C3505.24,447.22,3504.92,449,3504.55,450.27z"/>
			
				<ellipse transform="matrix(0.9988 -0.0485 0.0485 0.9988 -18.0212 170.1366)" class="st22" cx="3493.82" cy="456.09" rx="0.46" ry="1.21"/>
			
				<ellipse transform="matrix(0.9988 -0.0485 0.0485 0.9988 -17.9969 170.4692)" class="st22" cx="3500.68" cy="455.76" rx="0.46" ry="1.21"/>
			<path class="st36" d="M3497.56,454.91c0.31,1.5,0.79,2.6,1.18,3.34c0.45,0.86,0.82,1.29,0.68,1.79c-0.22,0.8-1.55,1.14-2.66,1.3"
				/>
			<path class="st24" d="M3498.86,463.82c0,0-0.74,2.66-2.72,2.6c-1.98-0.06-4.27-2.6-4.27-2.6H3498.86z"/>
			
				<ellipse transform="matrix(0.0698 -0.9976 0.9976 0.0698 2788.6252 3908.9927)" class="st25" cx="3490.39" cy="459.18" rx="1.79" ry="3.74"/>
			<path class="st25" d="M3503.77,458.29c-0.08,1.14-0.28,2.25-0.58,3.34c-1.24-0.26-2.11-0.84-2.13-1.55
				C3501.04,459.26,3502.18,458.54,3503.77,458.29z"/>
		</g>
		<polygon class="st28" points="3466.09,515.41 3461.71,513.02 3457.27,515.28 3458.18,510.38 3454.67,506.84 3459.61,506.2 
			3461.88,501.76 3464.02,506.27 3468.94,507.06 3465.32,510.48 		"/>
		<polygon class="st28" points="3482.14,515.41 3477.76,513.02 3473.31,515.28 3474.23,510.38 3470.71,506.84 3475.65,506.2 
			3477.93,501.76 3480.07,506.27 3484.99,507.06 3481.37,510.48 		"/>
		<polygon class="st28" points="3529.17,515.41 3524.79,513.02 3520.34,515.28 3521.26,510.38 3517.74,506.84 3522.68,506.2 
			3524.95,501.76 3527.09,506.27 3532.02,507.06 3528.4,510.48 		"/>
		<polygon class="st28" points="3513.57,515.41 3509.19,513.02 3504.74,515.28 3505.66,510.38 3502.14,506.84 3507.08,506.2 
			3509.35,501.76 3511.49,506.27 3516.42,507.06 3512.8,510.48 		"/>
		<polygon class="st28" points="3497.91,515.41 3493.54,513.02 3489.09,515.28 3490,510.38 3486.49,506.84 3491.43,506.2 
			3493.7,501.76 3495.84,506.27 3500.76,507.06 3497.14,510.48 		"/>
	</g>
</g>
<g>
	<path class="st28" d="M3185.86,276.82c0,1.53-1.93,2.77-4.3,2.77c-2.4,0-4.33-1.24-4.33-2.77H3185.86z"/>
	<path class="st28" d="M3205.23,238.07c0,7.43-3.31,14.1-8.5,18.47c0,0,0,0-0.03,0.03c-3.31,3.79-8.03,9.38-8.03,10.93
		c0,1.98-5.99,0.34-6.98,0.03h-0.03c-0.99,0.31-7.01,1.95-7.01-0.03c0-1.72-5.79-8.47-9.05-12.15c-0.06-0.03-0.08-0.06-0.11-0.11
		c-0.77-0.82-1.38-1.5-1.74-1.89c-3.37-4.15-5.38-9.49-5.38-15.28c0-13.25,10.48-23.98,23.42-23.98S3205.23,224.82,3205.23,238.07z"
		/>
	<g>
		<path class="st37" d="M3179.48,267.49c0.56-5.26,0.18-10.56-0.18-15.81c-0.22-2.63-0.48-5.25-0.87-7.84
			c-0.1-0.64-0.2-1.29-0.33-1.93c-0.12-0.7-0.21-1.15-0.51-1.57c-0.28-0.41-0.68-0.74-1.12-0.92c-0.22-0.09-0.46-0.15-0.7-0.16
			c-0.27-0.02-0.54-0.01-0.79,0.03c-0.5,0.08-0.88,0.3-1.18,0.65c-0.32,0.35-0.53,0.85-0.66,1.38c-0.26,1.06-0.12,2.29,0.35,3.19
			c0.47,0.9,1.41,1.48,2.54,1.82c1.14,0.33,2.4,0.48,3.69,0.54c1.28,0.07,2.61,0.07,3.91,0.09c1.29,0,2.57-0.04,3.75-0.28
			c1.18-0.22,2.26-0.7,2.86-1.46c0.3-0.38,0.57-0.92,0.71-1.43c0.07-0.26,0.12-0.53,0.15-0.8c0.01-0.13,0.02-0.27,0.02-0.4l0-0.19
			l-0.03-0.31l0.01,0.16c-0.18-1.19-1.12-2.2-2.33-2.76c-0.59-0.27-1.25-0.42-1.79-0.36c-0.56,0.06-0.83,0.29-1.11,0.83
			c-0.51,1.11-0.46,2.75-0.58,4.29l-0.23,4.63c-0.26,6.2-0.58,12.41-1.2,18.59l-0.02-9.31l-0.09-9.31c-0.01-1.55,0-3.11,0.04-4.67
			c0.03-0.79,0.03-1.53,0.07-2.35c0.05-0.81,0.12-1.66,0.48-2.55c0.19-0.44,0.48-0.9,0.92-1.26c0.44-0.36,0.98-0.55,1.48-0.61
			c1.01-0.13,1.91,0.1,2.74,0.44c0.82,0.36,1.57,0.86,2.2,1.55c0.63,0.69,1.09,1.56,1.27,2.5l0.01,0.16c-0.01-0.2,0-0.06,0-0.06
			l0.01,0.08l0.01,0.16l0.01,0.3c0,0.2,0,0.39-0.02,0.59c-0.03,0.39-0.1,0.77-0.2,1.15c-0.21,0.76-0.52,1.45-1.03,2.11
			c-1.06,1.34-2.61,1.91-3.99,2.19c-1.41,0.29-2.8,0.34-4.15,0.35c-1.34,0-2.66-0.03-4.03-0.11c-1.35-0.09-2.74-0.23-4.14-0.66
			c-0.7-0.22-1.4-0.53-2.06-0.98c-0.65-0.45-1.23-1.08-1.61-1.81c-0.73-1.46-0.81-3.04-0.43-4.54c0.21-0.75,0.53-1.5,1.11-2.13
			c0.57-0.64,1.43-1.08,2.25-1.18c0.41-0.06,0.8-0.06,1.19-0.03c0.42,0.03,0.83,0.14,1.22,0.31c0.77,0.33,1.43,0.9,1.86,1.61
			c0.22,0.35,0.38,0.73,0.49,1.13c0.11,0.43,0.12,0.71,0.19,1.06c0.11,0.67,0.18,1.33,0.27,2c0.31,2.66,0.45,5.32,0.53,7.98
			c0.08,2.66,0.05,5.32-0.07,7.97C3180.24,262.24,3180.08,264.91,3179.48,267.49z"/>
	</g>
	<g class="st38">
		<path class="st35" d="M3180.39,215.63c2.22-0.51,4.58-0.4,6.83,0.1c2.26,0.5,4.43,1.45,6.39,2.69c0.99,0.62,1.91,1.35,2.77,2.14
			c0.84,0.82,1.63,1.7,2.27,2.67c1.32,1.93,2.17,4.16,2.39,6.43c-1.05-2.02-2.22-3.85-3.65-5.45c-1.42-1.59-3.06-2.96-4.86-4.12
			C3188.94,217.75,3184.87,216.2,3180.39,215.63z"/>
	</g>
	<path class="st39" d="M3188.68,267.5v7.56c0,0.88-0.7,1.59-1.56,1.59h-10.9c-0.86,0-1.56-0.71-1.56-1.59v-7.56H3188.68z"/>
	<g>
		<line class="st40" x1="3183.63" y1="208.81" x2="3183.63" y2="198.67"/>
		<line class="st40" x1="3198.54" y1="213.5" x2="3204.61" y2="205.76"/>
		<line class="st40" x1="3169.48" y1="213.17" x2="3163.21" y2="205.19"/>
		<line class="st40" x1="3207.95" y1="223.19" x2="3216.75" y2="218.87"/>
		<line class="st40" x1="3210.38" y1="237.28" x2="3219.55" y2="237.28"/>
		<line class="st40" x1="3157.96" y1="223.19" x2="3149.16" y2="218.87"/>
		<line class="st40" x1="3155.53" y1="237.28" x2="3146.36" y2="237.28"/>
	</g>
</g>
<g>
	<g>
		<path class="st11" d="M2918.14,525.05h-76.78c-0.55,0-1-0.45-1-1v-8.34c0-0.55,0.45-1,1-1h76.78c0.55,0,1,0.45,1,1v8.34
			C2919.14,524.6,2918.69,525.05,2918.14,525.05z"/>
	</g>
	<g>
		<path class="st11" d="M2848.91,511.07h-7.55c-0.55,0-1-0.45-1-1v-27.86c0-0.55,0.45-1,1-1h7.55c0.55,0,1,0.45,1,1v27.86
			C2849.91,510.62,2849.46,511.07,2848.91,511.07z"/>
	</g>
	<g>
		<path class="st11" d="M2865.51,511.07h-7.55c-0.55,0-1-0.45-1-1V474.9c0-0.55,0.45-1,1-1h7.55c0.55,0,1,0.45,1,1v35.17
			C2866.51,510.62,2866.06,511.07,2865.51,511.07z"/>
	</g>
	<g>
		<path class="st11" d="M2883.12,511.07h-7.55c-0.55,0-1-0.45-1-1v-27.86c0-0.55,0.45-1,1-1h7.55c0.55,0,1,0.45,1,1v27.86
			C2884.12,510.62,2883.67,511.07,2883.12,511.07z"/>
	</g>
	<g>
		<path class="st11" d="M2899.72,511.07h-7.55c-0.55,0-1-0.45-1-1v-39.5c0-0.55,0.45-1,1-1h7.55c0.55,0,1,0.45,1,1v39.5
			C2900.72,510.62,2900.27,511.07,2899.72,511.07z"/>
	</g>
	<g>
		<path class="st11" d="M2918.14,511.07h-7.55c-0.55,0-1-0.45-1-1V460c0-0.55,0.45-1,1-1h7.55c0.55,0,1,0.45,1,1v50.07
			C2919.14,510.62,2918.69,511.07,2918.14,511.07z"/>
	</g>
	<polyline class="st41" points="2837.22,502.34 2858.6,483.75 2876.21,499.01 2921.47,457.37 	"/>
</g>
<g>
	<path class="st14" d="M2993.7,219.02c0,0.66-0.05,1.32-0.14,1.97c-1.52,10.52-15,18.74-31.43,18.74c-3.6,0-7.06-0.4-10.28-1.13
		l-11.43,7.92c-2.09,1.45-4.87-0.51-4.2-2.96l2.83-10.41c-5.27-3.69-8.49-8.66-8.49-14.12c0-11.43,14.13-20.71,31.57-20.71
		c4.21,0,8.23,0.55,11.91,1.53C2985.57,202.92,2993.7,210.35,2993.7,219.02z"/>
	<path class="st42" d="M2993.7,219.02c0,0.66-0.05,1.32-0.14,1.97c-11.53-3.07-19.66-10.5-19.66-19.18c0-0.66,0.05-1.32,0.14-1.97
		C2985.57,202.92,2993.7,210.35,2993.7,219.02z"/>
	<text transform="matrix(1 0 0 1 2954.3284 233.3916)" class="st35 st43 st44">!</text>
	<path class="st45" d="M2977.68,200.09c0,11.44,14.13,20.71,31.57,20.71c3.6,0,7.06-0.4,10.27-1.13l11.43,7.93
		c2.1,1.45,4.87-0.51,4.2-2.97l-2.83-10.4c5.27-3.7,8.5-8.66,8.5-14.13c0-11.43-14.14-20.71-31.57-20.71
		C2991.81,179.39,2977.68,188.66,2977.68,200.09z"/>
	<circle class="st35" cx="2992.19" cy="199.94" r="3.79"/>
	<circle class="st35" cx="3009.25" cy="199.94" r="3.79"/>
	<circle class="st35" cx="3026.16" cy="199.94" r="3.79"/>
</g>
<g>
	<polygon class="st19" points="3302.41,400.1 3304.16,390.47 3290.86,394.45 3289.03,404.09 	"/>
	<polygon class="st19" points="3303.71,404.45 3310.46,411.54 3297.16,415.51 3290.34,408.45 	"/>
	<polygon class="st46" points="3291.56,409.72 3304.89,405.69 3303.71,404.45 3290.34,408.45 	"/>
	<polygon class="st46" points="3302.65,398.78 3289.3,402.71 3289.03,404.09 3302.41,400.1 	"/>
	<g>
		<circle class="st11" cx="3230.1" cy="423.62" r="47.14"/>
	</g>
	<g>
		<circle class="st47" cx="3230.1" cy="423.62" r="40.5"/>
	</g>
	<g>
		<circle class="st11" cx="3230.1" cy="423.62" r="23.73"/>
	</g>
	<circle class="st35" cx="3230.1" cy="423.62" r="18.93"/>
	<g>
		<circle class="st11" cx="3230.1" cy="423.62" r="7.69"/>
	</g>
	<g>
		<circle class="st10" cx="3230.1" cy="423.62" r="4.07"/>
	</g>
	<polyline class="st48" points="3229.86,426.59 3264.07,456.31 3267.05,452.9 3232.13,422.4 	"/>
	<path class="st45" d="M3229.14,421.58c-0.05,0.03-1.67,1.33-1.25,2.72c0.42,1.39,1.97,2.29,1.97,2.29l74.83-21.84
		c0,0,2.17-1,1.6-3.15c-0.52-1.99-3.15-1.84-3.15-1.84L3229.14,421.58z"/>
	<path class="st49" d="M3303.59,400.35c0.07-0.12,1.71,0.13,2.11,1.28c0.38,1.1-0.62,2.27-0.77,2.21c-0.13-0.05,0.46-1.05,0.04-2.08
		C3304.58,400.77,3303.54,400.44,3303.59,400.35z"/>
</g>
<g id="manager">
	<path class="st50" d="M3563.39,537.45c-6.01-4.13-20.55-0.34-26.55,2.19c-6.01,2.53-12.25,7.85-6.4,7.85
		c5.6,0,10.04-3.11,14.54-2.95c2.9,0.1,7.27,2.95,9.8,2.95s16.39,0,16.39,0"/>
	<path class="st50" d="M3544.44,844.18c-2.25,1.09-5.67,2.57-8.95,3.17c-5.53,1.02-18.02,1.2-21.62,0
		c-2.08-0.69-4.25-1.87-5.71-2.75c5.81-1.1,10.31-1.94,10.31-1.94l3.04-10.35l23.48,1.76
		C3544.18,837.1,3543.77,841.06,3544.44,844.18z"/>
	<path class="st51" d="M3493.86,847.36v13.96c-7.03-0.4-11.91-0.75-11.91-0.75s-3.59-9.64,1.78-11.05
		C3485.36,849.09,3489.25,848.28,3493.86,847.36z"/>
	<path class="st52" d="M3543.91,860.68c-4.42,2.74-33.33,1.56-50.05,0.64v-13.96c4.55-0.89,9.82-1.9,14.3-2.76
		c1.46,0.87,3.63,2.05,5.71,2.75c3.59,1.2,16.08,1.02,21.62,0c3.28-0.6,6.69-2.07,8.95-3.17c0.22,1.05,0.55,1.99,1.04,2.78
		C3548.06,851.19,3547.14,858.69,3543.91,860.68z"/>
	<path class="st50" d="M3688.83,811.91c-1.01,2.29-2.65,5.63-4.76,8.21c-3.55,4.36-10.83,16.18-14.34,17.6
		c-2.03,0.82-4.03-0.66-5.72-0.38c1.97-6.16,4.06-9.74,4.06-9.74l-4.4-9.85l19.01-13.89
		C3684.04,806.69,3686.3,809.97,3688.83,811.91z"/>
	<path class="st51" d="M3699.12,824.81c-0.39,1.21-2.05,3.94-4.61,7.39l-1.47-18.12C3697.03,816.33,3700.16,821.63,3699.12,824.81z"
		/>
	<path class="st52" d="M3694.51,832.2L3694.51,832.2c-7.41,10.01-22.2,26.09-34.63,28.92c-8.54,1.95-12.82,1.06-12.82,1.06
		s-4.88-12.25,5.31-13c5.39-0.39,8.79-3.14,12.08-13.11c1.68-0.29,5.55-2.09,7.28-3.77c2.72-2.63,8.78-7.8,12.34-12.17
		c2.1-2.58,3.75-5.91,4.75-8.2c0.85,0.65,1.71,1.15,2.59,1.44c0.55,0.18,1.09,0.43,1.63,0.72L3694.51,832.2z"/>
	<path class="st52" d="M3677.83,497.09l0.58,79.03c0,0-4.8-9.57-5.85-18.55c-1.05-8.97,0.5-51.73,1.76-55.64
		C3675.59,498.03,3677.83,497.09,3677.83,497.09z"/>
	<path class="st53" d="M3753.25,612.53c-31.59,6.28-148.75-5.68-171.86,31.3c-23.39,37.42,82.29,175.77,82.29,175.77l20.94-17.33
		l-37.27-115.98l113.43,0L3753.25,612.53z"/>
	<path class="st54" d="M3684.62,802.26l-20.94,17.33c0,0-28.05-36.73-52.05-77.46h53.67L3684.62,802.26z"/>
	<line class="st55" x1="3673.8" y1="807.99" x2="3606.57" y2="673.53"/>
	<path class="st56" d="M3706.65,614.85c-8.13-1.05-17.09-3.43-28.82-3.74c-29.86-0.78-69.97,2.69-103.23,7.93
		c-15.77,2.48-24.52,10.13-29.61,24.5c-19.86,56.03-26.61,188.54-26.61,188.54l29.83,2.23l42.91-158.84c0,0,35.64,6.33,53.34,6.33
		c17.7,0,66.37,4.49,66.37,4.49L3706.65,614.85z"/>
	<path class="st54" d="M3702.08,614.16c-6.12,2.49-15.25,5.52-26.6,6.58c-11.19,1.05-16.48-0.56-29.4-1.74
		c-23.07-2.11-40.5-0.11-51.53,1.21c-20.81,2.5-29.26,6.21-35.57,10.17c-6.07,3.8-10.41,8-13.22,11.09
		c5.19-13.03,13.84-20.07,28.83-22.43c33.25-5.24,73.37-8.72,103.23-7.94C3687.41,611.36,3695.14,613,3702.08,614.16z"/>
	<path class="st27" d="M3545.77,641.47c3.72-2.73,8.11-5.62,13.17-8.4c14.02-7.71,25.89-10.58,35.62-12.85
		c3.8-0.89,37.98-8.63,68.7-3.37c2.19,0.37,5.6,1.03,10.54,1.26c11.43,0.55,21.14-1.6,28.28-3.95"/>
	<path class="st54" d="M3710.83,686.28c0,0-48.66-4.49-66.36-4.49s-53.34-6.33-53.34-6.33l-42.9,158.84l-4.49-0.33
		c-0.22-3.26-0.43-6.91-0.61-10.91c0,0-0.31-6.82-0.41-12.96c-0.7-40.38,16.23-97.79,16.23-97.79
		c11.1-37.64,16.98-42.51,21.92-44.89c12.88-6.21,33.94-2.56,38.36-1.79c6.82,1.18,12.55,3.04,23.18,3.48
		c6.48,0.27,11.79,0.49,17.91-0.84c19.67-4.28,30.41-20.8,30.98-21.71c9.06-14.4,7.55-28.95,6.97-33.06
		c2.94,0.51,5.7,1.01,8.39,1.36L3710.83,686.28z"/>
	<path class="st27" d="M3543.73,833.97c-0.44-6.52-0.86-14.61-1.03-23.87c-0.8-44.18-2.29-127.05,32.56-142.26
		c9.29-4.05,21.68-2.91,46.48-0.63c18.87,1.73,21.83,4.43,33.19,3.16c6.91-0.77,32.82-3.68,42.68-24.02
		c6.07-12.55,3.14-25.68,0.65-32.85"/>
	<g class="st57">
		<g>
			<path class="st58" d="M3529.03,826.62c0-0.33,0.01-0.66,0.01-1"/>
			<path class="st59" d="M3529.1,821.65c0.46-23.37,2.62-55.04,9.81-91.85c8.96-45.89,13.43-68.84,29.08-79.03
				c35.49-23.12,89.15,24.21,117.28,0.32c10.24-8.69,12.68-23.07,12.95-34.6"/>
			<path class="st58" d="M3698.26,614.49c0-0.34,0-0.67,0-1"/>
		</g>
	</g>
	<path class="st35" d="M3687.3,455.02c-26.1,21.82-47.83,76.04-52.92,80.67c-5.09,4.64-70.99,1.76-70.99,1.76l-0.08,10.13
		c0,0,38.32,10.93,77.73,10.77c17.47-0.07,48.19-48.82,48.19-48.82"/>
	<path class="st50" d="M3759.89,448.49c0,0-12.22-23.35-9.69-30.88c2.53-7.53-8.31-21.1-14.33-20.74
		c-6.02,0.36-17.91,23.17-17.91,23.17l-1.52,34.99"/>
	<path class="st35" d="M3795.85,525.57c0,0,1.03-58.83-6.07-69.81c-10.67-16.49-29.89-10.8-29.89-10.8s-14.12-0.77-19.6-0.74
		c-7.61,0.04-33.12,2.77-33.12,2.77s-24.61,0.37-28.91,25.42c-3.72,21.69-1.5,47.84-0.43,75.79c1.33,35.02,0,62.91,0,62.91
		c6.74,6.45,84.8,14.33,84.8,14.33L3795.85,525.57z"/>
	<path class="st60" d="M3708.12,526.04c-0.77,0.37-1.9,0.98-3.09,1.98c-5.77,4.86-6.13,13.18-6.24,17.16
		c-0.63,21.86,0,38.57,0,38.57c0.61,16.26,0.58,33.34,0.58,33.34l0,0l7.3,1.43L3708.12,526.04z"/>
	<g id="sandelye">
		<g>
			<path class="st61" d="M3704.8,710.52h96.91c7.9,0,14.37-6.46,14.37-14.37l0,0c0-7.9-6.46-14.37-14.37-14.37h-96.91
				c-7.9,0-14.37,6.46-14.37,14.37l0,0C3690.43,704.06,3696.9,710.52,3704.8,710.52z"/>
		</g>
		<g>
			<path class="st10" d="M3595.75,710.52h108.47c7.9,0,14.37-6.46,14.37-14.37l0,0c0-7.9-6.46-14.37-14.37-14.37h-108.47
				c-7.9,0-14.37,6.46-14.37,14.37l0,0C3581.39,704.06,3587.85,710.52,3595.75,710.52z"/>
		</g>
		<g>
			<path class="st11" d="M3703.35,533.65V678.2c0,4.46,4.38,8.08,9.78,8.08h105.48c4.77,0,8.64-3.62,8.64-8.08V533.65
				c0-4.46-3.87-8.08-8.64-8.08h-105.48c-2.7,0-5.15,0.91-6.91,2.37C3704.45,529.39,3703.35,531.42,3703.35,533.65z"/>
		</g>
		<g>
			<path class="st10" d="M3710.83,686.28L3710.83,686.28c4.46,0,8.08-3.62,8.08-8.08V533.65c0-4.46-3.62-8.08-8.08-8.08l0,0
				c-4.46,0-8.08,3.62-8.08,8.08V678.2C3702.75,682.67,3706.37,686.28,3710.83,686.28z"/>
		</g>
		<path class="st12" d="M3704.31,861.33L3704.31,861.33c-1.9,0.21-3.62-1.18-3.82-3.07l-15.61-143.47c-0.21-1.9,1.18-3.62,3.07-3.82
			l0,0c1.9-0.21,3.62,1.18,3.82,3.07l15.61,143.47C3707.59,859.41,3706.21,861.13,3704.31,861.33z"/>
		<path class="st12" d="M3595.18,861.33L3595.18,861.33c1.9,0.21,3.62-1.18,3.82-3.07l15.61-143.47c0.21-1.9-1.18-3.62-3.07-3.82
			l0,0c-1.9-0.21-3.62,1.18-3.82,3.07l-15.61,143.47C3591.9,859.41,3593.28,861.13,3595.18,861.33z"/>
		<path class="st13" d="M3797.07,861.33L3797.07,861.33c-1.9,0.21-3.62-1.18-3.82-3.07l-15.61-143.47c-0.21-1.9,1.18-3.62,3.07-3.82
			l0,0c1.9-0.21,3.62,1.18,3.82,3.07l15.61,143.47C3800.35,859.41,3798.97,861.13,3797.07,861.33z"/>
		<path class="st12" d="M3780.94,717.9h-169.77c-1.9,0-3.46-1.56-3.46-3.46v-0.45c0-1.9,1.56-3.46,3.46-3.46h169.77
			c1.9,0,3.46,1.56,3.46,3.46v0.45C3784.4,716.34,3782.85,717.9,3780.94,717.9z"/>
	</g>
	<path class="st50" d="M3689.93,361.61c-9.7,8.28-10.06,20.97-10.24,27.52c-0.09,3.26-0.39,29.35,20.35,42.72
		c2.61,1.68,9.47,4.93,18.52-0.01c15.55-8.49,12.22-34.53,12.53-39.29c1.4-21.42,8.93-31.33-11.23-36.27
		C3717.4,355.67,3701.47,351.76,3689.93,361.61z"/>
	<path class="st50" d="M3680.84,401.73c1,4.6-4.11,12.74-2.11,14.86c2,2.12,8.13,1.41,8.13,1.41"/>
	<path class="st33" d="M3690.61,425.59c0,0,6.33-1.1,8.69-4.16c2.35-3.06-3.79,8.82-3.79,8.82"/>
	<path class="st62" d="M3738.67,411.8c1.33,9.12,2.81,17.39,5.77,26.32c1.13,3.42,2.45,6.84,2.45,6.84l8.49-5.77l-3.71-10
		c0,0-1.61-4.7-1.72-7.47c-0.11-2.77,0.77-9.91,0.77-9.91H3738.67z"/>
	<path class="st63" d="M3711.91,382.08c2.67-5.66,6.21-6.47,9.52-5.41c2.88,0.92,4.6,4.12,4.71,6.82c0.17,4.21-3.66,5.07-4.24,8.94
		c-0.73,4.91,4.54,9.36,14.82,17.83c9.06,7.46,13.48,7.35,13.48,7.35s9.59-10.72,11.7-16c2.28-5.69,9.89-24.73-0.11-42.33
		c-1.67-2.94-6.9-12.13-17.7-16.12c-3.79-1.4-7.18-1.76-9.52-1.83c-7.08-5.08-13.3-5.92-16.41-6.07
		c-10.45-0.5-23.44,4.97-29.4,14.86c-3.2,5.31-4.79,12.59-11.62,15.6c-0.96,0.43-11.09,5.32-11.09,5.32s5.12,4.13,8.96,6.23
		C3690.8,385.9,3708.66,388.96,3711.91,382.08z"/>
	
		<ellipse transform="matrix(0.9714 -0.2373 0.2373 0.9714 10.6938 885.9931)" class="st32" cx="3685.76" cy="398.57" rx="1.05" ry="2.9"/>
	<path class="st64" d="M3680.87,390.59c1.03-0.33,2.35-0.62,3.9-0.68c3.45-0.14,6.15,0.96,7.59,1.69"/>
	<path class="st62" d="M3717.18,432.54c3.93-3.35,6.36-12.28,6.36-12.28s0.29,9.15-2.03,13.16c-2.32,4-4.33,4.7-4.33,4.7V432.54z"/>
	<path class="st65" d="M3761.99,444.96c-2.01,1.55-6.95,4.3-12.65,5.79c-5.69,1.49-14.76,2.14-21.92,1.48
		c-10.09-0.93-19.1-4.97-19.1-4.97L3761.99,444.96z"/>
	<path class="st35" d="M3756.1,435.82l5.89,9.14c0,0-10.26,5.82-21.71,6.74c-10.43,0.84-33.11-4.71-33.11-4.71l8.35-7.14
		c0,0,20.36,1.58,29.81-1.21C3749.27,437.48,3756.1,435.82,3756.1,435.82z"/>
	
		<ellipse transform="matrix(0.866 -0.5 0.5 0.866 292.9441 1903.4417)" class="st66" cx="3698.34" cy="405.08" rx="8.73" ry="5.09"/>
	<path class="st60" d="M3672.42,532.99l16.81-23.47c0,0-16.9,42.77-16.99,41.14C3672.15,549.03,3672.42,532.99,3672.42,532.99z"/>
</g>
<g id="ayak_x5F_on">
	<rect x="3470.63" y="591.54" class="st29" width="15.48" height="285.22"/>
	<rect x="3486.11" y="591.54" class="st0" width="4.94" height="285.22"/>
	<rect x="3470.63" y="591.54" class="st2" width="20.42" height="15.25"/>
	<rect x="2938.15" y="591.54" class="st29" width="15.48" height="285.22"/>
	<rect x="2953.63" y="591.54" class="st0" width="4.94" height="285.22"/>
	<rect x="2938.15" y="591.54" class="st2" width="20.42" height="15.25"/>
</g>
<g>
	<path class="st29" d="M2876.35,319.56v20.08c-2.87,0.45-5.87,0.75-8.97,0.9c-1.75,0.1-3.54,0.15-5.35,0.15
		c-2.01,0-4-0.05-5.93-0.17c-2.89-0.17-5.7-0.46-8.39-0.86v-20.1c0-1.59,0.26-3.11,0.75-4.54c0.06-0.18,0.12-0.36,0.19-0.54
		c2.05-5.38,7.29-9.23,13.38-9.23c3.94,0,7.51,1.61,10.12,4.2c1.31,1.33,2.38,2.9,3.09,4.65c0.1,0.22,0.18,0.44,0.26,0.66h0.02
		C2876.05,316.26,2876.35,317.88,2876.35,319.56z"/>
	<circle class="st29" cx="2862.02" cy="295.27" r="9.26"/>
	<path class="st67" d="M2857.43,327.67v12.85c-2.89-0.17-5.7-0.46-8.39-0.86c-0.45-0.07-0.89-0.14-1.33-0.21v-19.89
		c0-1.59,0.26-3.11,0.75-4.54c0.06-0.18,0.12-0.36,0.19-0.54c0.39,0.16,0.77,0.34,1.14,0.54c1.28,0.67,2.42,1.53,3.44,2.53
		C2855.81,320.15,2857.43,323.73,2857.43,327.67z"/>
	<path class="st67" d="M2876.35,319.56v19.77c-0.63,0.11-1.27,0.21-1.91,0.31c-2.87,0.45-5.87,0.75-8.98,0.9v-12.87
		c0-5.67,3.33-10.58,8.13-12.91h0.01c0.53-0.25,1.08-0.48,1.64-0.66c0.1,0.22,0.18,0.44,0.26,0.66h0.02
		C2876.05,316.26,2876.35,317.88,2876.35,319.56z"/>
	<path class="st28" d="M2896.01,327.67v6.03c-5.06,2.7-11.85,4.79-19.66,5.95c-2.87,0.44-5.87,0.74-8.98,0.9v-12.88
		c0-5.66,3.33-10.58,8.13-12.9h0.01c1.88-0.9,3.98-1.41,6.18-1.41c3.94,0,7.52,1.6,10.11,4.2
		C2894.41,320.15,2896.01,323.73,2896.01,327.67z"/>
	<circle class="st28" cx="2881.69" cy="303.36" r="9.26"/>
	<path class="st28" d="M2856.1,327.67v12.85c-2.9-0.17-5.7-0.46-8.39-0.86c-8.1-1.21-15.12-3.42-20.25-6.28v-5.71
		c0-7.88,6.45-14.31,14.31-14.31c2.41,0,4.68,0.6,6.68,1.67c1.28,0.67,2.43,1.53,3.44,2.53
		C2854.48,320.15,2856.1,323.73,2856.1,327.67z"/>
	<circle class="st28" cx="2841.78" cy="303.36" r="9.26"/>
	<path class="st27" d="M2896.01,327.67v6.03c-5.06,2.7-11.85,4.79-19.66,5.95c-2.87,0.44-5.87,0.74-8.98,0.9
		c-1.75,0.09-3.54,0.14-5.35,0.14c-2.01,0-3.99-0.05-5.92-0.17c-2.9-0.17-5.7-0.46-8.39-0.86c-8.1-1.21-15.12-3.42-20.25-6.28v-5.71
		c0-7.88,6.45-14.31,14.31-14.31c2.41,0,4.68,0.6,6.68,1.67c1.91-5.66,7.28-9.77,13.57-9.77c3.94,0,7.52,1.6,10.12,4.2
		c1.47,1.49,2.64,3.29,3.35,5.31h0.01c1.88-0.9,3.98-1.41,6.18-1.41c3.94,0,7.52,1.6,10.11,4.2
		C2894.41,320.15,2896.01,323.73,2896.01,327.67z"/>
</g>
</svg>
