<?xml version="1.0" encoding="utf-8"?>
<!-- Generator: Adobe Illustrator 15.0.0, SVG Export Plug-In . SVG Version: 6.00 Build 0)  -->
<!DOCTYPE svg PUBLIC "-//W3C//DTD SVG 1.1//EN" "http://www.w3.org/Graphics/SVG/1.1/DTD/svg11.dtd">
<svg version="1.1" id="Ebene_1" xmlns="http://www.w3.org/2000/svg" xmlns:xlink="http://www.w3.org/1999/xlink" x="0px" y="0px"
	 width="1100px" height="450px" viewBox="0 0 1100 450" enable-background="new 0 0 1100 450" xml:space="preserve">
<rect fill="#C9E099" width="1100" height="450"/>
<g>
	<path fill="#BDBD9F" d="M123,308.479V288H97.699c-1.592,0-2.699,0.643-2.699,2.221v19.118C95,310.917,123,308.479,123,308.479z"/>
	<g>
		<polygon fill="#7FBF00" points="173.871,256 132,256 132,326 187,326 187,269.975 		"/>
		<path fill="#F4F3E6" d="M188,327h-57v-72h43.303L188,269.578V327z M133,325h53v-54.63L173.438,257H133V325z"/>
	</g>
	<polygon fill="#F4F3E6" points="129,322 127,322 127,251 170,251 170,253 129,253 	"/>
	<polygon fill="#F4F3E6" points="125,316 123,316 123,247 167,247 167,249 125,249 	"/>
	<g>
		<path opacity="0.3" fill="#3A7700" d="M144.66,274.66c0.843-0.141,1.947-0.26,3.351-0.26c1.727,0,2.989,0.398,3.791,1.113
			c0.743,0.636,1.186,1.611,1.186,2.803c0,1.213-0.362,2.167-1.045,2.863c-0.921,0.975-2.428,1.473-4.131,1.473
			c-0.522,0-1.005-0.022-1.404-0.121v5.369h-1.747V274.66z M146.407,281.12c0.38,0.099,0.862,0.14,1.444,0.14
			c2.107,0,3.39-1.015,3.39-2.863c0-1.769-1.264-2.625-3.19-2.625c-0.762,0-1.343,0.061-1.644,0.139V281.12z"/>
		<path opacity="0.3" fill="#3A7700" d="M155.84,274.679c1.064-0.159,2.328-0.278,3.711-0.278c2.508,0,4.294,0.576,5.477,1.671
			c1.205,1.093,1.907,2.643,1.907,4.812c0,2.186-0.683,3.975-1.946,5.207c-1.265,1.253-3.351,1.93-5.979,1.93
			c-1.245,0-2.287-0.06-3.171-0.16V274.679z M157.586,286.527c0.441,0.08,1.082,0.1,1.765,0.1c3.732,0,5.758-2.066,5.758-5.686
			c0.021-3.16-1.786-5.17-5.476-5.17c-0.904,0-1.587,0.08-2.047,0.18V286.527z"/>
		<path opacity="0.3" fill="#3A7700" d="M169.71,274.498h7.281v1.453h-5.536v4.454h5.116v1.431h-5.116v6.064h-1.746V274.498z"/>
	</g>
	<path fill="#F4F3E6" d="M144.424,274.979c0.843-0.14,1.947-0.259,3.351-0.259c1.726,0,2.988,0.397,3.791,1.113
		c0.743,0.635,1.186,1.611,1.186,2.803c0,1.213-0.362,2.166-1.045,2.863c-0.921,0.975-2.428,1.472-4.131,1.472
		c-0.522,0-1.005-0.022-1.404-0.12v5.368h-1.747V274.979z M146.171,281.439c0.38,0.099,0.862,0.14,1.444,0.14
		c2.107,0,3.39-1.015,3.39-2.862c0-1.77-1.264-2.625-3.189-2.625c-0.763,0-1.344,0.061-1.645,0.139V281.439z"/>
	<path fill="#F4F3E6" d="M155.604,274.998c1.064-0.158,2.328-0.277,3.711-0.277c2.508,0,4.294,0.576,5.477,1.67
		c1.205,1.094,1.907,2.643,1.907,4.812c0,2.187-0.683,3.976-1.946,5.208c-1.265,1.252-3.351,1.929-5.979,1.929
		c-1.245,0-2.287-0.06-3.171-0.159V274.998z M157.351,286.848c0.441,0.08,1.082,0.1,1.765,0.1c3.732,0,5.758-2.066,5.758-5.686
		c0.021-3.161-1.786-5.17-5.476-5.17c-0.904,0-1.587,0.08-2.047,0.18V286.848z"/>
	<path fill="#F4F3E6" d="M169.475,274.818h7.281v1.453h-5.536v4.453h5.116v1.431h-5.116v6.064h-1.746V274.818z"/>
	<polygon fill="#F4F3E6" points="183.771,270 174,270 174,260.327 	"/>
	<polygon fill="#F4F3E6" points="183.771,270 174,270 174,260.327 	"/>
	<polygon fill="#F4F3E6" points="183.771,270 174,270 174,260.327 	"/>
	<rect x="95" y="296" opacity="0.2" fill="#3A7700" width="93" height="6"/>
	<path fill="#F4F3E6" d="M192.262,299h-76.847l-2.248-6H89l-1.333,6h-3.066c-2.281,0-3.413,1.385-3.026,3l12.105,45.98
		c0.646,1.723,1.455,3.02,3.987,3.02h81.528c2.533,0,3.342-1.26,3.988-2.981l12.105-46.103C195.674,300.302,194.543,299,192.262,299
		z"/>
	<g>
		<path fill="#6AA200" d="M124.115,333.914c0,11.303-9.161,20.468-20.468,20.468s-20.465-9.165-20.465-20.468
			c0-11.306,9.159-20.469,20.465-20.469S124.115,322.608,124.115,333.914z"/>
		<path fill="#FFFFFF" d="M106.624,340.589c2.412-1.562,5.177-4.895,5.177-8.769c0-5.371-3.422-9.724-7.634-9.724
			c-4.22,0-7.633,4.353-7.633,9.724c0,3.809,2.594,7.102,4.988,8.693c0.066,1.07,0.026,2.129-0.139,3.307h5.477
			C106.675,342.664,106.583,341.627,106.624,340.589z"/>
		<path fill="#E5DCAF" d="M112.186,327.162c0.556,1.604,0.831,3.297,0.936,4.98l-0.072,0.648c-0.144,0.016-3.065-1.168-4.178-1.465
			c-1.618-0.959-2.945-2.454-3.945-2.454c-0.707,0-1.411,0.458-1.85,0.907c-2.182,2.258-6.217,3.548-6.969,3.548
			c-0.092,0-0.185,0.008-0.279,0.008c-0.999,0-0.73-1.284-0.974-2.22c-0.096-0.623-0.12-1.221-0.12-1.559
			c0-5.285,2.701-9.342,8.957-9.342c3.292,0,5.58,1.783,7.116,3.839c0.071,0.121,0.147,0.241,0.221,0.357
			C111.626,325.223,111.888,326.227,112.186,327.162z"/>
		<path fill="#42566B" d="M91.182,350.121c3.455,2.66,7.768,4.261,12.465,4.261c5.047,0,9.658-1.836,13.226-4.861
			c-2.037-3.84-6.951-6.55-12.7-6.55C98.116,342.971,93.005,345.971,91.182,350.121z"/>
	</g>
</g>
<path fill="#BDBD9F" d="M200,179.479V159h-25.301c-1.592,0-2.699,0.643-2.699,2.221v19.118C172,181.917,200,179.479,200,179.479z"/>
<g>
	<polygon fill="#7FBF00" points="250.871,127 209,127 209,197 264,197 264,140.974 	"/>
	<path fill="#F4F3E6" d="M265,198h-57v-72h43.303L265,140.578V198z M210,196h53v-54.63L250.438,128H210V196z"/>
</g>
<polygon fill="#F4F3E6" points="206,193 204,193 204,122 247,122 247,124 206,124 "/>
<polygon fill="#F4F3E6" points="202,187 200,187 200,118 244,118 244,120 202,120 "/>
<g>
	<path opacity="0.3" fill="#3A7700" d="M221.66,145.66c0.843-0.14,1.947-0.259,3.351-0.259c1.727,0,2.989,0.398,3.791,1.114
		c0.743,0.635,1.186,1.611,1.186,2.802c0,1.213-0.362,2.167-1.045,2.864c-0.921,0.975-2.428,1.472-4.131,1.472
		c-0.522,0-1.005-0.022-1.404-0.12v5.368h-1.747V145.66z M223.407,152.12c0.38,0.098,0.862,0.139,1.444,0.139
		c2.107,0,3.39-1.014,3.39-2.862c0-1.769-1.264-2.625-3.19-2.625c-0.762,0-1.343,0.061-1.644,0.139V152.12z"/>
	<path opacity="0.3" fill="#3A7700" d="M232.84,145.679c1.064-0.159,2.328-0.278,3.711-0.278c2.508,0,4.294,0.576,5.477,1.671
		c1.205,1.093,1.907,2.643,1.907,4.811c0,2.187-0.683,3.976-1.946,5.208c-1.265,1.253-3.351,1.929-5.979,1.929
		c-1.245,0-2.287-0.059-3.171-0.16V145.679z M234.586,157.528c0.441,0.08,1.082,0.1,1.765,0.1c3.732,0,5.758-2.067,5.758-5.686
		c0.021-3.161-1.786-5.17-5.476-5.17c-0.904,0-1.587,0.08-2.047,0.18V157.528z"/>
	<path opacity="0.3" fill="#3A7700" d="M246.71,145.499h7.281v1.453h-5.536v4.454h5.116v1.43h-5.116v6.064h-1.746V145.499z"/>
</g>
<path fill="#F4F3E6" d="M221.424,145.979c0.843-0.14,1.947-0.259,3.351-0.259c1.726,0,2.988,0.398,3.791,1.114
	c0.743,0.635,1.186,1.611,1.186,2.802c0,1.213-0.362,2.167-1.045,2.864c-0.921,0.975-2.428,1.472-4.131,1.472
	c-0.522,0-1.005-0.022-1.404-0.12v5.368h-1.747V145.979z M223.171,152.44c0.38,0.098,0.862,0.139,1.444,0.139
	c2.107,0,3.39-1.014,3.39-2.862c0-1.769-1.264-2.625-3.189-2.625c-0.763,0-1.344,0.061-1.645,0.139V152.44z"/>
<path fill="#F4F3E6" d="M232.604,145.999c1.064-0.159,2.328-0.278,3.711-0.278c2.508,0,4.294,0.576,5.477,1.671
	c1.205,1.093,1.907,2.643,1.907,4.811c0,2.187-0.683,3.976-1.946,5.208c-1.265,1.253-3.351,1.929-5.979,1.929
	c-1.245,0-2.287-0.059-3.171-0.16V145.999z M234.351,157.848c0.441,0.08,1.082,0.1,1.765,0.1c3.732,0,5.758-2.067,5.758-5.686
	c0.021-3.161-1.786-5.17-5.476-5.17c-0.904,0-1.587,0.08-2.047,0.18V157.848z"/>
<path fill="#F4F3E6" d="M246.475,145.818h7.281v1.453h-5.536v4.454h5.116v1.43h-5.116v6.064h-1.746V145.818z"/>
<polygon fill="#F4F3E6" points="260.771,141 251,141 251,131.327 "/>
<polygon fill="#F4F3E6" points="260.771,141 251,141 251,131.327 "/>
<polygon fill="#F4F3E6" points="260.771,141 251,141 251,131.327 "/>
<rect x="172" y="167" opacity="0.2" fill="#3A7700" width="93" height="6"/>
<path fill="#F4F3E6" d="M269.262,170h-76.847l-2.248-6H166l-1.333,6h-3.066c-2.281,0-3.413,1.385-3.026,3l12.105,45.981
	c0.646,1.722,1.455,3.02,3.987,3.02h81.528c2.533,0,3.342-1.26,3.988-2.981l12.105-46.103C272.674,171.302,271.543,170,269.262,170z
	"/>
<g>
	<path fill="#6AA200" d="M201.542,205.383c0,11.362-9.214,20.573-20.576,20.573c-11.37,0-20.577-9.211-20.577-20.573
		c0-11.366,9.207-20.578,20.577-20.578C192.329,184.805,201.542,194.017,201.542,205.383z"/>
	<path fill="#224959" d="M181.929,211.854c-0.114,0.028-0.167,0.45-0.286,0.45c-1.014,0-2.764,0.953-4.04,0.454
		c-0.35-0.137-0.676,0.112-0.966,0.164c-0.355,0.062-0.615-0.561-0.825-0.523c-0.206,0.04-0.361,0.74-0.361,0.74
		c-2.563,0-3.021-1.255-3.021-2.416c0-0.854,0.367-1.38,0.367-2.061c0-0.607-0.212-1.212-0.284-1.824
		c-0.234-1.938,0.105-4.108,0.105-6.008c0-4.835,3.78-8.754,8.442-8.754c4.665,0,8.44,3.918,8.44,8.754
		c0,0.896,0.095,1.855,0.184,2.819c0.16,1.833,0.319,3.661,0.319,5.499c0,3.268-0.013,3.888-1.801,3.888
		c-0.197,0-0.362-0.522-0.571-0.547c-0.091-0.012-0.226,0.479-0.32,0.462c-0.364-0.062-0.792-0.032-1.117-0.254
		c-0.277-0.187-0.929-1.097-1.059-0.753c-0.077,0.19-1.934,0.22-2.589,0.22C182.161,212.163,182.326,211.754,181.929,211.854z"/>
	<path fill="#FFFFFF" d="M190,200.878v-0.629c0-0.16-0.704-0.249-0.864-0.249h-0.239c-0.5-4-3.573-7.883-7.837-7.883
		c-4.265,0-7.291,3.883-7.774,7.883h-0.066c-0.161,0-0.22,0.089-0.22,0.249v0.629c0,0.101,0.06,0.176,0.137,0.227
		c-0.077,0.052-0.137,0.127-0.137,0.227v0.29c0,0.234,0.1,0.431,0.288,0.54c0.352,3.97,2.786,7.82,6.367,8.607
		c0.263,1.388-0.317,3.232-1.271,4.232h-0.766c-0.002,0-0.014-0.087-0.014-0.051c0,1.507,1.54,2.647,3.442,2.647
		c1.898,0,3.44-1.1,3.44-2.606c0-0.038-0.014,0.01-0.014,0.01h-0.986c-0.297-1-0.981-2.461-0.848-4.262
		c3.487-0.852,6.189-4.542,6.565-8.43c0.285-0.058,0.795-0.38,0.795-0.687v-0.29c0-0.1-0.062-0.175-0.139-0.227
		C189.938,201.055,190,200.979,190,200.878z"/>
	<path fill="#42566B" d="M187.117,214.676h-2.643c0,0.037,0.014,0.075,0.014,0.111c0,1.507-1.542,2.729-3.44,2.729
		c-1.903,0-3.442-1.221-3.442-2.729c0-0.037,0.012-0.074,0.014-0.111h-2.308c-3.172,0-5.742,2.573-5.742,5.742v2.091
		c3.263,2.174,7.18,3.447,11.398,3.447c4.436,0,8.534-1.418,11.896-3.807v-1.731C192.862,217.249,190.289,214.676,187.117,214.676z"
		/>
	<path fill="#224959" d="M172.764,199.239h4.393l0.021-1.178l1.319,1.178h2.243l0.511-0.692h0.148l-0.03,0.692l4.47-0.708
		l1.017,0.708l0.38-0.663l0.149,0.663h1.972c-0.726-4.075-4.161-7.164-8.297-7.164C176.924,192.076,173.488,195.164,172.764,199.239
		z"/>
</g>
<g>
	<g id="XMLID_11_" opacity="0.5">
		<path id="XMLID_15_" fill="#F4F3E6" d="M594.512,161.226l-16.612-11.188c0.773-4.159,0.979-8.348,0.688-12.48l17.8-9.24
			c1.406-0.497,2.148-2.034,1.665-3.447l-4.979-14.248c-0.488-1.412-2.032-2.157-3.442-1.662l-19.694,3.842l0.033,0.102
			c-2.375-3.463-5.193-6.653-8.441-9.457l0.1,0.048l6.064-19.137c0.648-1.343,0.083-2.962-1.26-3.61l-13.595-6.562
			c-1.347-0.65-2.961-0.083-3.609,1.26l-11.218,16.65l0.107,0.051c-4.704-0.891-9.448-1.077-14.102-0.622l-9.17-17.656
			c-0.488-1.415-2.035-2.162-3.443-1.662l-14.254,4.972c-1.406,0.478-2.152,2.025-1.66,3.439l3.848,19.701
			c0,0-4.936,4.613-7.892,7.987l-19.083-6.04c-1.345-0.649-2.963-0.084-3.612,1.259l-6.562,13.596
			c-0.649,1.345-0.083,2.961,1.262,3.61l16.552,11.149c-0.787,4.189-1.022,8.411-0.733,12.578l-17.704,9.185
			c-1.403,0.488-2.146,2.029-1.66,3.439l4.973,14.256c0.492,1.407,2.036,2.152,3.446,1.663l19.527-3.815
			c2.368,3.464,5.181,6.652,8.415,9.458l-5.996,18.954c-0.648,1.344-0.088,2.957,1.26,3.607l13.595,6.562
			c1.342,0.648,2.959,0.086,3.608-1.257l11.104-16.489c3.746,0.702,7.509,0.963,11.231,0.799l-0.14,0.051l9.245,17.808
			c0.496,1.416,2.037,2.159,3.446,1.664l14.251-4.973c1.411-0.489,2.156-2.033,1.661-3.439l-3.7-18.958
			c3.967-2.535,7.586-5.66,10.74-9.308l19.029,6.025c1.344,0.649,2.958,0.085,3.608-1.26l6.562-13.596
			C596.418,163.493,595.855,161.875,594.512,161.226z M514.865,170.228c-16.099-7.771-22.843-27.122-15.074-43.216
			c7.766-16.09,27.109-22.841,43.207-15.071c16.098,7.77,22.844,27.114,15.078,43.203
			C550.308,171.238,530.962,177.996,514.865,170.228z"/>
		<path id="XMLID_12_" fill="#F4F3E6" d="M541.52,115.004c-14.197-6.852-31.26-0.895-38.109,13.294
			c-6.85,14.193-0.896,31.253,13.3,38.104c14.194,6.851,31.258,0.901,38.109-13.292C561.668,138.922,555.715,121.854,541.52,115.004
			z M518.572,162.548c-12.068-5.825-17.126-20.322-11.303-32.388s20.321-17.125,32.39-11.301
			c12.066,5.823,17.124,20.323,11.3,32.388C545.135,163.313,530.637,168.371,518.572,162.548z"/>
	</g>
	<rect x="436.5" y="118.5" fill="#7FBF00" stroke="#F4F3E6" stroke-width="3" stroke-miterlimit="10" width="75" height="103"/>
	<g>
		<path fill="#F4F3E6" d="M460.771,142.071h-0.032l-1.844,0.996l-0.278-1.094l2.317-1.24h1.224v10.606h-1.387V142.071z"/>
		<path fill="#F4F3E6" d="M473.487,145.922c0,3.606-1.338,5.597-3.687,5.597c-2.073,0-3.476-1.942-3.508-5.45
			c0-3.557,1.534-5.516,3.688-5.516C472.214,140.554,473.487,142.545,473.487,145.922z M467.727,146.086
			c0,2.757,0.85,4.324,2.154,4.324c1.47,0,2.171-1.714,2.171-4.423c0-2.61-0.669-4.324-2.155-4.324
			C468.641,141.663,467.727,143.197,467.727,146.086z"/>
		<path fill="#F4F3E6" d="M482.272,145.922c0,3.606-1.339,5.597-3.688,5.597c-2.072,0-3.476-1.942-3.511-5.45
			c0-3.557,1.537-5.516,3.689-5.516C480.999,140.554,482.272,142.545,482.272,145.922z M476.512,146.086
			c0,2.757,0.846,4.324,2.153,4.324c1.467,0,2.169-1.714,2.169-4.423c0-2.61-0.667-4.324-2.153-4.324
			C477.425,141.663,476.512,143.197,476.512,146.086z"/>
		<path fill="#F4F3E6" d="M491.268,143.442c-0.033,0.571-0.065,1.208-0.065,2.171v4.585c0,1.812-0.359,2.92-1.127,3.606
			c-0.766,0.717-1.875,0.946-2.871,0.946c-0.947,0-1.992-0.229-2.626-0.653l0.357-1.094c0.522,0.328,1.339,0.621,2.318,0.621
			c1.467,0,2.546-0.768,2.546-2.757v-0.882h-0.035c-0.441,0.735-1.289,1.322-2.511,1.322c-1.958,0-3.363-1.664-3.363-3.851
			c0-2.676,1.748-4.193,3.557-4.193c1.372,0,2.123,0.717,2.465,1.37h0.031l0.066-1.192H491.268z M489.783,146.559
			c0-0.245-0.017-0.457-0.082-0.652c-0.261-0.833-0.962-1.519-2.006-1.519c-1.371,0-2.349,1.159-2.349,2.986
			c0,1.55,0.781,2.839,2.333,2.839c0.881,0,1.68-0.555,1.99-1.468c0.083-0.245,0.115-0.521,0.115-0.767V146.559z"/>
	</g>
	<g>
		<circle fill="#F4F3E6" cx="443.669" cy="157.794" r="2.453"/>
		<circle fill="#F4F3E6" cx="443.669" cy="181.434" r="2.453"/>
	</g>
	<polygon opacity="0.2" fill="#3A7700" points="450,223 450,154 513,154 513,175.502 457.911,223 	"/>
	<polygon fill="#7FBF00" stroke="#F4F3E6" stroke-width="3" stroke-miterlimit="10" points="545.5,343.049 545.5,354.5 593.5,354.5 
		593.5,251.5 566.149,251.5 	"/>
	<g>
		<rect x="458" y="171" fill="#FF3F84" width="33" height="1"/>
		<rect x="458" y="181" fill="#FF3F84" width="33" height="2"/>
		<rect x="458" y="192" fill="#FF3F84" width="33" height="1"/>
	</g>
	<polygon fill="#A4BF00" stroke="#F4F3E6" stroke-width="3" stroke-miterlimit="10" points="530.5,262.5 454.5,262.5 454.5,158.5 
		530.5,158.5 530.5,172.777 537.5,174.954 537.5,196.705 530.5,199.024 	"/>
	<g>
		<path fill="#F4F3E6" d="M476.49,190.322c0.405,0.261,1.353,0.669,2.347,0.669c1.845,0,2.415-1.175,2.398-2.057
			c-0.016-1.484-1.352-2.121-2.74-2.121h-0.801v-1.077h0.801c1.045,0,2.366-0.538,2.366-1.795c0-0.849-0.538-1.599-1.859-1.599
			c-0.851,0-1.665,0.375-2.121,0.701L476.505,182c0.554-0.408,1.632-0.815,2.774-0.815c2.088,0,3.034,1.239,3.034,2.528
			c0,1.094-0.653,2.024-1.959,2.496v0.034c1.306,0.261,2.367,1.239,2.367,2.724c0,1.698-1.322,3.182-3.868,3.182
			c-1.19,0-2.235-0.376-2.757-0.718L476.49,190.322z"/>
		<path fill="#F4F3E6" d="M491.977,186.552c0,3.607-1.338,5.597-3.687,5.597c-2.073,0-3.476-1.942-3.508-5.45
			c0-3.557,1.534-5.515,3.688-5.515C490.705,181.185,491.977,183.175,491.977,186.552z M486.217,186.716
			c0,2.757,0.85,4.324,2.154,4.324c1.47,0,2.171-1.714,2.171-4.421c0-2.611-0.669-4.326-2.155-4.326
			C487.131,182.293,486.217,183.827,486.217,186.716z"/>
		<path fill="#F4F3E6" d="M500.762,186.552c0,3.607-1.339,5.597-3.688,5.597c-2.072,0-3.476-1.942-3.511-5.45
			c0-3.557,1.537-5.515,3.689-5.515C499.489,181.185,500.762,183.175,500.762,186.552z M495.002,186.716
			c0,2.757,0.846,4.324,2.153,4.324c1.467,0,2.169-1.714,2.169-4.421c0-2.611-0.667-4.326-2.153-4.326
			C495.916,182.293,495.002,183.827,495.002,186.716z"/>
		<path fill="#F4F3E6" d="M509.758,184.073c-0.033,0.571-0.065,1.207-0.065,2.17v4.585c0,1.811-0.359,2.92-1.127,3.605
			c-0.766,0.719-1.875,0.947-2.871,0.947c-0.947,0-1.992-0.229-2.626-0.653l0.357-1.094c0.522,0.328,1.339,0.622,2.318,0.622
			c1.467,0,2.546-0.768,2.546-2.758v-0.882h-0.035c-0.441,0.734-1.289,1.321-2.511,1.321c-1.958,0-3.363-1.664-3.363-3.851
			c0-2.676,1.748-4.193,3.557-4.193c1.372,0,2.123,0.718,2.465,1.371h0.031l0.066-1.191H509.758z M508.273,187.189
			c0-0.245-0.017-0.458-0.082-0.653c-0.261-0.833-0.962-1.518-2.006-1.518c-1.371,0-2.349,1.158-2.349,2.985
			c0,1.551,0.781,2.839,2.333,2.839c0.881,0,1.68-0.554,1.99-1.468c0.083-0.246,0.115-0.523,0.115-0.768V187.189z"/>
	</g>
	<g>
		<circle fill="#F4F3E6" cx="462.138" cy="198.425" r="2.453"/>
		<circle fill="#F4F3E6" cx="462.138" cy="222.065" r="2.453"/>
	</g>
	<g>
		<rect x="476" y="212" fill="#FF3F84" width="33" height="1"/>
		<rect x="476" y="222" fill="#FF3F84" width="33" height="1"/>
		<rect x="476" y="232" fill="#FF3F84" width="33" height="2"/>
	</g>
	<g>
		<rect x="494" y="252" fill="#FF3F84" width="33" height="2"/>
		<rect x="494" y="263" fill="#FF3F84" width="33" height="1"/>
		<rect x="494" y="273" fill="#FF3F84" width="33" height="1"/>
	</g>
	<polygon fill="#3A7700" points="566.952,344.943 547,344.742 547,352.994 	"/>
	<path fill="none" stroke="#FF3F84" stroke-width="3" stroke-miterlimit="10" d="M477.5,251.076"/>
	<line fill="none" stroke="#F4F3E6" stroke-width="2" stroke-miterlimit="10" x1="565" y1="302" x2="575" y2="302"/>
	<line fill="none" stroke="#F4F3E6" stroke-width="6" stroke-miterlimit="10" x1="565" y1="284" x2="575" y2="284"/>
	<line fill="none" stroke="#F4F3E6" stroke-width="2" stroke-miterlimit="10" x1="565" y1="312" x2="575" y2="312"/>
	<line fill="none" stroke="#F4F3E6" stroke-width="2" stroke-miterlimit="10" x1="565" y1="322" x2="575" y2="322"/>
	<polygon opacity="0.2" fill="#3A7700" points="468,264 468,195 539,195 539,216.502 475.911,264 	"/>
	<rect x="472.5" y="199.5" fill="#7FBF00" stroke="#F4F3E6" stroke-width="3" stroke-miterlimit="10" width="76" height="103"/>
	<g>
		<path fill="#F4F3E6" d="M496.969,223.333h-0.032l-1.844,0.996l-0.277-1.094l2.317-1.24h1.224v10.607h-1.387V223.333z"/>
		<path fill="#F4F3E6" d="M509.686,227.184c0,3.607-1.338,5.598-3.688,5.598c-2.073,0-3.476-1.941-3.508-5.45
			c0-3.557,1.535-5.516,3.688-5.516C508.413,221.815,509.686,223.807,509.686,227.184z M503.925,227.348
			c0,2.758,0.85,4.324,2.154,4.324c1.469,0,2.17-1.715,2.17-4.424c0-2.61-0.668-4.323-2.155-4.323
			C504.839,222.925,503.925,224.458,503.925,227.348z"/>
		<path fill="#F4F3E6" d="M518.47,227.184c0,3.607-1.339,5.598-3.688,5.598c-2.072,0-3.476-1.941-3.51-5.45
			c0-3.557,1.537-5.516,3.689-5.516C517.197,221.815,518.47,223.807,518.47,227.184z M512.71,227.348
			c0,2.758,0.846,4.324,2.153,4.324c1.467,0,2.169-1.715,2.169-4.424c0-2.61-0.667-4.323-2.153-4.323
			C513.624,222.925,512.71,224.458,512.71,227.348z"/>
		<path fill="#F4F3E6" d="M527.466,224.704c-0.033,0.571-0.065,1.208-0.065,2.171v4.584c0,1.812-0.359,2.921-1.127,3.606
			c-0.766,0.718-1.875,0.946-2.871,0.946c-0.946,0-1.992-0.229-2.626-0.652l0.358-1.094c0.522,0.327,1.339,0.62,2.318,0.62
			c1.467,0,2.546-0.768,2.546-2.757v-0.882h-0.035c-0.441,0.735-1.289,1.321-2.511,1.321c-1.957,0-3.363-1.664-3.363-3.85
			c0-2.677,1.748-4.193,3.557-4.193c1.372,0,2.123,0.717,2.465,1.37h0.031l0.065-1.192H527.466z M525.982,227.82
			c0-0.245-0.018-0.457-0.083-0.652c-0.26-0.832-0.961-1.518-2.006-1.518c-1.371,0-2.349,1.159-2.349,2.987
			c0,1.55,0.782,2.839,2.333,2.839c0.882,0,1.68-0.555,1.991-1.468c0.083-0.246,0.115-0.521,0.115-0.768V227.82z"/>
	</g>
	<g>
		<circle fill="#F4F3E6" cx="479.868" cy="239.057" r="2.453"/>
		<circle fill="#F4F3E6" cx="479.868" cy="262.695" r="2.453"/>
	</g>
	<polygon opacity="0.2" fill="#3A7700" points="486,304 486,235 550,235 550,256.502 493.911,304 	"/>
	<rect x="490.5" y="239.5" fill="#7FBF00" stroke="#F4F3E6" stroke-width="3" stroke-miterlimit="10" width="75" height="104"/>
	<g>
		<g>
			<circle fill="#F4F3E6" cx="497.597" cy="279.688" r="2.453"/>
			<circle fill="#F4F3E6" cx="497.597" cy="303.327" r="2.453"/>
		</g>
		<g>
			<path fill="#F4F3E6" d="M511.583,273.232v-0.881l1.125-1.094c2.709-2.578,3.933-3.949,3.948-5.548
				c0-1.077-0.521-2.072-2.104-2.072c-0.964,0-1.762,0.489-2.25,0.897l-0.458-1.013c0.735-0.62,1.779-1.076,3.002-1.076
				c2.285,0,3.249,1.567,3.249,3.083c0,1.959-1.42,3.542-3.657,5.696l-0.849,0.783v0.032h4.765v1.191H511.583z"/>
			<path fill="#F4F3E6" d="M527.415,267.814c0,3.607-1.337,5.597-3.688,5.597c-2.072,0-3.475-1.94-3.508-5.45
				c0-3.557,1.534-5.515,3.688-5.515C526.142,262.446,527.415,264.438,527.415,267.814z M521.655,267.979
				c0,2.757,0.849,4.324,2.153,4.324c1.468,0,2.169-1.714,2.169-4.422c0-2.611-0.667-4.325-2.154-4.325
				C522.568,263.556,521.655,265.09,521.655,267.979z"/>
			<path fill="#F4F3E6" d="M536.198,267.814c0,3.607-1.337,5.597-3.687,5.597c-2.073,0-3.476-1.94-3.509-5.45
				c0-3.557,1.534-5.515,3.688-5.515C534.926,262.446,536.198,264.438,536.198,267.814z M530.438,267.979
				c0,2.757,0.848,4.324,2.153,4.324c1.47,0,2.17-1.714,2.17-4.422c0-2.611-0.67-4.325-2.154-4.325
				C531.352,263.556,530.438,265.09,530.438,267.979z"/>
			<path fill="#F4F3E6" d="M545.196,265.334c-0.035,0.572-0.066,1.207-0.066,2.17v4.586c0,1.811-0.358,2.92-1.126,3.606
				c-0.767,0.718-1.876,0.946-2.872,0.946c-0.946,0-1.992-0.229-2.626-0.652l0.358-1.094c0.523,0.326,1.339,0.619,2.318,0.619
				c1.467,0,2.545-0.767,2.545-2.757v-0.882h-0.033c-0.441,0.734-1.289,1.322-2.512,1.322c-1.958,0-3.362-1.664-3.362-3.85
				c0-2.678,1.745-4.194,3.558-4.194c1.371,0,2.121,0.718,2.463,1.37h0.032l0.066-1.191H545.196z M543.71,268.451
				c0-0.244-0.016-0.457-0.082-0.653c-0.259-0.832-0.963-1.518-2.006-1.518c-1.371,0-2.35,1.159-2.35,2.986
				c0,1.551,0.783,2.839,2.334,2.839c0.879,0,1.68-0.554,1.99-1.468c0.082-0.245,0.114-0.522,0.114-0.768V268.451z"/>
		</g>
		<line fill="none" stroke="#F4F3E6" stroke-width="2" stroke-miterlimit="10" x1="511" y1="294" x2="545" y2="294"/>
		<line fill="none" stroke="#F4F3E6" stroke-width="2" stroke-miterlimit="10" x1="511" y1="304" x2="545" y2="304"/>
		<line fill="none" stroke="#F4F3E6" stroke-width="2" stroke-miterlimit="10" x1="511" y1="314" x2="545" y2="314"/>
	</g>
	<line fill="none" stroke="#F4F3E6" stroke-width="3" stroke-miterlimit="10" x1="545.5" y1="354.5" x2="566.254" y2="343.666"/>
</g>
<path fill="#F4F3E6" d="M720.394,298.227c-16.742,0.817-17.424,1.502-18.241,18.24c0,0.004-0.006,0.004-0.006,0
	c-0.813-16.738-1.496-17.423-18.233-18.24c-0.004,0-0.004-0.006,0-0.006c16.737-0.815,17.42-1.498,18.233-18.24
	c0-0.004,0.006-0.004,0.006,0c0.817,16.742,1.499,17.425,18.241,18.24C720.397,298.221,720.397,298.227,720.394,298.227z"/>
<path fill="#7FBF00" d="M715.467,279.533c-1.58,0-2.865-1.287-2.865-2.867s1.285-2.865,2.865-2.865s2.867,1.285,2.867,2.865
	S717.047,279.533,715.467,279.533z"/>
<path fill="#C1272D" d="M671.99,287.35c-0.83,0-1.5-0.68-1.5-1.51l0,0c0-0.83,0.68-1.49,1.5-1.49l0,0c0.829,0,1.5,0.67,1.5,1.5l0,0
	C673.49,286.68,672.819,287.35,671.99,287.35L671.99,287.35L671.99,287.35z M662.689,286h-0.01c-0.8,0-1.27-0.92-1.05-1.72l0,0
	c0.21-0.801,1.04-1.221,1.84-1.001l0,0l0,0l0,0c0.8,0.221,1.271,1.07,1.05,1.871l0,0c-0.18,0.67-0.779,1.005-1.439,1.005l0,0
	C662.95,286.155,662.819,286,662.689,286z M679.42,285.01c-0.26-0.779,0.16-1.641,0.939-1.9l0,0c0.78-0.27,1.641,0.15,1.9,0.94l0,0
	c0.271,0.78-0.15,1.63-0.93,1.899l0,0c-0.16,0.051-0.33,0.08-0.49,0.08l0,0C680.22,286.029,679.63,285.64,679.42,285.01z
	 M654.2,281.79c-0.631-0.54-0.7-1.49-0.16-2.11l0,0c0.54-0.63,1.479-0.71,2.109-0.17l0,0c0.631,0.54,0.7,1.49,0.16,2.12l0,0
	c-0.29,0.351-0.71,0.521-1.14,0.521l0,0C654.83,282.15,654.479,282.029,654.2,281.79z M687.35,280.89
	c-0.59-0.569-0.6-1.53-0.02-2.12l0,0l0,0l0,0c0.569-0.59,1.52-0.6,2.12-0.02l0,0c0.59,0.57,0.6,1.52,0.02,2.119l0,0
	c-0.29,0.301-0.68,0.451-1.07,0.451l0,0C688.02,281.32,687.649,281.18,687.35,280.89z M648,274.119v-0.01
	c0-0.75,0.225-1.64,0.984-1.979l0,0c0.75-0.351,1.764-0.021,2.104,0.729l0,0l0,0l0,0c0.35,0.75,0.08,1.65-0.67,1.99l0,0
	c-0.21,0.1-0.634,0.141-0.844,0.141l0,0C649.005,274.99,649,274.67,648,274.119z M692.569,273.63c-0.77-0.29-1.159-1.16-0.859-1.94
	l0,0c0.29-0.77,1.405-1.16,2.175-0.859l0,0c0.78,0.289,1.115,1.16,1.115,1.939v-0.01c-1,0.6-1.045,0.971-1.646,0.971l0,0
	C693.175,273.73,692.75,273.699,692.569,273.63z M779.189,268L779.189,268L779.189,268c-0.83,0-1.46-0.775-1.42-1.605l0,0
	c0.05-0.829,0.75-1.473,1.58-1.432l0,0c0.83,0.05,1.46,0.778,1.42,1.598l0,0c-0.04,0.801-0.71,1.439-1.489,1.439l0,0
	C779.25,268,779.22,268,779.189,268z M786.76,266.359c-0.09-0.819,0.51-1.56,1.33-1.649l0,0c0.82-0.091,1.56,0.5,1.66,1.33l0,0
	c0.08,0.819-0.51,1.56-1.33,1.649l0,0c-0.061,0.01-0.11,0.01-0.17,0.01l0,0C787.49,267.699,786.85,267.13,786.76,266.359z
	 M770.06,266.71c-0.819-0.17-1.33-0.97-1.149-1.78l0,0c0.17-0.811,0.97-1.33,1.779-1.15l0,0c0.811,0.17,1.32,0.971,1.15,1.781l0,0
	c-0.15,0.699-0.78,1.189-1.47,1.189l0,0C770.27,266.75,770.16,266.73,770.06,266.71z M646.13,264.785
	c-0.07-0.82,0.54-1.473,1.36-1.543l0,0c0.829-0.07,1.56,0.424,1.63,1.254l0,0c0.069,0.82-0.551,1.504-1.37,1.504l0,0
	c-0.04,0-0.09,0-0.13,0l0,0C646.85,266,646.189,265.564,646.13,264.785z M795.64,264.91c-0.22-0.801,0.26-1.62,1.061-1.83l0,0
	c0.8-0.221,1.619,0.26,1.83,1.06l0,0c0.22,0.8-0.261,1.62-1.061,1.83l0,0c-0.13,0.04-0.26,0.06-0.39,0.06l0,0
	C796.42,266.029,795.819,265.58,795.64,264.91z M694.97,264.98c-0.83-0.091-1.42-0.841-1.33-1.66l0,0l0,0l0,0
	c0.09-0.82,0.83-1.42,1.66-1.32l0,0c0.82,0.09,1.41,0.83,1.32,1.65l0,0c-0.08,0.77-0.73,1.34-1.49,1.34l0,0
	C695.08,264.99,695.02,264.98,694.97,264.98z M761.229,264.15c-0.779-0.281-1.18-1.141-0.899-1.92l0,0
	c0.279-0.781,1.14-1.181,1.92-0.9l0,0c0.78,0.279,1.18,1.14,0.899,1.92l0,0c-0.22,0.609-0.8,0.99-1.409,0.99l0,0
	C761.569,264.24,761.399,264.21,761.229,264.15z M804.21,262.189c-0.32-0.76,0.04-1.64,0.81-1.959l0,0
	c0.761-0.32,1.641,0.039,1.96,0.81l0,0c0.32,0.76-0.05,1.64-0.81,1.96l0,0l0,0l0,0c-0.19,0.08-0.38,0.119-0.57,0.119l0,0
	C805.01,263.119,804.45,262.77,804.21,262.189z M752.81,260.57c-0.75-0.36-1.06-1.26-0.689-2l0,0c0.359-0.75,1.25-1.061,2-0.701l0,0
	c0.75,0.361,1.06,1.261,0.689,2.011l0,0c-0.25,0.53-0.79,0.84-1.35,0.84l0,0C753.24,260.72,753.02,260.67,752.81,260.57z
	 M812.38,258.229c-0.4-0.729-0.13-1.229,0.6-2.229h-0.01c0.73,0,1.64,0.06,2.04,0.79l0,0c0.4,0.729,0.13,1.739-0.59,2.14l0,0l0,0
	l0,0c-0.23,0.12-0.48,0.131-0.72,0.131l0,0C813.17,259.061,812.649,258.729,812.38,258.229z M647.88,257.33
	c-0.811-0.17-1.33-0.961-1.16-1.77l0,0c0.17-0.811,0.96-1.341,1.771-1.171l0,0c0.81,0.171,1.329,0.97,1.17,1.78l0,0
	c-0.15,0.71-0.771,1.189-1.471,1.189l0,0C648.09,257.359,647.979,257.35,647.88,257.33z M744.78,256.29
	c-0.721-0.421-0.971-1.33-0.551-2.05l0,0c0.41-0.721,1.32-0.971,2.04-0.551l0,0c0.721,0.41,0.971,1.33,0.55,2.051l0,0
	c-0.27,0.479-0.779,0.75-1.3,0.75l0,0C745.27,256.49,745.01,256.42,744.78,256.29z M693.859,254.57
	c-0.04-0.83,0.601-1.53,1.431-1.57l0,0c0.83-0.04,1.529,0.6,1.569,1.42l0,0c0.04,0.83-0.6,1.529-1.42,1.58l0,0
	c-0.029,0-0.05,0-0.08,0l0,0C694.569,256,693.899,255.369,693.859,254.57z M820.14,253.869c-0.46-0.689-0.28-1.619,0.41-2.079l0,0
	c0.69-0.46,1.62-0.271,2.08,0.42l0,0c0.46,0.69,0.27,1.62-0.41,2.08l0,0c-0.26,0.17-0.55,0.25-0.84,0.25l0,0
	C820.899,254.54,820.43,254.311,820.14,253.869z M737.03,251.58c-0.711-0.44-0.921-1.37-0.471-2.07l0,0
	c0.44-0.699,1.37-0.91,2.07-0.46l0,0c0.7,0.44,0.91,1.36,0.46,2.069l0,0c-0.28,0.451-0.771,0.691-1.26,0.691l0,0
	C737.55,251.811,737.27,251.74,737.03,251.58z M650.5,248.74c-0.73-0.381-1.021-1.28-0.641-2.021l0,0
	c0.381-0.739,1.28-1.03,2.021-0.64l0,0c0.74,0.369,1.02,1.279,0.64,2.01l0,0c-0.26,0.52-0.79,0.82-1.33,0.82l0,0
	C650.96,248.91,650.72,248.85,650.5,248.74z M692.91,245.79c-0.13-0.82,0.42-1.591,1.239-1.72l0,0c0.82-0.131,1.591,0.42,1.721,1.24
	l0,0c0.14,0.819-0.42,1.59-1.24,1.719l0,0c-0.08,0.011-0.16,0.021-0.24,0.021l0,0C693.67,247.05,693.03,246.529,692.91,245.79z
	 M729.439,246.71c-0.699-0.45-0.899-1.37-0.449-2.07l0,0c0.449-0.7,1.369-0.899,2.069-0.45l0,0c0.7,0.45,0.9,1.381,0.45,2.08l0,0
	c-0.29,0.44-0.77,0.68-1.26,0.68l0,0C729.97,246.949,729.689,246.88,729.439,246.71z M721.85,242c0,0,0,0,0.01,0l0,0
	c-0.71,0-0.93-1.391-0.5-2.1l0,0c0.431-0.711,1.351-0.951,2.061-0.521l0,0c0.71,0.44,0.93,1.35,0.5,2.05l0,0
	c-0.29,0.47-0.78,0.755-1.28,0.755l0,0C722.37,242.185,722.1,242,721.85,242z M655.319,241.16c-0.609-0.561-0.64-1.51-0.079-2.12
	l0,0c0.56-0.601,1.51-0.64,2.119-0.08l0,0c0.61,0.56,0.641,1.51,0.08,2.12l0,0l0,0l0,0c-0.3,0.32-0.699,0.48-1.1,0.48l0,0
	C655.979,241.561,655.609,241.43,655.319,241.16z M691.08,237.119c-0.2-0.809,0.279-1.629,1.08-1.829l0,0
	c0.81-0.21,1.62,0.28,1.83,1.079l0,0c0.199,0.801-0.28,1.621-1.08,1.83l0,0c-0.13,0.031-0.25,0.041-0.38,0.041l0,0
	C691.87,238.24,691.26,237.79,691.08,237.119z M714.13,237.48c-0.73-0.391-1.01-1.291-0.62-2.031l0,0
	c0.39-0.729,1.29-1.01,2.03-0.619l0,0c0.729,0.39,1.01,1.3,0.62,2.029l0,0c-0.271,0.51-0.79,0.801-1.33,0.801l0,0
	C714.59,237.66,714.35,237.6,714.13,237.48z M661.979,235.15c-0.439-0.711-0.22-1.631,0.48-2.07l0,0c0.7-0.44,1.63-0.23,2.07,0.48
	l0,0c0.439,0.699,0.22,1.619-0.48,2.059l0,0c-0.25,0.16-0.52,0.23-0.79,0.23l0,0C662.76,235.85,662.27,235.6,661.979,235.15z
	 M706.13,233.76L706.13,233.76L706.13,233.76c-0.771-0.311-1.15-1.18-0.84-1.949l0,0c0.3-0.771,1.17-1.15,1.939-0.851l0,0
	c0.771,0.31,1.15,1.18,0.84,1.95l0,0c-0.229,0.59-0.789,0.949-1.39,0.949l0,0C706.5,233.859,706.31,233.83,706.13,233.76z
	 M669.97,231.04c-0.25-0.79,0.18-1.63,0.96-1.89l0,0c0.79-0.25,1.64,0.18,1.89,0.969l0,0c0.261,0.791-0.17,1.631-0.96,1.891l0,0
	c-0.149,0.051-0.31,0.07-0.46,0.07l0,0C670.76,232.08,670.18,231.68,669.97,231.04z M697.78,231.21L697.78,231.21L697.78,231.21
	c-0.811-0.17-1.33-0.96-1.16-1.771l0,0c0.17-0.81,0.96-1.34,1.77-1.17l0,0c0.811,0.17,1.33,0.971,1.16,1.78l0,0
	c-0.15,0.71-0.77,1.19-1.46,1.19l0,0C697.979,231.24,697.88,231.23,697.78,231.21z M678.689,228.9c-0.09-0.83,0.511-1.57,1.33-1.65
	l0,0c0.83-0.09,1.57,0.5,1.66,1.33l0,0c0.08,0.82-0.51,1.56-1.34,1.65l0,0c-0.05,0.01-0.1,0.01-0.16,0.01l0,0
	C679.43,230.24,678.77,229.67,678.689,228.9z M685.3,220.34L685.3,220.34L685.3,220.34c-0.34-0.76,0.01-1.64,0.77-1.97l0,0
	c0.761-0.34,1.641,0,1.971,0.76l0,0c0.34,0.76-0.01,1.65-0.76,1.98l0,0c-0.2,0.09-0.41,0.13-0.61,0.13l0,0
	C686.1,221.24,685.55,220.9,685.3,220.34z M681.34,212.44c-0.42-0.72-0.17-1.63,0.55-2.05l0,0c0.72-0.41,1.63-0.16,2.05,0.56l0,0
	c0.41,0.71,0.16,1.63-0.56,2.04l0,0c-0.23,0.14-0.49,0.2-0.74,0.2l0,0C682.12,213.19,681.609,212.92,681.34,212.44z M676.479,205.06
	L676.479,205.06L676.479,205.06c-0.489-0.67-0.34-1.61,0.33-2.1l0,0c0.67-0.48,1.61-0.33,2.101,0.33l0,0
	c0.479,0.67,0.34,1.61-0.33,2.1l0,0c-0.271,0.19-0.58,0.29-0.891,0.29l0,0C677.229,205.68,676.78,205.46,676.479,205.06z
	 M670.939,198.15L670.939,198.15L670.939,198.15c-0.55-0.62-0.489-1.57,0.13-2.11l0,0c0.631-0.55,1.57-0.49,2.12,0.13l0,0
	c0.551,0.62,0.49,1.57-0.13,2.12l0,0c-0.29,0.25-0.64,0.37-0.99,0.37l0,0C671.649,198.66,671.24,198.49,670.939,198.15z
	 M664.77,191.82c-0.609-0.56-0.649-1.51-0.08-2.12l0,0c0.561-0.6,1.511-0.64,2.12-0.08l0,0c0.601,0.57,0.641,1.52,0.08,2.12l0,0
	c-0.3,0.32-0.7,0.48-1.1,0.48l0,0C665.42,192.22,665.06,192.09,664.77,191.82z M657.979,186.17c-0.66-0.5-0.8-1.43-0.3-2.1l0,0
	c0.49-0.66,1.43-0.8,2.101-0.3l0,0c0.659,0.49,0.8,1.43,0.3,2.1l0,0c-0.29,0.39-0.75,0.6-1.2,0.6l0,0
	C658.569,186.47,658.25,186.37,657.979,186.17z M650.63,181.28c-0.71-0.43-0.95-1.35-0.53-2.06l0,0c0.42-0.71,1.34-0.95,2.061-0.53
	l0,0c0.71,0.42,0.939,1.34,0.529,2.06l0,0c-0.29,0.47-0.79,0.73-1.3,0.73l0,0C651.13,181.48,650.87,181.42,650.63,181.28z
	 M554.97,180.31c-0.37-0.74-0.08-1.64,0.66-2.02l0,0c0.739-0.37,1.64-0.08,2.021,0.66l0,0c0.369,0.74,0.08,1.64-0.66,2.02l0,0
	c-0.221,0.11-0.45,0.16-0.68,0.16l0,0C555.76,181.13,555.24,180.83,554.97,180.31z M563.109,176.48c-0.31-0.77,0.07-1.65,0.84-1.95
	l0,0c0.771-0.31,1.641,0.06,1.951,0.83l0,0c0.31,0.77-0.07,1.64-0.84,1.95l0,0l0,0l0,0c-0.181,0.07-0.371,0.11-0.561,0.11l0,0
	C563.91,177.42,563.35,177.06,563.109,176.48z M642.79,177.21c-0.75-0.35-1.09-1.24-0.74-1.99l0,0c0.34-0.75,1.23-1.09,1.98-0.75
	l0,0c0.75,0.34,1.09,1.23,0.75,1.99l0,0c-0.25,0.55-0.801,0.88-1.37,0.88l0,0C643.2,177.34,642.99,177.3,642.79,177.21z
	 M571.561,173.36c-0.25-0.79,0.199-1.63,0.989-1.87l0,0c0.79-0.25,1.63,0.2,1.87,0.99l0,0c0.25,0.79-0.2,1.63-0.99,1.88l0,0
	c-0.149,0.04-0.29,0.06-0.439,0.06l0,0C572.35,174.42,571.76,174.01,571.561,173.36z M634.56,174c-0.79-0.26-1.22-1.11-0.96-1.9l0,0
	c0.26-0.78,1.11-1.21,1.9-0.95l0,0c0.78,0.26,1.21,1.1,0.95,1.89l0,0c-0.21,0.63-0.79,1.03-1.42,1.03l0,0
	C634.87,174.07,634.71,174.05,634.56,174z M580.22,170.95c-0.18-0.81,0.33-1.62,1.14-1.79l0,0c0.811-0.18,1.61,0.32,1.79,1.13l0,0
	c0.181,0.81-0.33,1.61-1.14,1.79l0,0c-0.11,0.03-0.21,0.04-0.32,0.04l0,0C581,172.12,580.38,171.64,580.22,170.95z M626.02,172
	c0,0,0,0,0.011,0l0,0c-0.811,0-1.33-1.15-1.15-1.96l0,0c0.18-0.81,0.979-1.405,1.79-1.225l0,0c0.81,0.18,1.32,0.938,1.14,1.748l0,0
	c-0.149,0.69-0.77,1.319-1.46,1.319l0,0C626.24,171.881,626.13,172,626.02,172z M589.06,169.465c-0.12-0.82,0.45-1.465,1.271-1.465
	h0.01c0.82-1,1.58,0.225,1.69,1.045l0,0c0.109,0.82-0.461,1.462-1.28,1.573l0,0l0,0l0,0c-0.07,0.01-0.141,0.079-0.21,0.079l0,0
	C589.8,170.696,589.16,170.215,589.06,169.465z M617.29,170.17c-0.82-0.1-1.41-0.84-1.3-1.67l0,0c0.1-0.82,0.84-1.41,1.659-1.31l0,0
	c0.83,0.1,1.41,0.85,1.311,1.67l0,0c-0.09,0.76-0.74,1.32-1.48,1.32l0,0C617.42,170.18,617.359,170.18,617.29,170.17z M598,168.4
	c-0.04-0.82,0.59-1.62,1.42-1.67l0,0c0.82-0.05,1.53,0.726,1.58,1.545l0,0c0.04,0.83-0.59,1.725-1.41,1.725l0,0
	c-0.03,0-0.06,0-0.09,0l0,0C598.71,170,598.05,169.2,598,168.4z M608.46,170c-0.83-1-1.48-0.955-1.46-1.785l0,0
	c0.02-0.83,0.71-1.603,1.54-1.583l0,0c0.83,0.03,1.479,0.904,1.46,1.734l0,0c-0.021,0.81-0.69,1.634-1.5,1.634l0,0
	C608.49,170,608.47,170,608.46,170z"/>
<g>
	<path opacity="0.3" fill="#C1272D" d="M683.852,274.188c-7.879-7.146-8.491-7.145-16.369,0c-0.002,0.002-0.005-0.001-0.003-0.003
		c7.146-7.876,7.146-8.489,0.003-16.366c-0.002-0.002,0.001-0.004,0.003-0.003c7.876,7.146,8.488,7.146,16.365-0.003
		c0.003-0.002,0.005,0.002,0.004,0.003c-7.146,7.88-7.147,8.491,0,16.37C683.856,274.188,683.854,274.189,683.852,274.188z"/>
	<path fill="#C1272D" d="M687.242,266.002c-10.624,0.519-11.057,0.953-11.575,11.574c0,0.003-0.004,0.003-0.004,0
		c-0.517-10.621-0.949-11.056-11.57-11.574c-0.003,0-0.003-0.004,0-0.004c10.621-0.518,11.054-0.95,11.57-11.574
		c0-0.003,0.004-0.003,0.004,0c0.519,10.624,0.951,11.057,11.575,11.574C687.245,265.998,687.245,266.002,687.242,266.002z"/>
</g>
<polygon opacity="0.2" fill="#3A7700" points="449.146,371.293 467.234,317.395 413.336,335.482 434.555,344.97 418.287,361.238 
	423.194,366.146 439.545,349.795 "/>
<polygon fill="#F4F3E6" points="448.146,369.293 466.234,315.395 412.336,333.482 433.555,342.97 417.287,359.238 422.194,364.146 
	438.545,347.795 "/>
<circle fill="#C1272D" cx="689.322" cy="228.797" r="1.53"/>
<path fill="#C1272D" d="M221.57,264.21c-0.4,0-0.79-0.16-1.07-0.44c-0.27-0.279-0.43-0.66-0.43-1.06c0-0.39,0.16-0.78,0.43-1.06
	c0.56-0.551,1.57-0.551,2.13,0c0.28,0.279,0.44,0.67,0.44,1.06c0,0.399-0.16,0.79-0.44,1.06
	C222.35,264.05,221.96,264.21,221.57,264.21z"/>
<g>
	<path fill="#C1272D" d="M415.906,264.023c-0.41,8.457-0.745,8.791-9.198,9.202c8.453,0.412,8.788,0.747,9.198,9.202
		c0.413-8.455,0.747-8.79,9.203-9.202C416.652,272.814,416.318,272.48,415.906,264.023z"/>
	<path fill="#C1272D" d="M300.34,277.71c-0.7-0.431-1.56-0.2-1.99,0.51c-0.42,0.71-0.35,1.63,0.65,2.06v-0.01
		c0,0.15,0.388,0.221,0.658,0.221c0.5,0,0.877-0.26,1.157-0.721C301.245,279.061,301.05,278.14,300.34,277.71z"/>
	<path fill="#C1272D" d="M304.15,324.199c-0.12-0.819-0.88-1.389-1.7-1.27c-0.82,0.11-1.39,0.87-1.27,1.689
		c0.11,0.75,0.75,1.291,1.48,1.291c0.07,0,0.15,0,0.22-0.01C303.7,325.779,304.27,325.02,304.15,324.199z"/>
	<path fill="#C1272D" d="M304.85,331.65c-0.7,0.439-0.91,1.359-0.47,2.06c0.28,0.46,0.77,0.71,1.27,0.71c0.27,0,0.55-0.07,0.8-0.23
		c0.7-0.439,0.91-1.359,0.47-2.07C306.48,331.42,305.56,331.21,304.85,331.65z"/>
	<path fill="#C1272D" d="M423.1,269.3c0.34,0,0.69-0.12,0.98-0.36c0.62-0.539,0.69-1.49,0.15-2.119c-0.54-0.631-1.49-0.69-2.11-0.15
		c-0.63,0.54-0.7,1.48-0.16,2.109C422.26,269.13,422.68,269.3,423.1,269.3z"/>
	<path fill="#C1272D" d="M284,269.22c-0.75-0.34-1.64,0-1.98,0.761c-0.33,0.76,0.01,1.639,0.77,1.979c0.19,0.09,0.4,0.13,0.6,0.13
		c0.58,0,1.13-0.33,1.38-0.891C285.1,270.439,284.76,269.55,284,269.22z"/>
	<path fill="#C1272D" d="M313.04,301.3c0.65-0.53,0.75-1.47,0.22-2.11c-0.52-0.649-1.46-0.75-2.11-0.22
		c-0.64,0.521-0.74,1.46-0.22,2.11c0.3,0.359,0.73,0.55,1.17,0.55C312.43,301.63,312.77,301.52,313.04,301.3z"/>
	<path fill="#C1272D" d="M306.94,305.66c-0.71-0.43-1.63-0.2-2.05,0.51c-0.43,0.71-0.2,1.63,0.51,2.061
		c0.24,0.149,0.51,0.209,0.77,0.209c0.51,0,1.01-0.26,1.29-0.72C307.88,307,307.65,306.08,306.94,305.66z"/>
	<path fill="#C1272D" d="M307.97,282.72c-0.68-0.479-1.61-0.31-2.08,0.37c-0.48,0.68-0.32,1.609,0.36,2.09
		c0.26,0.18,0.56,0.27,0.86,0.27c0.47,0,0.94-0.219,1.23-0.639C308.82,284.13,308.65,283.199,307.97,282.72z"/>
	<path fill="#C1272D" d="M292.27,273.21c-0.73-0.39-1.64-0.101-2.02,0.63c-0.38,0.74-0.1,1.641,0.64,2.029
		c0.22,0.111,0.45,0.171,0.69,0.171c0.54,0,1.06-0.3,1.33-0.81C293.29,274.5,293.01,273.59,292.27,273.21z"/>
	<path fill="#C1272D" d="M302.64,316.85c0.1,0.02,0.19,0.03,0.29,0.03c0.7,0,1.33-0.5,1.47-1.21c0.16-0.811-0.36-1.6-1.18-1.76
		c-0.81-0.17-1.6,0.359-1.76,1.17C301.3,315.9,301.82,316.689,302.64,316.85z"/>
	<path fill="#C1272D" d="M230.24,259.34c-0.82,0.1-1.4,0.859-1.29,1.68c0.1,0.76,0.75,1.301,1.49,1.301c0.07,0,0.13,0,0.2-0.01
		c0.82-0.111,1.4-0.871,1.29-1.691C231.82,259.8,231.06,259.23,230.24,259.34z"/>
	<path fill="#C1272D" d="M239.5,258.74c-0.83,0-1.5,0.67-1.5,1.5s0.67,1.5,1.5,1.5c0.83,0,1.5-0.67,1.5-1.5
		S240.32,258.74,239.5,258.74z"/>
	<path fill="#C1272D" d="M328.7,294.88c0.07,0,0.14-0.011,0.21-0.021c0.82-0.109,1.39-0.869,1.28-1.689
		c-0.12-0.82-0.88-1.391-1.7-1.28c-0.82,0.12-1.39,0.87-1.28,1.69C327.32,294.33,327.96,294.88,328.7,294.88z"/>
	<path fill="#C1272D" d="M275.49,265.77c-0.77-0.289-1.64,0.11-1.92,0.891c-0.29,0.779,0.11,1.64,0.89,1.92
		c0.17,0.07,0.34,0.09,0.51,0.09c0.62,0,1.19-0.37,1.41-0.98C276.67,266.91,276.27,266.05,275.49,265.77z"/>
	<path fill="#C1272D" d="M248.72,259.26c-0.82-0.09-1.56,0.5-1.65,1.33c-0.09,0.82,0.5,1.561,1.32,1.65
		c0.06,0.01,0.11,0.01,0.17,0.01c0.75,0,1.41-0.57,1.49-1.34C250.14,260.09,249.55,259.35,248.72,259.26z"/>
	<path fill="#C1272D" d="M266.76,262.9c-0.8-0.23-1.63,0.229-1.86,1.029c-0.23,0.79,0.23,1.62,1.03,1.85
		c0.14,0.041,0.28,0.061,0.41,0.061c0.65,0,1.26-0.43,1.45-1.08C268.01,263.96,267.56,263.13,266.76,262.9z"/>
	<path fill="#C1272D" d="M257.83,260.699c-0.81-0.17-1.6,0.351-1.77,1.17c-0.17,0.811,0.36,1.601,1.17,1.771
		c0.1,0.021,0.2,0.03,0.3,0.03c0.7,0,1.32-0.49,1.47-1.2C259.17,261.65,258.64,260.859,257.83,260.699z"/>
	<path fill="#C1272D" d="M315.31,288.27c-0.64-0.529-1.59-0.439-2.11,0.211c-0.52,0.639-0.43,1.58,0.21,2.109
		c0.28,0.23,0.62,0.34,0.95,0.34c0.44,0,0.87-0.189,1.16-0.561C316.05,289.73,315.95,288.79,315.31,288.27z"/>
	<path fill="#C1272D" d="M382.37,286.21c-0.81,0.21-1.29,1.021-1.08,1.83c0.17,0.68,0.78,1.13,1.45,1.13
		c0.12,0,0.24-0.02,0.37-0.051c0.8-0.199,1.29-1.02,1.08-1.819C383.99,286.49,383.17,286.01,382.37,286.21z"/>
	<path fill="#C1272D" d="M390.98,283.699c-0.79,0.261-1.21,1.111-0.95,1.9c0.21,0.631,0.79,1.02,1.42,1.02
		c0.16,0,0.32-0.02,0.47-0.069c0.79-0.26,1.22-1.11,0.96-1.899C392.62,283.869,391.77,283.439,390.98,283.699z"/>
	<path fill="#C1272D" d="M355.76,290.58c-0.82,0.07-1.44,0.789-1.36,1.619c0.06,0.781,0.72,1.371,1.49,1.371
		c0.04,0,0.08,0,0.13-0.01c0.82-0.07,1.44-0.791,1.36-1.621C357.31,291.119,356.59,290.5,355.76,290.58z"/>
	<path fill="#C1272D" d="M364.71,289.59c-0.82,0.109-1.39,0.87-1.28,1.689c0.1,0.75,0.74,1.301,1.48,1.301
		c0.07,0,0.14-0.01,0.2-0.02c0.82-0.111,1.4-0.861,1.29-1.681S365.53,289.48,364.71,289.59z"/>
	<path fill="#C1272D" d="M373.6,288.16c-0.82,0.15-1.35,0.939-1.2,1.75c0.14,0.72,0.77,1.22,1.47,1.22c0.1,0,0.19-0.011,0.29-0.03
		c0.81-0.15,1.34-0.939,1.19-1.75C375.19,288.54,374.41,288,373.6,288.16z"/>
	<path fill="#C1272D" d="M399.36,280.55c-0.76,0.319-1.12,1.2-0.8,1.97c0.25,0.57,0.8,0.91,1.39,0.91c0.19,0,0.39-0.04,0.58-0.119
		c0.76-0.32,1.12-1.201,0.8-1.961C401,280.58,400.12,280.23,399.36,280.55z"/>
	<path fill="#C1272D" d="M407.42,276.689c-0.73,0.391-1,1.301-0.61,2.03c0.27,0.511,0.79,0.79,1.32,0.79c0.24,0,0.49-0.05,0.71-0.17
		c0.73-0.4,1-1.311,0.61-2.04C409.06,276.57,408.15,276.3,407.42,276.689z"/>
	<path fill="#C1272D" d="M320.8,336.91c-0.77,0.279-1.17,1.15-0.88,1.92c0.22,0.609,0.79,0.98,1.4,0.98
		c0.18,0,0.35-0.031,0.52-0.091c0.78-0.29,1.18-1.149,0.89-1.93C322.44,337.02,321.58,336.619,320.8,336.91z"/>
	<path fill="#C1272D" d="M328.41,332.9c-0.66,0.5-0.78,1.439-0.28,2.1c0.29,0.39,0.74,0.59,1.19,0.59c0.32,0,0.64-0.1,0.91-0.3
		c0.66-0.511,0.79-1.45,0.29-2.11C330.01,332.52,329.07,332.4,328.41,332.9z"/>
	<path fill="#C1272D" d="M328.44,301.23c-0.52-0.641-1.47-0.74-2.11-0.221c-0.65,0.51-0.75,1.46-0.23,2.1
		c0.3,0.371,0.73,0.561,1.17,0.561c0.33,0,0.66-0.1,0.94-0.33C328.85,302.82,328.96,301.88,328.44,301.23z"/>
	<path fill="#C1272D" d="M312.94,337.26c-0.78-0.279-1.63,0.13-1.91,0.91c-0.27,0.79,0.14,1.641,0.92,1.92
		c0.16,0.061,0.33,0.08,0.49,0.08c0.62,0,1.2-0.38,1.42-1C314.13,338.39,313.72,337.529,312.94,337.26z"/>
	<path fill="#C1272D" d="M333.68,308.96c-0.4-0.729-1.31-0.99-2.04-0.601c-0.72,0.4-0.99,1.311-0.59,2.041
		c0.27,0.5,0.78,0.779,1.31,0.779c0.25,0,0.49-0.061,0.72-0.18C333.81,310.6,334.08,309.689,333.68,308.96z"/>
	<path fill="#C1272D" d="M337.74,291.292c-0.83,0.011-1.49,0.583-1.48,1.413c0,0.83,0.67,1.295,1.5,1.295s1.5-0.533,1.5-1.363
		C339.25,291.807,338.57,291.282,337.74,291.292z"/>
	<path fill="#C1272D" d="M335.42,325.66c-0.77-0.301-1.64,0.08-1.94,0.85c-0.31,0.77,0.07,1.641,0.84,1.939
		c0.18,0.07,0.37,0.111,0.55,0.111c0.6,0,1.17-0.361,1.4-0.951C336.57,326.83,336.19,325.96,335.42,325.66z"/>
	<path fill="#C1272D" d="M346.76,291.119c-0.82,0.041-1.47,0.701-1.43,1.531c0.04,0.8,0.7,1.35,1.5,1.35c0.02,0,0.04,0,0.07,0
		c0.83,0,1.47-0.68,1.43-1.51C348.29,291.66,347.59,291.08,346.76,291.119z"/>
	<path fill="#C1272D" d="M337.01,318c-0.15-1-0.93-1.42-1.75-1.271c-0.81,0.15-1.35,0.86-1.19,1.681
		c0.13,0.72,0.76,1.255,1.47,1.255c0.09,0,0.18,0.024,0.28,0.015c0.81-0.16,1.35-1.68,1.2-1.68C337.01,318,337.01,318,337.01,318z"
		/>
</g>
<path fill="#C1272D" d="M435.33,255.8c-0.39,0-0.78-0.16-1.06-0.44c-0.28-0.279-0.44-0.66-0.44-1.06c0-0.39,0.16-0.78,0.44-1.06
	c0.56-0.561,1.57-0.561,2.12,0c0.28,0.279,0.44,0.67,0.44,1.06c0,0.399-0.16,0.78-0.44,1.06
	C436.11,255.64,435.73,255.8,435.33,255.8z"/>
<circle fill="#C1272D" cx="320.584" cy="295.568" r="1.539"/>
<circle fill="#C1272D" cx="429.584" cy="261.568" r="1.539"/>
<g>
	<g>
		<rect x="788" y="172" opacity="0.31" fill="#F4F3E6" width="56" height="15"/>
		<path opacity="0.31" fill="#F4F3E6" d="M852.794,149H839.82c-0.554,0-2.735-0.673-3.468-1.476
			c-6.062-6.639-9.932-10.524-12.576-10.524h-31.407c-2.824,0-4.369,1.631-4.369,4.455v6.486v3.414V170h56v-15.231
			c0-1.122-1.313-2.769-2.149-2.769h10.943c0.942,0,1.706-0.557,1.706-1.5S853.736,149,852.794,149z M790,152v-10.545
			c0-0.941,1.096-1.707,2.037-1.707l31.525-0.003c1.62,0.269,7.222,6.635,10.186,9.882c0.649,0.711,1.361,1.373,1.963,2.373H790z"/>
		<path opacity="0.3" fill="#F4F3E6" d="M762,152v85h22v-85H762z M782,167.741c0,0.755-0.746,1.366-1.5,1.366s-1.5-0.611-1.5-1.366
			v-8.876c0-0.754,0.746-1.365,1.5-1.365s1.5,0.611,1.5,1.365V167.741z"/>
		<path opacity="0.31" fill="#F4F3E6" d="M788,191v46h51.82c1.887,0,4.18-1.828,4.18-3.713V191H788z M821.727,218h-8.875
			c-0.754,0-1.365-0.746-1.365-1.5s0.611-1.5,1.365-1.5h8.875c0.755,0,1.366,0.746,1.366,1.5S822.481,218,821.727,218z M821.727,209
			h-8.875c-0.754,0-1.365-0.246-1.365-1c0-0.754,0.611-1,1.365-1h8.875c0.755,0,1.366,0.246,1.366,1
			C823.093,208.754,822.481,209,821.727,209z"/>
		<path opacity="0.3" fill="#F4F3E6" d="M747.146,152l-17.606-7.034c-0.88-0.339-1.869-0.062-2.208,0.817
			c-0.338,0.88,0.099,1.787,0.979,2.126l13.173,5.009c-0.361,0.542-0.483,1.15-0.483,1.85v12.016l-5.776-6.735l-15.2-5.848
			c-0.879-0.339-1.889,0.1-2.228,0.978c-0.34,0.88,0.088,1.868,0.967,2.208l14.421,5.534l7.816,9.156v61.21
			c0,1.885,1.349,3.713,3.233,3.713H760v-85H747.146z M756,167.741c0,0.755-0.746,1.366-1.5,1.366s-1.5-0.611-1.5-1.366v-8.876
			c0-0.754,0.746-1.365,1.5-1.365s1.5,0.611,1.5,1.365V167.741z"/>
	</g>
	<g>
		<rect x="788" y="172" opacity="0.31" fill="#F4F3E6" width="56" height="15"/>
		<path opacity="0.31" fill="#F4F3E6" d="M852.794,149H839.82c-0.554,0-2.735-0.673-3.468-1.476
			c-6.062-6.639-9.932-10.524-12.576-10.524h-31.407c-2.824,0-4.369,1.631-4.369,4.455v6.486v3.414V170h56v-15.231
			c0-1.122-1.313-2.769-2.149-2.769h10.943c0.942,0,1.706-0.557,1.706-1.5S853.736,149,852.794,149z M790,152v-10.545
			c0-0.941,1.096-1.707,2.037-1.707l31.525-0.003c1.62,0.269,7.222,6.635,10.186,9.882c0.649,0.711,1.361,1.373,1.963,2.373H790z"/>
		<path opacity="0.3" fill="#F4F3E6" d="M762,152v85h22v-85H762z M782,167.741c0,0.755-0.746,1.366-1.5,1.366s-1.5-0.611-1.5-1.366
			v-8.876c0-0.754,0.746-1.365,1.5-1.365s1.5,0.611,1.5,1.365V167.741z"/>
		<path opacity="0.31" fill="#F4F3E6" d="M788,191v46h51.82c1.887,0,4.18-1.828,4.18-3.713V191H788z M821.727,218h-8.875
			c-0.754,0-1.365-0.746-1.365-1.5s0.611-1.5,1.365-1.5h8.875c0.755,0,1.366,0.746,1.366,1.5S822.481,218,821.727,218z M821.727,209
			h-8.875c-0.754,0-1.365-0.246-1.365-1c0-0.754,0.611-1,1.365-1h8.875c0.755,0,1.366,0.246,1.366,1
			C823.093,208.754,822.481,209,821.727,209z"/>
		<path opacity="0.3" fill="#F4F3E6" d="M747.146,152l-17.606-7.034c-0.88-0.339-1.869-0.062-2.208,0.817
			c-0.338,0.88,0.099,1.787,0.979,2.126l13.173,5.009c-0.361,0.542-0.483,1.15-0.483,1.85v12.016l-5.776-6.735l-15.2-5.848
			c-0.879-0.339-1.889,0.1-2.228,0.978c-0.34,0.88,0.088,1.868,0.967,2.208l14.421,5.534l7.816,9.156v61.21
			c0,1.885,1.349,3.713,3.233,3.713H760v-85H747.146z M756,167.741c0,0.755-0.746,1.366-1.5,1.366s-1.5-0.611-1.5-1.366v-8.876
			c0-0.754,0.746-1.365,1.5-1.365s1.5,0.611,1.5,1.365V167.741z"/>
	</g>
</g>
<g>
	<g>
		<polygon fill="#F4F3E6" points="862,112.657 862,112.956 862,113.794 862,298.569 957.49,318.307 958.02,320.637 969,322.854 
			969,134.854 		"/>
		<polygon opacity="0.2" fill="#3A7700" points="963,321.686 916.266,312.024 909.495,128.442 963,140.7 		"/>
		<polygon fill="#7FBF00" points="957,328.64 910.446,315.484 910.279,129.398 957,143.52 		"/>
		<polygon opacity="0.2" fill="#3A7700" points="954,329.895 865.721,298.324 864.589,115.869 954,147.278 		"/>
		<polygon fill="#3A7700" points="912,135.532 912,131.773 934.083,144.303 		"/>
		<polygon fill="#7FBF00" points="948,335.218 859.9,299.51 858.68,114.179 948,150.097 		"/>
		<path fill="#F4F3E6" d="M959,143.411l-49.617-14.969l0.066,5.434l-48.445-19.47l-1.166,2.573L947,151.99v35.821l3,1.283v-39.011
			l-27.421-14.719L956,145.507v182.213l-6-1.842V215.406l-3,1.054v117.607l-8.266-3.353l0.058,3.033l11.208,4.5v-9.441l9,2.631
			V143.411z M912,135.008v-2.589l18.456,10.001L912,135.008z"/>
		<polygon opacity="0.2" fill="#3A7700" points="944,335.969 860.721,301.271 858.094,116.802 944,154.796 944,181.674 955,187.093 
			955,211.479 944,215.945 		"/>
		<polygon fill="#A4BF00" points="940,341.796 856.371,301.389 854.782,115.675 940,156.675 940,183.554 950,188.972 950,213.359 
			940,217.824 		"/>
		<polygon fill="#F4F3E6" points="941,183.641 941,156.729 856.401,115.928 854.871,118.168 939,158.501 939,185.346 949,190.765 
			949,213.372 939,217.838 939,340.488 930,336.402 930,339.533 941,344.982 941,219.69 952,215.225 952,189.06 		"/>
		<polygon opacity="0.2" fill="#3A7700" points="936,342.258 856.016,303.559 854.754,118.534 936,162.313 		"/>
		<polygon fill="#7FBF00" points="930,349.313 850,302.328 850,117.208 930,164.193 		"/>
		<g>
			<polygon fill="#F4F3E6" points="852.674,117.658 850.093,119.532 929,165.938 929,347.789 921,342.814 921,346.084 932,352.717 
				932,164.326 			"/>
		</g>
		<polygon opacity="0.2" fill="#3A7700" points="925,348.848 850,303.33 850,119.871 925,169.831 		"/>
		<polygon fill="#7FBF00" points="921,356.831 846,303.268 846,121.663 847.846,119.525 921,171.71 		"/>
		<g>
			<polygon fill="#F4F3E6" points="848.02,118.635 846.339,120.897 920,173.376 920,355.035 911,349.01 911,352.471 923,360.506 
				923,171.924 			"/>
		</g>
		<polygon opacity="0.2" fill="#3A7700" points="915,355.149 844.576,304.093 844.715,120.883 915,175.469 		"/>
		<polygon opacity="0.2" fill="#3A7700" points="954,326.932 954,329.895 950,328.807 950,325.879 		"/>
		<polygon fill="#F4F3E6" points="845.649,121.776 865.393,115.989 861.581,112.7 838.828,120.029 838.838,304.864 912,366.434 
			912,177.632 		"/>
	</g>
	<path fill="#BDBD9F" d="M855.553,256.029c-0.541,0-1.088-0.154-1.571-0.48l-7.095-4.773c-1.293-0.869-1.635-2.621-0.766-3.912
		c0.869-1.292,2.622-1.635,3.913-0.766l7.095,4.773c1.293,0.869,1.635,2.621,0.766,3.913
		C857.351,255.594,856.46,256.029,855.553,256.029z"/>
	<path fill="#BDBD9F" d="M855.553,207.702c-0.541,0-1.088-0.156-1.571-0.48l-7.095-4.774c-1.293-0.869-1.635-2.621-0.766-3.913
		c0.869-1.292,2.622-1.635,3.913-0.766l7.095,4.774c1.293,0.869,1.635,2.621,0.766,3.913
		C857.351,207.265,856.46,207.702,855.553,207.702z"/>
</g>
<path fill="#A4BF00" d="M1000.205,124.789c-17.969,0.963-19.458,2.453-20.421,20.416c-0.008,0.156-0.237,0.156-0.246,0
	c-0.959-17.962-2.449-19.453-20.41-20.416c-0.156-0.008-0.156-0.238,0-0.247c17.961-0.96,19.451-2.448,20.41-20.415
	c0.009-0.156,0.238-0.156,0.246,0c0.963,17.967,2.452,19.454,20.421,20.415C1000.36,124.551,1000.36,124.781,1000.205,124.789z"/>
<g>
	<path fill="#6AA200" d="M1002.999,161.906c-2.906,0-5.27-2.365-5.27-5.271s2.363-5.27,5.27-5.27s5.271,2.364,5.271,5.27
		S1005.905,161.906,1002.999,161.906z"/>
	<circle fill="#FFFFFF" cx="1002.999" cy="156.636" r="1.97"/>
</g>
<circle fill="#7FBF00" cx="968.133" cy="150.666" r="2.866"/>
</svg>
