<svg xmlns="http://www.w3.org/2000/svg" xmlns:xlink="http://www.w3.org/1999/xlink" viewBox="0 0 1000 500"><defs><linearGradient id="a" x1="20.7" x2="21.7" y1="769.7" y2="769.7" gradientTransform="rotate(47.8 7598.8 3645.3) scale(8.92)" gradientUnits="userSpaceOnUse"><stop offset="0" stop-color="#f6b98a"/><stop offset="1" stop-color="#f4c6a6"/></linearGradient><linearGradient id="d" x1="-42.5" x2="-41.5" y1="710" y2="710" gradientTransform="rotate(-134 -540.4 1573.3) scale(4.22)" xlink:href="#a"/><linearGradient id="b" x1="-9.6" x2="-8.6" y1="748" y2="748" gradientTransform="scale(24.81 -24.81) rotate(72.8 518.3 381.4)" gradientUnits="userSpaceOnUse"><stop offset="0" stop-color="#414042"/><stop offset="1" stop-color="#313032"/></linearGradient><linearGradient id="e" x1="24.5" x2="25.5" y1="762.9" y2="762.9" gradientTransform="scale(-9.14 9.14) rotate(64.2 574 351.2)" xlink:href="#b"/><linearGradient id="f" x1="131.2" x2="132.2" y1="675.3" y2="675.3" gradientTransform="matrix(.82 1.42 1.42 -.82 -812.8 809.1)" xlink:href="#b"/><linearGradient id="c" x1="-1.1" x2="-.1" y1="753.1" y2="753.1" gradientTransform="rotate(-26.4 -167469.2 39135.2) scale(104.91)" gradientUnits="userSpaceOnUse"><stop offset="0" stop-color="#436280"/><stop offset="1" stop-color="#294a66"/></linearGradient><linearGradient id="g" x1="-9.6" x2="-8.6" y1="748" y2="748" gradientTransform="scale(24.82 -24.82) rotate(72.3 522.5 380.7)" xlink:href="#b"/><linearGradient id="h" x1="24.4" x2="25.4" y1="763.1" y2="763.1" gradientTransform="matrix(-4.05 8.2 8.2 4.05 -5853.4 -2952)" xlink:href="#b"/><linearGradient id="i" x1="131.8" x2="132.8" y1="676.4" y2="676.4" gradientTransform="matrix(.81 1.43 1.43 -.81 -843 810)" xlink:href="#b"/><linearGradient id="j" x1="4.7" x2="5.7" y1="745.5" y2="745.5" gradientTransform="rotate(139.8 4813 13034.7) scale(34.45)" xlink:href="#c"/><linearGradient id="k" x1="-43.6" x2="-42.6" y1="711.2" y2="711.2" gradientTransform="rotate(-132.3 -583.4 1584.7) scale(4.22)" xlink:href="#a"/><linearGradient id="l" x1="24.6" x2="25.6" y1="764.1" y2="764.1" gradientTransform="scale(8.93) rotate(61.9 630.5 397.4)" xlink:href="#a"/><clipPath id="m"><path fill="none" d="M615.4 6.2h16.2v60.3h-16.2z"/></clipPath><clipPath id="n"><path fill="none" d="M635.5 92.8h22v84.7h-22z"/></clipPath></defs><title>Reasonable Accommodation Requirements for Employees under California Law</title><path fill="#007bc2" d="M1000 436.4H0V0h1000z"/><path fill="#b395dd" d="M1000 500H0V380h1000z"/><path fill="#fff" d="M0 373.1h1000v10H0z"/><ellipse cx="737.8" cy="421.7" fill="#c2a9e4" rx="260.7" ry="30"/><ellipse cx="186.1" cy="452.2" fill="#fff" fill-opacity=".2" rx="138.9" ry="36.4"/><path fill="#010101" d="M282.4 442.2c-1.7-7.4-7.6-12.9-14.5-12.9a68.8 68.8 0 008.7-34c0-26.5-14.4-49.3-34.8-58.3l.7.1s3.3-3.8 0-11l-1.3-2.7a13.8 13.8 0 013.4 1.7s1.5 3.2 4.1 2a1.6 1.6 0 002.7-.8s1.4-1.3 1.3-2.3-10.6-6.7-14.5-9.5a2.5 2.5 0 00-1.6-.6 2 2 0 00-1 .2h.2c-2.7 1-8.4 3.1-11.2 3.4a3.8 3.8 0 00-.3-1.2l-2.5-1.2a94.1 94.1 0 00-43.4-16.3v-.1a186.4 186.4 0 00-12.8-47.2 63.9 63.9 0 00-4.1-8.6 63.7 63.7 0 00-3.5-6 8.1 8.1 0 00-2-1.8 41.6 41.6 0 00-6.6-6.4l-2.2-2.2-2.3-2.1c-.7-2.7-1.9-6.9-3.3-8.3v-3.2a30 30 0 007.4-17.4v-1l.2.1c1.4.4 3.4-2.3 4.4-6h-.1c.7-3.7.3-7-1.3-7.4a2 2 0 00-2 .9l.4-2 4.6-20.4-3.8 2.4-.2-.2 2.8-8-6.5 2 2.6-4-8 1.5 4-3a54 54 0 00-13 1.5l-1.5.3-17.2 3.8-.8 3.2-4.3-2.3 2 18c.1 2.5.4 5 .7 7.4-.7-.8-1.4-1.2-2-1-1.6.4-2 3.7-1.3 7.4 1 3.5 2.8 6.1 4.3 6 0 6 2.6 11.7 5.4 16v.1l-.8-.1h-.2l-4.5 9.1.8.4-2.7 5.8a10.5 10.5 0 00-1.8 2L97.6 226l2 11.7h.6a26.3 26.3 0 00-3.7 9.2 61.7 61.7 0 001.2 11.7l-8 1-4.4-23.9-10.9-1.3v-1.3l-24-3.8 2 11.6h22v-1l5.3.3L100.2 355a65 65 0 00-2.5 2.7l-.9.6.2.2A74.1 74.1 0 0079.7 407c0 38 26.8 68.8 59.8 68.8a58.2 58.2 0 0050-31 54 54 0 006.6 5.2l1.1 12.6 5.6 1.5 1.1.4a19.2 19.2 0 00-.7 5c0 9.5 6.7 17 15 17 7 0 13-5.4 14.6-12.8l6.5 2.1 22.5-13.6a13.4 13.4 0 006.1 1.5c7.4 0 13.6-6.2 14.8-14.1l6.6-4v-2.7zM91.2 406.9a66 66 0 011.2-12.1l38.5 11-38.7 12.4a67.5 67.5 0 01-1-11.3zm91.3 9.3a55.8 55.8 0 01-2-6.8l5.4-1.8a67.7 67.7 0 01-.7 9.3zm-.3-31.2a65 65 0 011.2 3.8l-4.2 1.4c.1-2 .4-4 .7-5.8zm-3.5 10.3h.2v-.6l5.5-1.7a65.6 65.6 0 011.4 10.8l-6.2 2a59.9 59.9 0 01-.9-10.5zm-6-23.9a70.9 70.9 0 00-4 22.2l-24.7 8 22.9-30.4zm22 8.8l-.7-8 6 .2a92.6 92.6 0 00.3 14l-4-1.2-1.6-5zm-40.3-9.4l7.2.2-21.4 28.3v-29zm14 27.3a70.8 70.8 0 002.1 14.6l-25.1-7.2zm29-8.8l3.5 1c.4 2.6.8 5.3 1.4 8.2l-3.3 1a78.3 78.3 0 00-1.6-10.1zm49 47.7a39.6 39.6 0 01-16.7 8.4l-.1-.4 1-.2-3.6-39a329.4 329.4 0 0019.5 31.2zm-6.6-54l-.8-9 12-16a53 53 0 0111.4 21l-21.7 7-1-3zm-1.3-14.5l-2-21a42 42 0 0111.9 7.9zm-4-2.8L228 345a36.4 36.4 0 013.8.9zm-98.6 4.5v29.6L111 369.3zm0 42V463a43.6 43.6 0 01-28.2-13.5zm-31.2 34.1A59 59 0 0193 422.4l39.4-12.6zm67.1-28.9a65.5 65.5 0 008.2 16.7 57 57 0 01-7 11.3l-29.2-36zm27.4-14l3.8-1.3c.7 3 1.6 6.3 2.6 9.7l-7.7 10.4a79.1 79.1 0 001.4-15.3v-3.6zm46.7-.1l17.4 5a54.3 54.3 0 01-9.8 21.4c-1.7-6.4-4.5-16-7.6-26.5zm-1.3-4.3c-1-3-1.9-6.2-2.8-9.4l21.6-7a59.3 59.3 0 011.3 12.7 60 60 0 01-.7 9.2zm-35-64.2h-.2l-2.2-2.2 7.8 1a46.5 46.5 0 00-5.4 1.1zM105.4 369l26.7 32.8-38.9-11.1a59.4 59.4 0 0111.3-22.9zm34.8 42.7l30.1 37c-8 8.6-18.5 14-30 14.4zm54.5 21.9l.1 1.5-.5-.5zm3.5-5.8l8.9-11.7a160.8 160.8 0 0012.1 26.7v3.5a38.3 38.3 0 01-20.2-7.7zm1.8 24.3a48.7 48.7 0 009.2 3.8 16.2 16.2 0 00-2.3 2.4l-6.2 2.2z" opacity=".3"/><path fill="#7b7979" d="M251 445.4c0 9.5 6.5 17.2 15 17.2 8.1 0 15-7.7 15-17 0-9.6-6.9-17.3-15-17.3-8.5 0-15 7.7-15 17"/><path fill="#515151" d="M254.4 445.4c0 7.2 5 13 11.4 13 6.2 0 11.3-5.8 11.3-13 0-7-5-13-11.4-13s-11.5 6-11.5 13"/><path fill="#cbcbcb" d="M257 445.4c0 5.7 4 10.2 9 10.2 4.7 0 8.7-4.5 8.7-10 0-5.8-4-10.3-9-10.3-4.8 0-8.8 4.5-8.8 10"/><path fill="#7b7979" d="M287.3 444.4v-2.7l-88.6 17.8v2.8l38.6 12.4 50-30.3z"/><path fill="#a8a8a8" d="M287.3 441.7l-32.8-2.6-55.8 20.4 37.6 11zm-135.8-96.4l-21.2-113.8-20.6-2.5v6.3l15 .7 20.7 115.7 6-6.3z"/><path fill="#a8a8a8" d="M151.5 345.3l-21.2-113.8-20.6-2.5v6.3l15 .7 20.7 115.7 6-6.3z"/><path fill="#747474" d="M119.5 229v8h-22l-2-11.8 24 3.8z"/><path fill="#a8a8a8" d="M104.4 348.6L83.2 235l-20.6-2.6v6.2l15 .7L98.3 355l6-6.3z"/><path fill="#4d4d4d" d="M175.5 334.3l-12.6-85-79.7 10L103.4 368l98 3.5 12-23.7-38-13.4z"/><path fill="#666" d="M175.5 334.3l-72 33.7 97.8 3.5 12-23.7z"/><path fill="#e6e6e6" d="M104.4 348.6L83.2 235l-20.6-2.6v6.2l15 .7L98.3 355l6-6.3z"/><path fill="#7b7979" d="M217.2 448.7h4v-111h-4z"/><path fill="#7b7979" d="M183.5 437.3l3.2 2 68.2-90-3.2-2-68.2 90.1z"/><path fill="#7b7979" d="M173 406.2l1.2 3.5 95.5-30.8-1.3-3.6-95.5 31z"/><path fill="#7b7979" d="M171.4 377.6l-1 3.6 99.3 28.4 1.2-3.6-99.5-28.3z"/><path fill="#7b7979" d="M185 348.1l-3 2.3 71.4 88 3.2-2.4-71.6-87.8z"/><path fill="#7b7979" d="M177 394.3c0-28 19-51 42.7-51s43 23 43 51c0 28.2-19.3 51-43 51s-43-22.8-43-51m-5.4 0c0 31.3 22 56.6 49.2 56.6s49.2-25.3 49.2-56.6-22-56.6-49.2-56.6c-27 0-49.2 25.3-49.2 56.6"/><path fill="#63554d" d="M172.4 394.3c0-31 21-56 47.2-56 26 0 47.2 25 47.2 56s-21.2 56-47.3 56-47.2-25-47.2-56m-6 0c0 34.4 24.2 62.4 54 62.4 30 0 54.3-28 54.3-62.4s-24.2-62.4-54-62.4-54 28-54 62.4"/><path fill="#2b0000" d="M133.2 238.4c-.2 32 30.2 72.5 30.2 72.5 4.7-2.3 10.8-6.6 13-13.2C170.5 257 156 236 156 236c-3.2-3.8-3.6-1.4-4.4 1-.6 1.8-1.3 3.5-3.4 2.7-3.3-1.2-4.8-12-6.8-12.4h-.5c-5 0-7.7 11.2-7.7 11.2"/><path fill="#f7ddc5" d="M114.6 218.7s16.7 10.4 21 9.6c4-.7 4.3-5.6 4.3-5.6l-.8-16-19-16.6z"/><path fill="#f7ddc5" d="M116.3 210.5l3.7-20.4 19.2 16.7.3 6.6c-3.6-2.6-11-6-23-3"/><path fill="#c5e0de" d="M134.2 218.1c-2.6 1 .7 6.7.7 6.7 1.4 6.3 6.7 17 6.7 17l6-13.7c-5.3-5.6-8.2-7.4-8.2-7.4a37.6 37.6 0 010-6c-1 .3-3.7 2.6-5.2 3.2"/><path fill="#d6e9e8" d="M111.7 219l-3.2 7s25 14 33 16c0 0-3.4-12.4-6.5-17.7l-.7-6.2-5.6-4-13.4-4.4-3.5 9.3z"/><path fill="#5f8dd3" d="M133.2 225.2l4.5-.7 9.2 20-10.7 4.3z"/><path fill="#3771c8" d="M129 218.4c3.4-.2 7-.3 10.4-.2.2 2.3 1.2 4.5 0 7.4a9.7 9.7 0 01-7.2.7c-2.2-2.4-2.4-5.2-3.2-8z"/><path fill="#bdd7d5" d="M127.6 228l6.7-9.9a29.2 29.2 0 00-5.6-3.8 51.6 51.6 0 00-13.5-4.6l-4.4 9.2z"/><path fill="#e6e6e6" d="M140 310.4l92.1 8.7 6 67-3.4-4.7-7.6-56.5-87-8v-6.5z"/><path fill="#ee6f2c" d="M171.6 310.4s-4.7-.8-5.8 6.6c-1.2 7.6 1.2 9 3.7 9.6s71 9.5 71 9.5 3.3-3.8 0-11-4.5-5.8-4.5-5.8l-64.5-8.7z"/><path fill="url(#a)" d="M233.8 313.1c-3 1-9.3 3.5-11.8 3.5 0 0-2 .5 0 6 0 0 1.5 2.8 3.7 3.3s4.8.6 6.1-3l2.9-2s7 2.2 8 3.2c0 0 1.4 3.3 4 2a1.6 1.6 0 002.7-.7s1.4-1.3 1.3-2.4-10.6-6.6-14.5-9.5a2.5 2.5 0 00-1.6-.6 2 2 0 00-1 .2"/><path fill="#2b0000" d="M163.3 310.6c19.8 15.2 57.3 9.8 57.3 9.8a5.3 5.3 0 001.5-4.5c-22-17.3-48.8-18.3-48.8-18.3-7.4 5-3.8.7-10 13"/><path fill="url(#d)" d="M226.8 325.7a9.2 9.2 0 015.1 1s5.6 1.2 5.8-1.3l-5.6-3.4s-6.1 1-5.7 3.6"/><path fill="#39b4bc" d="M222.2 315.4l-2.5-1.3a10.8 10.8 0 01-2 6.4 8 8 0 004 .3s1.6-3.3.5-5.5"/><path fill="url(#b)" d="M247 439.2a.3.3 0 00-.3.2c-.5.7-2.4 3.6-.8 9.8 0 0 9.9-.6 16.3-1.7s16-3.8 17.4-5.6c0 0 0-2.3-7.4-1.8-3.3.2-6.8 1.2-9.9 0-2.4-.8-5.7-2-8.9-2.7l-6.3 1.8z"/><path fill="#39b4bc" d="M244.6 434.3l2.4 5.2a4 4 0 002.8.4c1-.3 1.6-1.5 3-2 0 0 .2 0 .3-.3v-.5L251 433l-6 1.4z"/><path fill="url(#e)" d="M272.8 439.8l-4.8.8c0 .4-.2 4.6-2 6.2 0 0 10.8-1.5 14-4.8 0 0-.6-2-4.8-2h-2.4m-4.8.8"/><path fill="url(#f)" d="M262.4 440.8a4.4 4.4 0 01-3.1 2 8.8 8.8 0 00-5.1 3.4 6.1 6.1 0 00-.4 2.4h.7a3.7 3.7 0 01.6-2c.6-1.4 2-2.4 4.4-3.1a4.7 4.7 0 003.5-2.4l.3-.6a1 1 0 01-.7-.2.8.8 0 01-.2.5"/><path fill="#2d2c2e" d="M246 449a4 4 0 00.1 2 .5.5 0 00.5.4 37.6 37.6 0 007.8-1l-.2-1s10-.3 16.6-2a22.8 22.8 0 009.2-4.7c.3-.2.3-.5 0-.8l-.3-.5s-5.7 6.5-34 7.5"/><path fill="#8790b3" d="M254.5 441c-.2 0-.2 0-.2-.3a7.5 7.5 0 011.6-2.7h.3v.3a11.5 11.5 0 00-1.6 2.6m1.3.3c-.2 0-.3 0-.3-.2a5.8 5.8 0 011.5-2.5h.3v.3a6.3 6.3 0 00-1.4 2.4m1.1.3c-.2 0-.3 0-.3-.2a5.4 5.4 0 011.4-2.6h.2v.3a4.6 4.6 0 00-1.3 2.4v.2"/><path fill="url(#c)" d="M145.7 357.5c13.3 5.9 62.3 3 62.3 3 4 30.9 36.6 75.6 36.6 75.6 6 0 8.5-1.7 8.5-1.7-3.6-15.3-29.3-97.7-29.3-97.7-22.4-5.3-76.6-9.8-76.6-9.8s-31.7 17-1.4 30.7"/><path fill="url(#g)" d="M221.9 448.8a.4.4 0 00-.3.2c-.6.6-2.5 3.6-1 9.8 0 0 9.9-.6 16.3-1.6s16-3.8 17.4-5.5c0 0 .2-2.3-7.4-1.9-3.2.2-6.8 1.3-9.8 0a74.5 74.5 0 00-8.9-2.8l-6.4 1.8z"/><path fill="#39b4bc" d="M219.5 444l2.4 5a3.4 3.4 0 002.6.3c1-.3 1.7-1.7 3-2a.5.5 0 00.5-.7l-.8-4.7-7.6 1.6z"/><path fill="url(#h)" d="M247.4 449.7l-4.7.6c0 .6-.2 4.6-2 6.2 0 0 11-1.5 14.3-4.7 0 0-.8-2.3-5-2.3a10.5 10.5 0 00-2.5.2m-4.7.6"/><path fill="url(#i)" d="M237.2 450.4a4.3 4.3 0 01-3 2c-2.6.8-4.3 1.9-5.1 3.4a6 6 0 00-.6 2.4h.7a4.7 4.7 0 01.6-2c.6-1.2 2-2.3 4.3-2.9a5.6 5.6 0 003.6-2.4l.2-.8h-.6s0 .3-.2.4"/><path fill="#2d2c2e" d="M220.5 458.4a7.9 7.9 0 00.3 2c0 .4.2.5.5.5a31 31 0 007.7-1l-.2-.8s10.2-.3 16.7-2a22.5 22.5 0 009.3-4.5.5.5 0 000-.8l-.3-.6s-5.7 6.4-34 7"/><path fill="#8790b3" d="M229.3 450.5c-.2 0-.2 0-.2-.2a7.7 7.7 0 011.7-2.7c.2 0 .2.2 0 .2a6.3 6.3 0 00-1.4 2.5h-.2m1.4.6l-.2-.3a6 6 0 011.5-2.6h.3v.4a6.3 6.3 0 00-1.4 2.4h-.3m1.4.3c-.2 0-.3 0-.2-.2a5.4 5.4 0 011.4-2.6h.3v.3a4.7 4.7 0 00-1.4 2.4v.2"/><path fill="url(#j)" d="M131.8 339s-3.3 15.4 18.2 22.9l48.7 4.1s-6.7 33.7 20.6 79.5l9.2-1.6-8.5-94-54.2-19-34.1 8.2z"/><path fill="#500" d="M102.5 234.2c-5 14.6-.5 43.5-.5 43.5 13 11.3 25.3 63 25.3 63 31.3 3.8 41.7-5.5 41.7-5.5 1.5-26.4-4-50.6-4.3-55-.3-2.8.4-11 1-16.3a25.7 25.7 0 00-1.3-11c-7-20-19.2-26.7-19.2-26.7.3 5-3.8 12.6-3.8 12.6l-32.8-13-6 8.3z"/><path fill="#39b4bc" d="M109.1 225s-2.7 2-3 4.2c0 0 23 11.6 37.8 15.6 0 0 3.6-11.4 3.6-17l-2.4-2.3-4.8 11.2s-19-6.4-31.2-12"/><path fill="#bdd7d5" d="M134.3 218.1l9 7.6s-1.7-9-4-10.8z"/><path fill="#efebe9" d="M125 294.6c5.5 22.7 10 43.3 26.1 46.3a92.6 92.6 0 01-24-.3s-12.4-51.6-25.2-63c0 0 0-12.4-.7-29.8 7.6 10.6 19 28.6 23.6 46.7"/><path fill="#747474" d="M72.3 232.3v7.8h-22l-2-11.6z"/><path fill="#e6e6e6" d="M96.6 316.4l92 8.7 10 134.4 5 1.4-.8 2.6-7.6-2L183.7 331l-87-8v-6.5z"/><path fill="#ccc" d="M134 466h4.2V343.4H134z"/><path fill="#ccc" d="M96.6 453.3l3.6 2.4 75.3-99.7-3.6-2.3-75.3 99.7z"/><path fill="#ccc" d="M85 419l1.3 4L192 389l-1.5-4z"/><path fill="#ccc" d="M83.2 387.4l-1.2 4 110 31.3 1-4-109.7-31.3z"/><path fill="#ccc" d="M98.3 355l-3.5 2.4 79 97 3.4-2.5-79-97z"/><path fill="#ccc" d="M89.2 406c0-31 21.2-56.4 47.4-56.4 26 0 47.3 25.2 47.3 56.3s-21.2 56.2-47.3 56.2-47.4-25-47.4-56.2m-6 0c0 34.5 24.3 62.5 54.3 62.5s54.3-28 54.3-62.5-24.4-62.5-54.4-62.5-54.3 28-54.3 62.5"/><path fill="#63554d" d="M84.4 406c0-34.3 23.3-62 52-62 29 0 52.2 27.7 52.2 62s-23.3 62-52 62c-29 0-52.2-27.9-52.2-62m-6.7 0c0 38 26.8 68.7 59.8 68.7s59.8-30.8 59.8-68.8-26.8-68.8-59.8-68.8S77.7 368 77.7 406"/><path fill="url(#k)" d="M188.4 334s3-.7 5 .6c0 0 5.6 1.3 6-1l-4-3.7a4.4 4.4 0 00-1.7.4c-2 .6-5.6 1.9-5.3 3.7"/><path fill="#ee6f2c" d="M128.2 316.4s-4.7-.8-5.8 6.6c-1 7.6 1.3 9 3.8 9.6s71 9.5 71 9.5 3.3-3.8 0-11c-3-7.2-4.4-5.8-4.4-5.8l-64.7-8.7z"/><path fill="url(#l)" d="M191.8 332l3-1.3c2.3 1.5 4.6 2.5 6.7 4.3a15.6 15.6 0 013.7 3.7s1.6 2 3 0c0 0 1.4-.8 1.7-1.8s-8.7-9.2-11.8-12.8a3.1 3.1 0 00-2.5-1c-3 .4-9.6 1.3-12.2.5-.4 0-1.5 1-1.5 4.3 3 2.9 5 4.4 9.9 4.1z"/><path fill="#2b0000" d="M124.5 318.2c19.8 15.2 57.4 9.7 57.4 9.7a4.8 4.8 0 001.4-4.4c-22-17.3-48.8-18.3-48.8-18.3-7.4 5-3.8.7-10 13"/><path fill="#2b0000" d="M105.2 230.5c-9 4.3-10.8 15.6-10.8 15.6-.2 31.8 30 72.4 30 72.4 4.8-2.3 11-6.6 13.2-13.2-6-40.7-20.5-61.7-20.5-61.7-4.2-7.2-9.3-13.2-11.5-13.2h-.4"/><path fill="#39b4bc" d="M183.4 323l-2.5-1a10.6 10.6 0 01-2 6.3 8 8 0 004 .3s1.6-3.2.5-5.4"/><path fill="#7b7979" d="M201.2 468.4c0 9.5 6.7 17 15 17s15-7.5 15-17-6.7-17-15-17-15 7.6-15 17"/><path fill="#515151" d="M205 468.4c0 7.2 5 13 11.2 13s11.4-5.8 11.4-13c0-7-5-13-11.4-13s-11.4 6-11.4 13"/><path fill="#cbcbcb" d="M207.3 468.4c0 5.6 4 10.2 9 10.2 4.8 0 8.8-4.6 8.8-10.2s-4-10.2-9-10.2c-4.8 0-8.8 4.6-8.8 10.2"/><path fill="#6b779b" d="M132.1 156.7a3 3 0 011 .3 1.8 1.8 0 01-1-.2"/><path fill="#f6ccbf" d="M106.6 187.7c1 3.7 3 6.4 4.5 6s2-3.7 1.2-7.4c-1-3.7-3-6.4-4.4-6-1.6.4-2 3.7-1.3 7.4m45 0c-1 3.7-3 6.4-4.5 6-1.6-.4-2.2-3.7-1.3-7.4s2.8-6.4 4.3-6 2 3.7 1.3 7.4"/><path fill="#f7ddc5" d="M147 164.1v30.4c0 10-9.6 20.2-12 22-1.6 1.2-8.9 2-12 .2-3-1.7-12-11.7-12-23v-29.6l34.4-4.2 1.4 4.2z"/><path fill="#855333" d="M149.1 161l2.8-8-6.5 2 2.6-4-8 1.4 4-3a54 54 0 00-13 1.5l-1.5.3-17.2 3.8-.8 3.2-4.3-2.3 2 18c.3 4.7.8 9.7 2 13 .2-5 3-10.8 3-10.8s-2-6-1.4-8.4a60.3 60.3 0 0016 3 53.7 53.7 0 0015.5-2.7c1.4 3-1.2 8.4-1.2 8.4s3.3 6.6 4 10.7c0 0 .8-3.5 1.4-8l4.6-20.4-3.8 2.4z"/><path fill="#76492c" d="M148.1 166.2l-3.3.6.5-5-5.5 3.2 3.8-8.3-7.5 4.6.7-4.3c-3.6 0-14.3 8-19 12a66 66 0 0010.8 1.4 55.5 55.5 0 0015.5-2.6 6.3 6.3 0 01.4 3l3.5-4.7"/><path fill="#855333" d="M147 187s0 12-4.9 14.7c-.6-1.3-2.6-4.8-4-5a21 21 0 00-8 0 1.5 1.5 0 000 1.8c.4.5 6.6.4 7.3.8a7 7 0 012 4.4c-.8 3-3.5 9.3-10.5 9.3-6.5 0-9.3-5.5-10.3-8.5.3-3 1.5-4.8 2-5 1-.5 7-.4 7.5-1 .4-.4.2-1.5 0-1.8s-6.3-.4-8 0-3.6 4-4.2 5.3c-5-2.8-5-15-5-15v6.8c0 11.3 9 21.3 12 23 3.2 1.7 10.5 1 12-.2 2.5-1.8 12-12 12-22z"/><path fill="#ead1b7" d="M846 62.5h-19.5V43.7H846z"/><path fill="#444248" d="M983.1 17.4l-7-5.4-48.7 84-48.8-95-7 3.8 51 99.3-51 87.8 7 5.3 48.8-83.6 48.7 95 7-4-51-99.2 51-87.7z"/><path fill="#444248" d="M983.1 211l-7-5.3-48.7 86.8-48.8-93-7 4 51 97.5-51 91 7 5 48.8-86.8 48.7 93 7-4.2-51-97.3z"/><path fill="#cecdcf" d="M879.2 404.6h-8V3h8z"/><path fill="#fea92c" d="M983 94H616.4V73.6H983z"/><path fill="#cd8924" d="M513 63.7l103.6 10v20L513 84z"/><path fill="#d45500" d="M513 63.7h373.5l96.3 10H616.5z"/><path fill="#c78b5b" d="M787.7 0v68.4h92.7V0z"/><path fill="#e5be84" d="M790.2 2v68.4h92V2z"/><path fill="#c78b5b" d="M942.4 10.1H883v60h59.5z"/><path fill="#cecdcf" d="M975.5 0v426h8V0z"/><path fill="#e5be84" d="M946.7 71h-59V11h59z"/><path fill="#ead1b7" d="M925.1 26.3h-15.8V11h15.8zm0 44.6h-15.8V55.5h15.8z"/><path fill="#f7eee5" d="M906 68.2h-15.5v-9.6H906z"/><path fill="#444248" d="M893 67h-1.8v-7h1.6v7zm1.4 0h-.6v-7h.5v7zm3.7 0h-1.4v-7h1.4zm-2.2 0h-.8v-7h.8zm3.7 0h-.5v-7h.5zm3.3 0h-1.2v-7h1v7zm.8 0h-.5v-7h.5zm-2.5 0h-.8v-7h.8zm4 0h-.9v-7h.8z"/><path fill="#ead1b7" d="M848.5 70.4H824v-24h24.6z"/><path fill="#f7eee5" d="M818.4 66.1h-23.8V51.3h23.8z"/><path fill="#444248" d="M798.2 64h-2.5V53.2h2.5zm2.5 0h-1V53.2h1zm5.7 0h-2V53.2h2zm-3.5 0h-1.2V53.2h1.2zm6 0h-1V53.2h1zm4.8 0H812V53.2h1.8zm1.4 0h-.8V53.2h.8zm-3.9 0H810V53.2h1.3zm6.1 0H816V53.2h1.4z"/><path fill="#c78b5b" d="M768.4 8.4H709v60h59.5z"/><path fill="#e5be84" d="M785 68.4h-59v-60h59z"/><path fill="#ead1b7" d="M763.2 24h-15.8V8.3h15.8zm0 44.4h-15.8V53h15.8z"/><path fill="#f7eee5" d="M744 65.7h-15.4v-9.6H744z"/><path fill="#444248" d="M731 64.3h-1.7v-7h1.7v7zm1.5 0h-.6v-7h.6zm3.7 0H735v-7h1.3zm-2.3 0h-.7v-7h.8v7zm3.8 0h-.5v-7h.5zm3.2 0h-1v-7h1zm1 0h-.6v-7h.5v7zm-2.6 0h-.8v-7h.8zm4 0h-.9v-7h.8z"/><path fill="#c78b5b" d="M615 6.4h-59.6v60H615z"/><path fill="#e5be84" d="M631.4 66.4h-59v-60h59z"/><path fill="#ead1b7" d="M610 22h-16V6.3h16zm0 44.4h-16V51h16z"/><path fill="#f7eee5" d="M590.5 63.7h-15.3v-9.6h15.3z"/><path fill="#444248" d="M577.5 62.3H576v-7h1.6zm1.6 0h-.6v-7h.6zm3.8 0h-1.5v-7h1.4v7zm-2.3 0h-1v-7h1zm3.7 0h-.5v-7h.4v7zm3.2 0h-1v-7h1zm1 0h-.7v-7h.5v7zm-2.6 0h-.8v-7h.8zm4 0h-1v-7h1z"/><g clip-path="url(#m)"><path fill="#c78b5b" d="M615.4 66.5h16.2V6.2h-16.2v60.3z" opacity=".3"/></g><path fill="#c78b5b" d="M602 0v68.4h93V0z"/><path fill="#e5be84" d="M628.5 0v68.4h91.8V0z"/><path fill="#ead1b7" d="M686.7 68.4h-24.6v-24h24.6z"/><path fill="#f7eee5" d="M656.7 64.1H633V49.3h23.8z"/><path fill="#444248" d="M636.5 62H634V51.2h2.6zm2.4 0h-1V51.2h1zm5.7 0h-2V51.2h2zm-3.4 0H640V51.2h1.3zm5.7 0h-.7V51.2h.8V62zm5 0h-1.7V51.2h1.7zm1.5 0h-1V51.2h1zm-4 0h-1V51.2h1zm6.1 0h-1.2V51.2h1.2z"/><path fill="#fea92c" d="M975.5 202H609.2v-20h366.3z"/><path fill="#cd8924" d="M505.7 172l103.5 10v20l-103.5-10z"/><path fill="#d45500" d="M505.7 172h373.5l96.3 10H609.2z"/><path fill="#444248" d="M825.5 145.1h-89.4v-9.8h89.4z"/><path fill="#c78b5b" d="M860.5 115h-62.2v62.6h62.2z"/><path fill="#e5be84" d="M877.7 177.6h-61.6V115h61.6z"/><path fill="#ead1b7" d="M855.1 131h-16.5v-16h16.5zm0 46.6h-16.5v-16.2h16.5z"/><path fill="#f7eee5" d="M835 174.7h-16v-10h16z"/><path fill="#444248" d="M821.5 173.3H820v-7.2h1.6zm1.6 0h-.6v-7.2h.6zm3.8 0h-1.4v-7.2h1.4zm-2.3 0h-.8v-7.2h.7v7.2zm4 0h-.6v-7.2h.6v7.2zm3.3 0h-1.2v-7.2h1v7.2zm1 0h-.7v-7.2h.6v7.2zm-2.7 0h-.8v-7.2h.8zm4 0h-.8v-7.2h.8z"/><path fill="#c78b5b" d="M640.4 93h-62.2v84.6h62.2z"/><path fill="#e5be84" d="M657.6 177.6H596V93h61.7z"/><path fill="#ead1b7" d="M635 109h-16.5V93H635zm0 68.6h-16.5v-16.2H635z"/><path fill="#f7eee5" d="M615 174.7h-16v-10h16z"/><path fill="#444248" d="M601.3 173.3h-1.7v-7.2h1.7zm1.6 0h-.5v-7.2h.6v7.2zm4 0h-1.5v-7.2h1.4v7.2zm-2.4 0h-.8v-7.2h.8zm4 0h-.7v-7.2h.5v7.2zm3.2 0h-1v-7.2h1zm1 0h-.6v-7.2h.6zm-2.8 0h-.7v-7.2h.8v7.2zm4.2 0h-.8v-7.2h.8z"/><g clip-path="url(#n)"><path fill="#c78b5b" d="M635.5 177.5h22V92.8h-22z" opacity=".3"/></g><path fill="#c78b5b" d="M794.5 126.1h-51v51.5h51z"/><path fill="#e5be84" d="M808.7 177.6h-50.6v-51.5h50.6z"/><path fill="#ead1b7" d="M790.2 139.3h-13.6v-13.2h13.6zm0 38.3h-13.6v-13.3h13.6z"/><path fill="#f7eee5" d="M773.6 175.2h-13V167h13z"/><path fill="#444248" d="M762.5 174h-1.4v-5.8h1.4v5.7zm1.4 0h-.6v-5.8h.5v5.8zm3 0h-1v-5.8h1v5.7zm-1.8 0h-.7v-5.8h.7v5.7zm3.2 0h-.5v-5.8h.4v5.8zm2.6 0h-1v-5.8h1v5.7zm1 0h-.6v-5.8h.5v5.8zm-2.3 0h-.6v-5.8h.7v5.8zm3.3 0h-.6v-5.8h.7v5.8z"/><path fill="#c78b5b" d="M731.4 97.4H652v80.2h79.5z"/><path fill="#e5be84" d="M753.4 177.6h-78.8V97.4h78.8z"/><path fill="#ead1b7" d="M724.5 118.1h-21V97.4h21zm0 59.5h-21V157h21z"/><path fill="#f7eee5" d="M699 174h-20.6V161H699z"/><path fill="#444248" d="M681.5 172.1h-2.2V163h2.2zm2 0h-.7V163h.6v9.2zm5 0h-1.8V163h1.7zm-3 0h-1V163h1zm5 0h-.7V163h.6v9.2zm4.2 0h-1.5V163h1.5zm1.2 0h-.7V163h.7zm-3.3 0h-1V163h1zm5.3 0h-1.2V163h1v9.2zM617 24.1l-7-5.4L561 99 512.4 5.5l-7 3.5 51 98-51 84 7 5.3 48.7-80.3 48.8 93.6 7-3.5-51-97.8 51-84z"/><path fill="#444248" d="M617 217.2l-7-6-48.9 81.3-48.7-98.6-7 3.3 51 103.2-51 85 7 5.8 48.7-81 48.8 98.5 7-3.3-51-103.3 51-85z"/><path fill="#cecdcf" d="M505 0v417.5h8V0zm104.2 0v433.2h8.2V0z"/><path fill="#fff" fill-opacity=".6" d="M244 35.5c-41.7.1-75.4 28-75.4 62.4 0 14.4 6 28.2 17 39.3v2.3l-1.7 30 13.2-12 7.3-6.7A88 88 0 00244 160c41.7 0 75.6-27.8 75.6-62.2 0-34.5-33.9-62.3-75.6-62.3z"/><path fill="#fff" d="M232 124.2a12.7 12.7 0 0012.6 13 13 13 0 10-12.8-13zm26.7-67h-28.2l2.8 27.3 3 21.6h17l3-21.7 2.4-27.2z"/><path fill="#0095eb" d="M233.6 124.2a11 11 0 0011 11 10.8 10.8 0 0011-11 11 11 0 00-11-11 11.1 11.1 0 00-11 11zm23.1-64.7h-24.2l2.4 25 2.6 19.8H252l2.6-20z"/></svg>