<svg xmlns="http://www.w3.org/2000/svg" viewBox="0 0 147.94 163"><defs><style>.cls-1{fill:#2c4d82;}.cls-2{fill:#fff;}.cls-3{fill:#ea8a2b;}</style></defs><title>Icon_Comprehension</title><g id="Layer_2" data-name="Layer 2"><g id="Layer_1-2" data-name="Layer 1"><g id="qk0C46.tif"><path class="cls-1" d="M127.75,163h-.9q-38.4,0-76.8,0c-.74,0-1-.25-1.1-.92a115.35,115.35,0,0,1-1.67-12.26,32.6,32.6,0,0,0-.67-4.3c-.57-2.43-2-3.65-4.46-3.63a51.49,51.49,0,0,0-6.67.6c-3.56.47-7.07,1.34-10.69,1.29a18.15,18.15,0,0,1-6.45-1.09,9.19,9.19,0,0,1-6.14-9.9,25.34,25.34,0,0,1,1.77-7c.31-.8.6-1.6.93-2.38a1.78,1.78,0,0,0-.49-2.14c-.51-.46-1.09-.84-1.62-1.28a16.24,16.24,0,0,1-1.94-1.65c-1.21-1.36-1-2.67.53-3.57a27.68,27.68,0,0,1,3.36-1.41c.22-.09.46-.14.83-.25-1.18-.21-2.23-.35-3.25-.59a15.59,15.59,0,0,1-2.09-.71A1.75,1.75,0,0,1,9,109.93a26.53,26.53,0,0,1,.64-3.52c.24-1,.6-2,.89-3a1.61,1.61,0,0,0-.81-2,20.29,20.29,0,0,0-2.47-1.23c-1.15-.46-2.35-.82-3.52-1.25a12.61,12.61,0,0,1-1.64-.73A3.55,3.55,0,0,1,.32,93.47a21.34,21.34,0,0,1,1.46-3c3.64-6.21,7.4-12.34,11.57-18.21.56-.79,1.1-1.6,1.6-2.43a1.35,1.35,0,0,0-.18-1.94c-.29-.35-.61-.68-.93-1a4,4,0,0,1-1.17-3.48c.5-3.16.94-6.34,1.57-9.48A76.14,76.14,0,0,1,27.91,23.31C35.55,13,45.7,6.42,58,3.05A89.79,89.79,0,0,1,91.14.52a73.87,73.87,0,0,1,21.13,5C130.55,13.15,141.93,26.7,146.35,46a59.15,59.15,0,0,1-2,34.05,67.44,67.44,0,0,1-11.27,19.33c-1.52,1.89-3,3.8-4.72,5.52a25,25,0,0,0-6.63,12.63c-2.5,11.82-2.69,23.59,1.45,35.12,1.17,3.27,2.77,6.38,4.18,9.56C127.43,162.4,127.56,162.62,127.75,163ZM62.14,19.68c-.52-.17-1-.35-1.4-.45a13,13,0,0,0-10,1.92,9.75,9.75,0,0,0-4.09,4.56.93.93,0,0,1-.69.37,9.85,9.85,0,0,0-4,1.05c-2.42,1.35-3.46,3.52-2.81,5.81a.48.48,0,0,1-.09.11l-.24.13a15.55,15.55,0,0,0-7.33,7.72,13.88,13.88,0,0,0-.93,10.16A6.43,6.43,0,0,0,35.4,55.7a8.83,8.83,0,0,0,1.26.14c-.78,3.85.15,6.07,3.51,7.65a23.64,23.64,0,0,0,5.12,1.61,71,71,0,0,0,14.38,1.84A2,2,0,0,1,60,67c-.12.22-.21.38-.29.54-2.15,3.77-1.52,7,1.9,9.69A18.79,18.79,0,0,0,70,80.7a35.13,35.13,0,0,1,4.42,1.07,10.08,10.08,0,0,1,6.87,6.31c.14.39.34.76.5,1.14a122.58,122.58,0,0,1,4.62,13.83.79.79,0,0,0,1,.7c1.17,0,2.35,0,3.52,0,.51,0,.73-.14.83-.65.36-1.86.77-3.7,1.16-5.55.32-1.54.65-3.08,1-4.64A.78.78,0,0,1,94,93l.35.43a15.16,15.16,0,0,0,5.38,4.14,9.52,9.52,0,0,0,11.92-3.2,16,16,0,0,0,2.49-5.29c.3-1.1.52-2.23.77-3.31,1.13.27,2.23.62,3.36.78,3.17.43,6-.21,8-2.93a9.82,9.82,0,0,0,2-7.16c-.07-.61-.2-1.21-.3-1.8a11.79,11.79,0,0,0,6.65-8.24A22.31,22.31,0,0,0,135,58a22.43,22.43,0,0,0-4.2-11.27c-.54-.71-1.18-1.34-1.78-2,0,0,0,0,0-.07l.22-.35a6.27,6.27,0,0,0,.15-6.81A10.46,10.46,0,0,0,124.56,33a1,1,0,0,1,0-.17c0-.21,0-.41,0-.62A5.1,5.1,0,0,0,121.71,27a6.94,6.94,0,0,0-3.29-.93c-.47,0-.64-.21-.87-.58a20.64,20.64,0,0,0-2.22-3.14,7.76,7.76,0,0,0-9.37-1.7.62.62,0,0,1-.2,0,2.3,2.3,0,0,1-.15-.32,8.12,8.12,0,0,0-6.46-5,10.57,10.57,0,0,0-5.31.51,1,1,0,0,1-.75-.15A17.35,17.35,0,0,0,90.54,14a14,14,0,0,0-12.83,1.42,1.11,1.11,0,0,1-1.23.08A10.94,10.94,0,0,0,67.56,15,10.77,10.77,0,0,0,62.14,19.68Z"/><path class="cls-2" d="M62.14,19.68A10.77,10.77,0,0,1,67.56,15a10.94,10.94,0,0,1,8.92.52,1.11,1.11,0,0,0,1.23-.08A14,14,0,0,1,90.54,14a17.35,17.35,0,0,1,2.55,1.62,1,1,0,0,0,.75.15,10.57,10.57,0,0,1,5.31-.51,8.12,8.12,0,0,1,6.46,5,2.3,2.3,0,0,0,.15.32.62.62,0,0,0,.2,0,7.76,7.76,0,0,1,9.37,1.7,20.64,20.64,0,0,1,2.22,3.14c.23.37.4.58.87.58a6.94,6.94,0,0,1,3.29.93,5.1,5.1,0,0,1,2.85,5.25c0,.21,0,.41,0,.62a1,1,0,0,0,0,.17,10.46,10.46,0,0,1,4.88,4.49,6.27,6.27,0,0,1-.15,6.81l-.22.35s0,.05,0,.07c.6.67,1.24,1.3,1.78,2A22.43,22.43,0,0,1,135,58a22.31,22.31,0,0,1-.41,8.38A11.79,11.79,0,0,1,128,74.66c.1.59.23,1.19.3,1.8a9.82,9.82,0,0,1-2,7.16c-2,2.72-4.84,3.36-8,2.93-1.13-.16-2.23-.51-3.36-.78-.25,1.08-.47,2.21-.77,3.31a16,16,0,0,1-2.49,5.29,9.52,9.52,0,0,1-11.92,3.2,15.16,15.16,0,0,1-5.38-4.14L94,93a.78.78,0,0,0-.2-.09c-.34,1.56-.67,3.1-1,4.64-.39,1.85-.8,3.69-1.16,5.55-.1.51-.32.66-.83.65-1.17,0-2.35,0-3.52,0a.79.79,0,0,1-1-.7,122.58,122.58,0,0,0-4.62-13.83c-.16-.38-.36-.75-.5-1.14a10.08,10.08,0,0,0-6.87-6.31A35.13,35.13,0,0,0,70,80.7a18.79,18.79,0,0,1-8.34-3.47c-3.42-2.67-4.05-5.92-1.9-9.69.08-.16.17-.32.29-.54a2,2,0,0,0-.35-.06A71,71,0,0,1,45.29,65.1a23.64,23.64,0,0,1-5.12-1.61c-3.36-1.58-4.29-3.8-3.51-7.65a8.83,8.83,0,0,1-1.26-.14,6.43,6.43,0,0,1-4.86-4.64,13.88,13.88,0,0,1,.93-10.16,15.55,15.55,0,0,1,7.33-7.72l.24-.13a.48.48,0,0,0,.09-.11c-.65-2.29.39-4.46,2.81-5.81a9.85,9.85,0,0,1,4-1.05.93.93,0,0,0,.69-.37,9.75,9.75,0,0,1,4.09-4.56,13,13,0,0,1,10-1.92C61.19,19.33,61.62,19.51,62.14,19.68Z"/><path class="cls-1" d="M133.27,61.74V57.58h-3.38a13.15,13.15,0,0,0-.76-2.8L132,53.14l-2.13-3.62L127,51.17a12.68,12.68,0,0,0-2.1-2l1.69-2.86-3.7-2.08L121.2,47a14.48,14.48,0,0,0-2.86-.74V43h-4.27v3.3a14.39,14.39,0,0,0-2.87.74l-1.69-2.85-3.7,2.08,1.69,2.86a14,14,0,0,0-2.1,2l-2.92-1.65-2.13,3.61,2.92,1.65a13.15,13.15,0,0,0-.76,2.8H99.12v4.16h3.39a13.24,13.24,0,0,0,.76,2.81l-2.92,1.64,2.13,3.61,2.92-1.65a14.54,14.54,0,0,0,2.1,2l-1.69,2.85,3.7,2.08,1.69-2.85a13.75,13.75,0,0,0,2.87.74v3.3h4.27V73a13.82,13.82,0,0,0,2.86-.74l1.68,2.85,3.7-2.08-1.69-2.85a13.15,13.15,0,0,0,2.1-2l2.92,1.65L132,66.19l-2.91-1.64a13.24,13.24,0,0,0,.76-2.81ZM116.2,69a9.38,9.38,0,1,1,9.6-9.38A9.49,9.49,0,0,1,116.2,69Z"/><path class="cls-3" d="M90.87,36.89l.52-4.13-3.34-.43a13.7,13.7,0,0,0-.41-2.87l3.1-1.26-1.65-3.85L86,25.61a12.9,12.9,0,0,0-1.82-2.29l2-2.62-3.41-2.53-2,2.61A13.5,13.5,0,0,0,78,19.68l.42-3.27-4.23-.55-.42,3.28a14.34,14.34,0,0,0-2.94.37l-1.31-3L65.6,18.06l1.3,3.05a13.7,13.7,0,0,0-2.33,1.76l-2.69-2-2.58,3.3,2.69,2a14.4,14.4,0,0,0-1.11,2.68l-3.35-.43L57,32.56l3.36.43a13.23,13.23,0,0,0,.39,2.88l-3.1,1.26L59.3,41l3.11-1.25A14.88,14.88,0,0,0,64.23,42l-2,2.62,3.4,2.53,2-2.62a14.38,14.38,0,0,0,2.75,1.11L70,48.92l4.23.54.42-3.27a14.16,14.16,0,0,0,2.93-.38l1.31,3,3.94-1.6-1.31-3a14,14,0,0,0,2.34-1.77l2.68,2,2.58-3.3-2.69-2a13.43,13.43,0,0,0,1.12-2.68l3.35.42ZM73,42a9.38,9.38,0,1,1,10.71-8.08A9.48,9.48,0,0,1,73,42Z"/><path class="cls-1" d="M99.82,88.42a5,5,0,0,0-.41.61l-1-.31-.19,0,0,.17-.46,1.37-.06.17.18.07,1,.29a6.06,6.06,0,0,0,0,.73l-1,.2-.19,0,0,.18L98,93.3l0,.18.18,0,1-.2a3.92,3.92,0,0,0,.34.64l-.75.66-.14.12.13.14,1,1.07.13.14.14-.13.75-.65a4.28,4.28,0,0,0,.62.38l-.32.94,0,.18.18.06,1.4.44.18.06.06-.18.32-.93a6,6,0,0,0,.73,0l.21,1,0,.18.18,0,1.45-.3.19,0,0-.18-.22-1a6.77,6.77,0,0,0,.66-.33l.68.73.13.14.14-.13,1.1-1,.13-.12-.13-.14-.67-.73a4.93,4.93,0,0,0,.4-.61l1,.3.18.06.06-.18.46-1.37,0-.17-.18,0-1-.31a5.79,5.79,0,0,0,0-.72l1-.21.18,0,0-.18-.3-1.41,0-.17-.19,0-1,.21a5,5,0,0,0-.34-.65l.75-.66.14-.12-.13-.14-1-1.06-.12-.14-.14.12-.75.66a4.57,4.57,0,0,0-.62-.39l.31-.94.06-.17-.18-.06L105,85.49l-.18-.06,0,.17-.31.94a4.71,4.71,0,0,0-.75,0l-.21-1,0-.18-.19,0-1.44.3-.19,0,0,.19.21,1a4.41,4.41,0,0,0-.65.33l-.68-.73-.13-.14-.14.12-1.1,1-.13.14.12.13Zm2.62,1.49a2,2,0,0,1,2.82.14,1.92,1.92,0,0,1-.14,2.76,2,2,0,0,1-2.83-.14A1.92,1.92,0,0,1,102.44,89.91Z"/><path class="cls-3" d="M62.82,65.42a5,5,0,0,0-.41.61l-.95-.31-.19,0-.05.17-.46,1.37-.06.17.18.07,1,.29a6.06,6.06,0,0,0,0,.73l-1,.2-.19,0,0,.18L61,70.3l0,.18.18,0,1-.2a3.92,3.92,0,0,0,.34.64l-.75.66-.14.12.13.14,1,1.07.13.14.14-.13.75-.65a4.28,4.28,0,0,0,.62.38l-.32.94,0,.18.18.06,1.4.44.18.06.06-.18.32-.93a6,6,0,0,0,.73,0l.21,1,0,.18.18,0,1.45-.3L69,74l0-.18-.22-1a6.77,6.77,0,0,0,.66-.33l.68.73.13.14.14-.13,1.1-1,.13-.12L71.41,72l-.67-.73a4.93,4.93,0,0,0,.4-.61l1,.3.18.06.06-.18.46-1.37,0-.17-.18,0-1-.31a5.79,5.79,0,0,0,0-.72l1-.21.18,0,0-.18-.3-1.41,0-.17-.19,0-1,.21a5,5,0,0,0-.34-.65l.75-.66.14-.12-.13-.14-1-1.06-.12-.14-.14.12-.75.66a4.57,4.57,0,0,0-.62-.39l.31-.94.06-.17-.18-.06L68,62.49l-.18-.06,0,.17-.31.94a4.71,4.71,0,0,0-.75,0l-.21-1,0-.18-.19,0-1.44.3-.19,0,0,.19.21,1a4.41,4.41,0,0,0-.65.33l-.68-.73-.13-.14-.14.12-1.1,1-.13.14.12.13Zm2.62,1.49a2,2,0,0,1,2.82.14,1.92,1.92,0,0,1-.14,2.76,2,2,0,0,1-2.83-.14A1.92,1.92,0,0,1,65.44,66.91Z"/><path class="cls-1" d="M74.58,55.82a6.8,6.8,0,0,0-.48.71L73,56.17l-.22-.06-.06.2-.54,1.62-.07.2.21.07,1.13.36a4.84,4.84,0,0,0,0,.85l-1.17.24-.21,0,0,.22.37,1.66,0,.21.21,0,1.16-.24a4.19,4.19,0,0,0,.41.75l-.89.79-.17.14.16.16,1.16,1.26.15.16.16-.14.89-.78a5.32,5.32,0,0,0,.73.46l-.37,1.1-.07.21.21.07,1.65.52.22.07.07-.21L78.52,65a8.44,8.44,0,0,0,.87,0l.25,1.13,0,.21.22,0L81.6,66l.22,0,0-.21-.25-1.14a5.68,5.68,0,0,0,.78-.39l.8.87.15.16.16-.15,1.3-1.13.16-.15-.15-.16-.79-.86A8.06,8.06,0,0,0,84.4,62l1.13.36.22.06.07-.2.53-1.62.06-.2-.2-.07L85.08,60a6,6,0,0,0,0-.85l1.17-.24.21,0,0-.21L86.1,57,86,56.78l-.21,0-1.16.25a7,7,0,0,0-.4-.77l.88-.78.16-.14-.15-.16L84,54l-.15-.16-.16.14-.88.78a8.35,8.35,0,0,0-.74-.47l.36-1.1.08-.2-.22-.08-1.65-.51-.22-.07-.06.2L80,53.6a5.23,5.23,0,0,0-.88,0l-.25-1.14,0-.21-.23,0-1.69.35-.22,0,0,.21L77,54a5.06,5.06,0,0,0-.77.39l-.8-.86-.15-.17-.17.15L73.8,54.64l-.16.16.15.15Zm3.09,1.75a2.42,2.42,0,0,1,3.34.16A2.28,2.28,0,0,1,80.84,61a2.41,2.41,0,0,1-3.34-.17A2.27,2.27,0,0,1,77.67,57.57Z"/><path class="cls-1" d="M107.14,36.72a3.64,3.64,0,0,0-.32.48l-.76-.24-.15,0,0,.14-.37,1.08,0,.14.15,0,.76.24a5.63,5.63,0,0,0,0,.58l-.78.16-.15,0,0,.14.25,1.12,0,.15.14,0,.79-.16a3.46,3.46,0,0,0,.27.5l-.6.53-.11.1.1.11.79.85.1.11.11-.1.6-.52a4,4,0,0,0,.49.3l-.25.75,0,.14.14.05,1.11.35.15.05,0-.14.25-.74a5.63,5.63,0,0,0,.58,0l.17.76,0,.14.15,0,1.15-.24.15,0,0-.14-.17-.77a3.26,3.26,0,0,0,.53-.26l.54.58.1.11.11-.1.88-.76.11-.1L114,42l-.53-.58c.11-.15.22-.32.32-.49l.76.25.14,0,0-.14.36-1.09,0-.14-.13,0-.77-.25a2.69,2.69,0,0,0,0-.57l.79-.16.14,0,0-.14-.24-1.12,0-.14-.15,0-.78.16a4.11,4.11,0,0,0-.27-.51l.59-.53.11-.09-.1-.11-.78-.85-.1-.11-.11.1-.6.52a4.42,4.42,0,0,0-.49-.31l.24-.75,0-.14-.15-.05-1.11-.34-.15,0,0,.14-.25.74a3.82,3.82,0,0,0-.59,0l-.17-.76,0-.15-.15,0-1.14.23-.15,0,0,.15.17.76a2.57,2.57,0,0,0-.52.27l-.54-.59-.1-.11-.12.1-.87.77-.11.1.1.11Zm2.09,1.18a1.63,1.63,0,0,1,2.25.11,1.54,1.54,0,0,1-.12,2.2,1.61,1.61,0,0,1-2.25-.11A1.54,1.54,0,0,1,109.23,37.9Z"/><path class="cls-1" d="M93.58,19.82a6.8,6.8,0,0,0-.48.71L92,20.17l-.22-.06-.06.2-.54,1.62-.07.2.21.07,1.13.36a4.84,4.84,0,0,0,0,.85l-1.17.24-.21,0,0,.22.37,1.66,0,.21.21,0,1.16-.24a4.19,4.19,0,0,0,.41.75l-.89.79-.17.14.16.16,1.16,1.26.15.16.16-.14.89-.78a5.32,5.32,0,0,0,.73.46l-.37,1.1-.07.21.21.07,1.65.52.22.07.07-.21L97.52,29a8.44,8.44,0,0,0,.87,0l.25,1.13,0,.21.22,0,1.7-.35.22-.05,0-.21-.25-1.14a5.68,5.68,0,0,0,.78-.39l.8.87.15.16.16-.15,1.3-1.13.16-.15-.15-.16-.79-.86a8.06,8.06,0,0,0,.47-.72l1.13.36.22.06.07-.2.53-1.62.06-.2-.2-.07L104.08,24a6,6,0,0,0,0-.85l1.17-.24.21-.05,0-.21L105.1,21l-.06-.21-.21,0-1.16.25a7,7,0,0,0-.4-.77l.88-.78.16-.14-.15-.16L103,18l-.15-.16-.16.14-.88.78a8.35,8.35,0,0,0-.74-.47l.36-1.1.08-.2-.22-.08-1.65-.51-.22-.07-.06.2L99,17.6a5.23,5.23,0,0,0-.88,0l-.25-1.14,0-.21-.23.05-1.69.35-.22,0,0,.21L96,18a5.06,5.06,0,0,0-.77.39l-.8-.86-.15-.17-.17.15L92.8,18.64l-.16.16.15.15Zm3.09,1.75a2.42,2.42,0,0,1,3.34.16A2.28,2.28,0,0,1,99.84,25a2.41,2.41,0,0,1-3.34-.17A2.27,2.27,0,0,1,96.67,21.57Z"/><path class="cls-3" d="M92.58,39.82a6.8,6.8,0,0,0-.48.71L91,40.17l-.22-.06-.06.2-.54,1.62-.07.2.21.07,1.13.36a4.84,4.84,0,0,0,0,.85l-1.17.24-.21,0,0,.22.37,1.66,0,.21.21,0,1.16-.24a4.19,4.19,0,0,0,.41.75l-.89.79-.17.14.16.16,1.16,1.26.15.16.16-.14.89-.78a5.32,5.32,0,0,0,.73.46l-.37,1.1-.07.21.21.07,1.65.52.22.07.07-.21L96.52,49a8.44,8.44,0,0,0,.87,0l.25,1.13,0,.21.22,0L99.6,50l.22-.05,0-.21-.25-1.14a5.68,5.68,0,0,0,.78-.39l.8.87.15.16.16-.15,1.3-1.13.16-.15-.15-.16-.79-.86a8.06,8.06,0,0,0,.47-.72l1.13.36.22.06.07-.2.53-1.62.06-.2-.2-.07L103.08,44a6,6,0,0,0,0-.85l1.17-.24.21,0,0-.21L104.1,41l-.06-.21-.21,0-1.16.25a7,7,0,0,0-.4-.77l.88-.78.16-.14-.15-.16L102,38l-.15-.16-.16.14-.88.78a8.35,8.35,0,0,0-.74-.47l.36-1.1.08-.2-.22-.08-1.65-.51-.22-.07-.06.2L98,37.6a5.23,5.23,0,0,0-.88,0l-.25-1.14,0-.21-.23,0-1.69.35-.22,0,0,.21L95,38a5.06,5.06,0,0,0-.77.39l-.8-.86-.15-.17-.17.15L91.8,38.64l-.16.16.15.15Zm3.09,1.75a2.42,2.42,0,0,1,3.34.16A2.28,2.28,0,0,1,98.84,45a2.41,2.41,0,0,1-3.34-.17A2.27,2.27,0,0,1,95.67,41.57Z"/><path class="cls-3" d="M85.75,95.5a4.78,4.78,0,0,0,.26.42l-.46.49-.09.1.1.09.7.66.09.09.09-.09.46-.5a2.93,2.93,0,0,0,.43.23l-.16.65,0,.13.12,0,.95.21.12,0,0-.12.16-.66a4,4,0,0,0,.49,0l.19.65,0,.12.13,0,.93-.31.12,0,0-.12-.18-.65a4.94,4.94,0,0,0,.42-.27l.48.46.09.09.08-.1.68-.73.08-.09-.08-.09-.49-.46a2.63,2.63,0,0,0,.24-.44l.64.15.13,0,0-.12.23-1,0-.13-.12,0L92,94a2.68,2.68,0,0,0,0-.49l.64-.2.12,0,0-.13-.29-.94,0-.12-.12,0-.64.21a2.91,2.91,0,0,0-.25-.42l.46-.5.08-.09-.09-.09-.7-.67-.1-.09-.09.1-.45.5a2.55,2.55,0,0,0-.43-.23l.15-.66,0-.13-.13,0-.95-.22-.12,0,0,.13-.15.66a2.79,2.79,0,0,0-.5,0l-.19-.65,0-.11-.12,0-.93.3-.12,0,0,.12.19.64a3.83,3.83,0,0,0-.42.28l-.49-.46-.08-.09-.09.09-.67.73-.09.1.09.08.48.46a2.64,2.64,0,0,0-.23.44L85,92.44l-.12,0,0,.12-.23,1,0,.12.13,0,.64.15a2.64,2.64,0,0,0,0,.49l-.64.21-.13,0,0,.12.28,1,0,.11.12,0Zm1.66-1.18a1.38,1.38,0,0,1,.9-1.69,1.29,1.29,0,0,1,1.64.88,1.36,1.36,0,0,1-.89,1.68A1.3,1.3,0,0,1,87.41,94.32Z"/><path class="cls-3" d="M44.86,30.65a2.75,2.75,0,0,0,.17.29l-.31.34-.06.06.06.07.49.45.06.06.06-.06.31-.35a2.28,2.28,0,0,0,.3.17l-.11.44,0,.09.08,0,.66.15.08,0,0-.09.11-.45a1.83,1.83,0,0,0,.33,0l.13.45,0,.08.09,0,.64-.21.08,0L48,32l-.13-.44a2.9,2.9,0,0,0,.29-.19l.33.31.06.07.06-.07.46-.5.06-.06-.06-.06-.33-.32a2.85,2.85,0,0,0,.16-.3l.44.1h.09l0-.08.15-.66,0-.09h-.08l-.44-.11c0-.11,0-.23,0-.34l.44-.14.08,0,0-.09-.2-.65,0-.08-.09,0-.43.14a1.75,1.75,0,0,0-.18-.29l.32-.34.06-.07L49,27.72l-.49-.46-.06-.06-.06.07-.32.34a2.69,2.69,0,0,0-.29-.16l.1-.45,0-.09h-.09l-.65-.15-.08,0,0,.08-.11.46h-.34l-.13-.44,0-.08-.09,0-.63.21-.09,0,0,.09.13.44a2.9,2.9,0,0,0-.29.19l-.34-.32-.05-.06-.06.07-.47.5-.06.06.07.06.33.32a1.43,1.43,0,0,0-.16.3l-.45-.11h-.08l0,.08-.16.67,0,.08.09,0,.44.1a1.9,1.9,0,0,0,0,.34l-.44.14-.08,0,0,.08.19.65,0,.08.07,0ZM46,29.84a.94.94,0,0,1,.61-1.16.89.89,0,0,1,1.13.61.94.94,0,0,1-.62,1.15A.88.88,0,0,1,46,29.84Z"/><path class="cls-3" d="M86.86,18.65a2.75,2.75,0,0,0,.17.29l-.31.34-.06.06.06.07.49.45.06.06.06-.06.31-.35a2.28,2.28,0,0,0,.3.17l-.11.44,0,.09.08,0,.66.15.08,0,0-.09.11-.45a1.83,1.83,0,0,0,.33,0l.13.45,0,.08.09,0,.64-.21.08,0L90,20l-.13-.44a2.9,2.9,0,0,0,.29-.19l.33.31.06.07.06-.07.46-.5.06-.06-.06-.06-.33-.32a2.85,2.85,0,0,0,.16-.3l.44.1h.09l0-.08.15-.66,0-.09h-.08l-.44-.11c0-.11,0-.23,0-.34l.44-.14.08,0,0-.09-.2-.65,0-.08-.09,0-.43.14a1.75,1.75,0,0,0-.18-.29l.32-.34.06-.07L91,15.72l-.49-.46-.06-.06-.06.07-.32.34a2.69,2.69,0,0,0-.29-.16l.1-.45,0-.09h-.09l-.65-.15-.08,0,0,.08-.11.46h-.34l-.13-.44,0-.08-.09,0-.63.21-.09,0,0,.09.13.44a2.9,2.9,0,0,0-.29.19l-.34-.32,0-.06-.06.07-.47.5-.06.06.07.06.33.32a1.43,1.43,0,0,0-.16.3l-.45-.11h-.08l0,.08-.16.67,0,.08.09,0,.44.1a1.9,1.9,0,0,0,0,.34l-.44.14-.08,0,0,.08.19.65,0,.08.07,0ZM88,17.84a.94.94,0,0,1,.61-1.16.89.89,0,0,1,1.13.61.94.94,0,0,1-.62,1.15A.88.88,0,0,1,88,17.84Z"/><path class="cls-3" d="M46.14,63.23a3.13,3.13,0,0,0,.21.34L46,64l-.07.07.08.08.58.54.07.08.08-.08.37-.41a2.37,2.37,0,0,0,.35.19l-.12.54,0,.1.1,0,.78.18.1,0,0-.1.13-.54a2.61,2.61,0,0,0,.4,0l.16.53,0,.1.1,0,.76-.25.1,0,0-.1-.15-.53a3.87,3.87,0,0,0,.34-.21l.4.37.07.07.07-.08.56-.6.07-.07-.08-.08-.39-.37c.07-.11.13-.24.19-.36l.53.12.1,0,0-.1.19-.79,0-.11-.09,0L51.24,62a1.88,1.88,0,0,0,0-.41l.53-.16.1,0,0-.11-.23-.77,0-.1-.1,0-.52.17a2.5,2.5,0,0,0-.21-.35l.38-.4.07-.08-.08-.07-.58-.55-.07-.07-.08.07-.37.41a3.9,3.9,0,0,0-.35-.19l.12-.53,0-.11-.1,0-.78-.18-.1,0,0,.1-.13.55a2.64,2.64,0,0,0-.4,0l-.16-.53,0-.1-.1,0-.76.25-.1,0,0,.1.15.53a4,4,0,0,0-.34.22l-.4-.38-.07-.07-.07.08-.55.6L45.8,60l.08.07.4.37a1.78,1.78,0,0,0-.19.36l-.54-.12-.1,0,0,.1-.19.8,0,.1.1,0,.53.12a2.81,2.81,0,0,0,0,.41l-.52.17-.11,0,0,.1.23.77,0,.1.1,0Zm1.36-1a1.14,1.14,0,0,1,.74-1.39,1.07,1.07,0,0,1,1.35.72A1.13,1.13,0,0,1,48.85,63,1.07,1.07,0,0,1,47.5,62.26Z"/><path class="cls-3" d="M97.28,54l-1-1.14L95,54a3.62,3.62,0,0,0-1.28-.58l.09-1.66-1.56,0-.09,1.62a4,4,0,0,0-1.45.54l-1.1-1.2-1.16,1.07,1.09,1.2a4,4,0,0,0-.64,1.34l-1.58,0-.09,1.55,1.59.05a3.69,3.69,0,0,0,.49,1.38L88.1,60.31l1,1.14,1.22-1.12a3.94,3.94,0,0,0,1.39.62l-.09,1.62,1.56,0L93.31,61a3.77,3.77,0,0,0,1.35-.51l1.09,1.19,1.16-1.06L95.82,59.4a3.89,3.89,0,0,0,.64-1.35l1.69.05.09-1.56-1.69-.06a3.87,3.87,0,0,0-.49-1.38Zm-3,4.87a2.31,2.31,0,1,1,.18-3.3A2.35,2.35,0,0,1,94.25,58.85Z"/><path class="cls-3" d="M115.28,24l-1-1.14L113,24a3.62,3.62,0,0,0-1.28-.58l.09-1.66-1.56,0-.09,1.62a4,4,0,0,0-1.45.54l-1.1-1.2-1.16,1.07,1.09,1.2a4,4,0,0,0-.64,1.34l-1.58,0-.09,1.55,1.59,0a3.69,3.69,0,0,0,.49,1.38l-1.22,1.12,1,1.14,1.22-1.12a3.94,3.94,0,0,0,1.39.62l-.09,1.62,1.56,0,.09-1.65a3.77,3.77,0,0,0,1.35-.51l1.09,1.19,1.16-1.06-1.09-1.19a3.89,3.89,0,0,0,.64-1.35l1.69.05.09-1.56-1.69-.06a3.87,3.87,0,0,0-.49-1.38Zm-3,4.87a2.31,2.31,0,1,1,.18-3.3A2.35,2.35,0,0,1,112.25,28.85Z"/><path class="cls-1" d="M61.66,56.24l-1.22-.94-1,1.31a3.62,3.62,0,0,0-1.36-.36l-.2-1.64-1.54.22.19,1.62a3.71,3.71,0,0,0-1.34.78l-1.29-1-1,1.25,1.29,1a3.83,3.83,0,0,0-.4,1.43l-1.57.23.18,1.55L54,61.46a4,4,0,0,0,.72,1.28l-1,1.32,1.22.94,1-1.32a3.76,3.76,0,0,0,1.48.37l.19,1.62,1.54-.22L59,63.81a4.1,4.1,0,0,0,1.24-.73l1.28,1,1-1.25-1.28-1a3.93,3.93,0,0,0,.4-1.44l1.68-.24-.19-1.55-1.67.24a3.9,3.9,0,0,0-.73-1.28Zm-2.14,5.32a2.31,2.31,0,1,1-.39-3.29A2.35,2.35,0,0,1,59.52,61.56Z"/><path class="cls-1" d="M123.27,29.38l-.42-.91-1,.46a2.41,2.41,0,0,0-.67-.61l.37-1-1-.33-.37,1a2.42,2.42,0,0,0-1,.05l-.44-.95-.92.43.44.95a2.44,2.44,0,0,0-.66.7l-1-.34-.36.94,1,.34a2.54,2.54,0,0,0,0,.95l-1,.45.42.9,1-.45a2.53,2.53,0,0,0,.74.65l-.37,1,.95.34.37-1a2.65,2.65,0,0,0,.93,0l.44.94.92-.43-.44-.95a2.44,2.44,0,0,0,.66-.7l1,.36.36-.94-1-.37a2.29,2.29,0,0,0,0-.94Zm-2.81,2.4a1.49,1.49,0,1,1,.75-2A1.51,1.51,0,0,1,120.46,31.78Z"/><path class="cls-3" d="M113.14,78.47l.07-.13-.13-.07-1.52-.83-.13-.07-.07.14-.58,1.06a3.55,3.55,0,0,0-.73-.08l-.33-1.14,0-.15-.14,0-1.67.51-.15,0,0,.14.33,1.15a4.06,4.06,0,0,0-.55.46l-1-.56-.12-.07-.08.14-.84,1.56-.07.13.13.07,1,.55a3.16,3.16,0,0,0-.08.68l-1.12.34-.14,0,0,.15.48,1.69,0,.14.14,0L107,84a3.53,3.53,0,0,0,.45.57l-.56,1-.07.13.13.08,1.52.83.13.06.07-.13.55-1a3.39,3.39,0,0,0,.78.08l.31,1.1,0,.14.14,0,1.67-.51.14,0,0-.15L112,85a3.64,3.64,0,0,0,.56-.48l1,.55.14.07.07-.13.84-1.56.07-.13-.13-.07-1-.56a4.93,4.93,0,0,0,.07-.66l1.14-.35.14,0,0-.15-.48-1.68,0-.14-.14,0-1.14.35a3.71,3.71,0,0,0-.42-.54l.58-1.08ZM111,80.19a2.15,2.15,0,1,1-2.87.89A2.13,2.13,0,0,1,111,80.19Z"/><path class="cls-3" d="M70.94,50.56l.07-.13-.13-.07-1.52-.83-.13-.07-.07.14-.58,1.06a3.55,3.55,0,0,0-.73-.08l-.33-1.14,0-.15-.14,0-1.67.52-.15,0,0,.14.33,1.15a4,4,0,0,0-.55.45l-1-.55L64.2,51l-.08.13-.84,1.56-.07.13.13.08,1,.55a3.07,3.07,0,0,0-.08.67l-1.12.35-.14,0,0,.15.48,1.69,0,.14.14,0,1.09-.33a3.53,3.53,0,0,0,.45.57l-.56,1-.07.13.13.08,1.52.82.13.07.07-.13.55-1a3.38,3.38,0,0,0,.78.07l.31,1.11,0,.14.14,0L70,58.44l.15,0-.05-.15-.31-1.12a4.11,4.11,0,0,0,.55-.48l1,.55.14.07.07-.13.84-1.56.07-.13-.13-.07-1-.57a4.62,4.62,0,0,0,.07-.65l1.14-.35.14-.05,0-.15-.48-1.68,0-.14-.14,0-1.14.35a3.24,3.24,0,0,0-.42-.54l.58-1.08Zm-2.11,1.72a2.15,2.15,0,0,1-2,3.78,2.15,2.15,0,0,1-.82-2.9A2.12,2.12,0,0,1,68.83,52.28Z"/><path class="cls-3" d="M95.76,64.25l-3.07-1-.77,2.48a10.41,10.41,0,0,0-2.23-.07l-.54-2.51L86,63.94l.55,2.52a10,10,0,0,0-2,1.07l-1.72-1.88L80.48,67.9l1.72,1.88A10.37,10.37,0,0,0,81,71.72L78.56,71l-1,3.14,2.43.75a10.77,10.77,0,0,0-.11,2.26l-2.48.6.69,3.18,2.48-.59a10.55,10.55,0,0,0,1,2l-1.87,1.77,2.16,2.38,1.88-1.77a10.73,10.73,0,0,0,1.88,1.2l-.77,2.48,3.06.94.78-2.49a10.41,10.41,0,0,0,2.23.08l.54,2.52,3.14-.75-.54-2.52a10.87,10.87,0,0,0,2-1.08L97.8,87l2.38-2.24-1.72-1.88a10.14,10.14,0,0,0,1.2-1.94l2.44.75,1-3.13-2.43-.75a10.24,10.24,0,0,0,.1-2.27l2.49-.6-.69-3.19-2.48.6a10.55,10.55,0,0,0-1-2l1.87-1.77-2.16-2.38-1.88,1.77A10.13,10.13,0,0,0,95,66.73l.77-2.48Zm1.46,14.19a7.21,7.21,0,1,1-4.7-9.18A7.32,7.32,0,0,1,97.22,78.44Z"/><path class="cls-3" d="M93.83,77.39a3.66,3.66,0,1,1-2.39-4.66A3.71,3.71,0,0,1,93.83,77.39Z"/><path class="cls-1" d="M51.76,33.25l-3.07-1-.77,2.48a10.41,10.41,0,0,0-2.23-.07l-.54-2.51L42,32.94l.55,2.52a10,10,0,0,0-2,1.07l-1.72-1.88L36.48,36.9l1.72,1.88A10.37,10.37,0,0,0,37,40.72L34.56,40l-1,3.14,2.43.75a10.77,10.77,0,0,0-.11,2.26l-2.48.6.69,3.18,2.48-.59a10.55,10.55,0,0,0,1,2l-1.87,1.77,2.16,2.38,1.88-1.77a10.73,10.73,0,0,0,1.88,1.2l-.77,2.48,3.06.94.78-2.49a10.41,10.41,0,0,0,2.23.08l.54,2.52,3.14-.75-.54-2.52a10.87,10.87,0,0,0,2-1.08L53.8,56l2.38-2.24-1.72-1.88a10.14,10.14,0,0,0,1.2-1.94l2.44.75,1-3.13-2.43-.75a10.24,10.24,0,0,0,.1-2.27l2.49-.6-.69-3.19-2.48.6a10.55,10.55,0,0,0-1-2l1.87-1.77-2.16-2.38-1.88,1.77A10.13,10.13,0,0,0,51,35.73l.77-2.48Zm1.46,14.19a7.21,7.21,0,1,1-4.7-9.18A7.32,7.32,0,0,1,53.22,47.44Z"/><path class="cls-1" d="M49.83,46.39a3.66,3.66,0,1,1-2.39-4.66A3.71,3.71,0,0,1,49.83,46.39Z"/><path class="cls-1" d="M123,82.64l0-.9-.73,0a2.72,2.72,0,0,0-.19-.59l.61-.39-.51-.74-.61.38a3.07,3.07,0,0,0-.47-.41l.32-.63-.81-.41-.33.63a3.09,3.09,0,0,0-.62-.12l0-.71-.92,0,0,.71a3.31,3.31,0,0,0-.61.19l-.39-.59-.77.49.4.59a3.2,3.2,0,0,0-.43.47l-.64-.32-.42.8.65.31a2.78,2.78,0,0,0-.13.61l-.73.05,0,.89.73,0a3,3,0,0,0,.2.6L116,84l.51.75.6-.39a3.8,3.8,0,0,0,.48.42l-.33.63.82.4.33-.63a2.52,2.52,0,0,0,.62.12l0,.71.92,0,0-.7a3.35,3.35,0,0,0,.61-.2l.39.59.77-.49-.41-.59a2.79,2.79,0,0,0,.44-.47l.64.32.42-.79-.65-.33a3,3,0,0,0,.12-.61l.73,0Zm-3.57,1.76a2,2,0,1,1,1.94-2.12A2,2,0,0,1,119.43,84.4Z"/><path class="cls-1" d="M119.37,83.41a1,1,0,1,1-.11-2,1.05,1.05,0,0,1,1.11,1A1,1,0,0,1,119.37,83.41Z"/><path class="cls-3" d="M129,39.74l-.06-1.1-.91,0a3.05,3.05,0,0,0-.24-.74l.76-.48-.63-.92-.75.47a4.07,4.07,0,0,0-.59-.51l.4-.78-1-.5-.41.78a3.28,3.28,0,0,0-.77-.15l0-.88-1.14.06,0,.88a3.28,3.28,0,0,0-.75.24l-.49-.73-1,.6.5.74a3.23,3.23,0,0,0-.54.57l-.79-.39-.52,1,.8.38a3,3,0,0,0-.15.77l-.91,0,.06,1.11.91,0a2.74,2.74,0,0,0,.25.73l-.76.48.63.93.74-.48a5.78,5.78,0,0,0,.59.52l-.4.78,1,.5.41-.79a2.84,2.84,0,0,0,.77.15l.06.89,1.13-.06-.05-.88a4.69,4.69,0,0,0,.75-.24l.49.73,1-.61-.51-.73a4.3,4.3,0,0,0,.55-.58l.79.4.51-1-.79-.4a3.78,3.78,0,0,0,.14-.76l.91,0Zm-4.43,2.2a2.55,2.55,0,0,1-2.7-2.36,2.56,2.56,0,1,1,2.7,2.36Z"/><path class="cls-3" d="M124.5,40.7a1.26,1.26,0,1,1-.13-2.52,1.3,1.3,0,0,1,1.37,1.18A1.28,1.28,0,0,1,124.5,40.7Z"/><path class="cls-1" d="M107,33.64l0-.9-.73,0a2.72,2.72,0,0,0-.19-.59l.61-.39-.51-.74-.61.38a3.07,3.07,0,0,0-.47-.41l.32-.63-.81-.41-.33.63a3.09,3.09,0,0,0-.62-.12l0-.71-.92.05,0,.71a3.31,3.31,0,0,0-.61.19l-.39-.59-.77.49.4.59a3.2,3.2,0,0,0-.43.47l-.64-.32-.42.8.65.31a2.78,2.78,0,0,0-.13.61l-.73,0,0,.89.73,0a3,3,0,0,0,.2.6L100,35l.51.75.6-.39a3.8,3.8,0,0,0,.48.42l-.33.63.82.4.33-.63a2.52,2.52,0,0,0,.62.12l0,.71.92-.05,0-.7a3.35,3.35,0,0,0,.61-.2l.39.59.77-.49-.41-.59a2.79,2.79,0,0,0,.44-.47l.64.32.42-.79-.65-.33a3,3,0,0,0,.12-.61l.73,0Zm-3.57,1.76a2,2,0,1,1,1.94-2.12A2,2,0,0,1,103.43,35.4Z"/><path class="cls-1" d="M103.37,34.41a1,1,0,1,1-.11-2,1.05,1.05,0,0,1,1.11,1A1,1,0,0,1,103.37,34.41Z"/><path class="cls-1" d="M91,49.64l0-.9-.73,0a2.72,2.72,0,0,0-.19-.59l.61-.39-.51-.74-.61.38a3.07,3.07,0,0,0-.47-.41l.32-.63L88.56,46l-.33.63a3.09,3.09,0,0,0-.62-.12l0-.71-.92.05,0,.71a3.31,3.31,0,0,0-.61.19l-.39-.59-.77.49.4.59a3.2,3.2,0,0,0-.43.47l-.64-.32-.42.8.65.31a2.78,2.78,0,0,0-.13.61l-.73,0,0,.89.73,0a3,3,0,0,0,.2.6L84,51l.51.75.6-.39a3.8,3.8,0,0,0,.48.42l-.33.63.82.4.33-.63a2.52,2.52,0,0,0,.62.12l0,.71.92-.05,0-.7a3.35,3.35,0,0,0,.61-.2l.39.59.77-.49-.41-.59a2.79,2.79,0,0,0,.44-.47l.64.32.42-.79-.65-.33a3,3,0,0,0,.12-.61l.73,0ZM87.43,51.4a2,2,0,1,1,1.94-2.12A2,2,0,0,1,87.43,51.4Z"/><path class="cls-1" d="M87.37,50.41a1,1,0,1,1-.11-2,1.05,1.05,0,0,1,1.11,1A1,1,0,0,1,87.37,50.41Z"/><path class="cls-1" d="M59,24.64l0-.9-.73,0a2.72,2.72,0,0,0-.19-.59l.61-.39-.51-.74-.61.38a3.07,3.07,0,0,0-.47-.41l.32-.63L56.56,21l-.33.63a3.09,3.09,0,0,0-.62-.12l0-.71-.92.05,0,.71a3.31,3.31,0,0,0-.61.19l-.39-.59-.77.49.4.59a3.2,3.2,0,0,0-.43.47l-.64-.32-.42.8.65.31a2.78,2.78,0,0,0-.13.61l-.73,0,.05.89.73,0a3,3,0,0,0,.2.6L52,26l.51.75.6-.39a3.8,3.8,0,0,0,.48.42l-.33.63.82.4.33-.63a2.52,2.52,0,0,0,.62.12l0,.71.92,0,0-.7a3.35,3.35,0,0,0,.61-.2l.39.59.77-.49-.41-.59a2.79,2.79,0,0,0,.44-.47l.64.32.42-.79-.65-.33a3,3,0,0,0,.12-.61l.73,0ZM55.43,26.4a2,2,0,1,1,1.94-2.12A2,2,0,0,1,55.43,26.4Z"/><path class="cls-1" d="M55.37,25.41a1,1,0,1,1-.11-2,1.05,1.05,0,0,1,1.11,1A1,1,0,0,1,55.37,25.41Z"/><path class="cls-1" d="M77,76.64l0-.9-.73,0a2.72,2.72,0,0,0-.19-.59l.61-.39-.51-.74-.61.38a3.07,3.07,0,0,0-.47-.41l.32-.63L74.56,73l-.33.63a3.09,3.09,0,0,0-.62-.12l0-.71-.92,0,0,.71a3.31,3.31,0,0,0-.61.19l-.39-.59-.77.49.4.59a3.2,3.2,0,0,0-.43.47l-.64-.32-.42.8.65.31a2.78,2.78,0,0,0-.13.61l-.73.05,0,.89.73,0a3,3,0,0,0,.2.6L70,78l.51.75.6-.39a3.8,3.8,0,0,0,.48.42l-.33.63.82.4.33-.63a2.52,2.52,0,0,0,.62.12l0,.71.92,0,0-.7a3.35,3.35,0,0,0,.61-.2l.39.59.77-.49-.41-.59a2.79,2.79,0,0,0,.44-.47l.64.32.42-.79-.65-.33a3,3,0,0,0,.12-.61l.73,0ZM73.43,78.4a2,2,0,1,1,1.94-2.12A2,2,0,0,1,73.43,78.4Z"/><path class="cls-1" d="M73.37,77.41a1,1,0,1,1-.11-2,1.05,1.05,0,0,1,1.11,1A1,1,0,0,1,73.37,77.41Z"/><path class="cls-3" d="M123.31,79.85l.07.05.08,0,.14-.13.09.05,0,.19.17.06.11-.15.1,0v.19l.17,0,.09-.16h.1l0,.18h.17l.06-.18h.1l.08.17.17,0,0-.19.1,0,.11.15.17-.06,0-.19a.25.25,0,0,0,.09,0l.14.13.15-.09,0-.18a.24.24,0,0,0,.08-.06l.16.11.13-.11-.08-.17.07-.08.18.08.11-.14-.12-.15,0,0,0,0,.18,0a1.09,1.09,0,0,0,.08-.15l-.14-.13a.36.36,0,0,0,0-.09h.19l.06-.16-.16-.1s0-.06,0-.1l.19,0a.88.88,0,0,0,0-.16l-.17-.07v-.11l.18-.06a1.11,1.11,0,0,0,0-.17l-.18,0s0-.07,0-.1l.17-.1a1,1,0,0,0,0-.16h-.19l0-.1.14-.12-.07-.15-.19,0a.41.41,0,0,1,0-.09l.12-.14-.11-.14-.18.07-.06-.08.09-.16-.13-.12-.16.1-.08-.07.06-.17-.08,0-.07,0-.14.12-.1,0,0-.18-.16-.07-.12.15-.1,0V76l-.17,0-.09.17h-.1l0-.19h-.17l-.06.18h-.1l-.08-.17a.47.47,0,0,0-.17,0l0,.18-.1,0-.11-.16-.16.06v.19l-.09,0-.14-.13-.15.09.05.18-.08.06-.16-.11-.13.12.08.16-.07.08-.18-.08-.1.14.11.15,0,0a.08.08,0,0,0,0,0l-.19,0a1.09,1.09,0,0,0-.08.15l.14.13a.3.3,0,0,0,0,.1h-.19a.49.49,0,0,0,0,.16l.16.1a.3.3,0,0,0,0,.1l-.19,0a.88.88,0,0,0,0,.17l.18.06a.41.41,0,0,0,0,.11l-.18.06a1,1,0,0,1,0,.17l.19,0s0,.07,0,.1l-.17.1s0,.11,0,.16h.19a.42.42,0,0,0,0,.1l-.15.12.07.15.19,0a.41.41,0,0,1,0,.09l-.11.14.1.14.18-.07a.27.27,0,0,0,.07.08l-.1.16.13.12.16-.09.08.06Zm.41-.29.62-.94a.42.42,0,0,0,.16,0h.13l.23,1.09A1.77,1.77,0,0,1,123.72,79.56Zm1.33.16-.24-1.09a.63.63,0,0,0,.24-.16l1,.61A1.77,1.77,0,0,1,125.05,79.72Zm1.06-.79-1-.61a.69.69,0,0,0,0-.28l1.12-.23A1.72,1.72,0,0,1,126.11,78.93Zm.17-1.3-1.12.24a.66.66,0,0,0-.17-.24l.63-.94A1.72,1.72,0,0,1,126.28,77.63Zm-.82-1-.62.93a.71.71,0,0,0-.29,0l-.23-1.09A1.71,1.71,0,0,1,125.46,76.6Zm-1.33-.17.24,1.09a.74.74,0,0,0-.22.14,0,0,0,0,1,0,0l-1-.61A1.76,1.76,0,0,1,124.13,76.43Zm-1.06.8,1,.6a.71.71,0,0,0-.06.28l-1.12.23A1.69,1.69,0,0,1,123.07,77.23Zm-.17,1.29,1.12-.23a.72.72,0,0,0,.15.22h0l-.62.94A1.69,1.69,0,0,1,122.9,78.52Z"/><path class="cls-3" d="M93.31,34.85l.07,0,.08.05.14-.13.09,0,0,.19.17.06.11-.15.1,0v.19l.17,0,.09-.16h.1l0,.18h.17l.06-.18h.1l.08.17.17,0,0-.19.1,0,.11.15.17-.06,0-.19a.25.25,0,0,0,.09,0l.14.13.15-.09,0-.18a.24.24,0,0,0,.08-.06l.16.11.13-.11L96,34.49l.07-.08.18.08.11-.14-.12-.15,0,0,0,0,.18,0A1.09,1.09,0,0,0,96.6,34l-.14-.13a.36.36,0,0,0,0-.09h.19l.06-.16-.16-.1s0-.06,0-.1l.19,0a.88.88,0,0,0,0-.16l-.17-.07v-.11l.18-.06a1.11,1.11,0,0,0,0-.17l-.18,0s0-.07,0-.1l.17-.1a1,1,0,0,0,0-.16h-.19l0-.1.14-.12-.07-.15-.19,0a.41.41,0,0,1,0-.09l.12-.14-.11-.14-.18.07-.06-.08.09-.16-.13-.12-.16.1-.08-.07.06-.17-.08-.05-.07,0-.14.12-.1,0,0-.18L95.36,31l-.12.15-.1,0V31l-.17,0-.09.17h-.1l0-.19h-.17l-.06.18h-.1l-.08-.17a.47.47,0,0,0-.17,0l0,.18-.1,0L93.91,31l-.16.06v.19l-.09,0-.14-.13-.15.09.05.18-.08.06-.16-.11-.13.12.08.16-.07.08-.18-.08-.1.14.11.15,0,0,0,0-.19,0a1.09,1.09,0,0,0-.08.15l.14.13a.3.3,0,0,0,0,.1h-.19a.49.49,0,0,0,0,.16l.16.1a.3.3,0,0,0,0,.1l-.19,0a.88.88,0,0,0,0,.17l.18.06a.41.41,0,0,0,0,.11l-.18.06a1,1,0,0,1,0,.17l.19,0s0,.07,0,.1l-.17.1c0,.05,0,.11,0,.16h.19a.42.42,0,0,0,0,.1l-.15.12.07.15.19,0a.41.41,0,0,1,0,.09l-.11.14.1.14.18-.07a.27.27,0,0,0,.07.08l-.1.16.13.12.16-.09.08.06Zm.41-.29.62-.94a.42.42,0,0,0,.16,0h.13l.23,1.09A1.77,1.77,0,0,1,93.72,34.56Zm1.33.16-.24-1.09a.63.63,0,0,0,.24-.16l1,.61A1.77,1.77,0,0,1,95.05,34.72Zm1.06-.79-1-.61a.69.69,0,0,0,0-.28l1.12-.23A1.72,1.72,0,0,1,96.11,33.93Zm.17-1.3-1.12.24a.66.66,0,0,0-.17-.24l.63-.94A1.72,1.72,0,0,1,96.28,32.63Zm-.82-1-.62.93a.71.71,0,0,0-.29-.05l-.23-1.09A1.71,1.71,0,0,1,95.46,31.6Zm-1.33-.17.24,1.09a.74.74,0,0,0-.22.14,0,0,0,0,1,0,0l-1-.61A1.76,1.76,0,0,1,94.13,31.43Zm-1.06.8,1,.6a.71.71,0,0,0-.06.28l-1.12.23A1.69,1.69,0,0,1,93.07,32.23Zm-.17,1.29L94,33.29a.72.72,0,0,0,.15.22h0l-.62.94A1.69,1.69,0,0,1,92.9,33.52Z"/><path class="cls-3" d="M116.31,37.85l.07,0,.08.05.14-.13.09,0,0,.19.17.06.11-.15.1,0v.19l.17,0,.09-.16h.1l0,.18h.17l.06-.18h.1l.08.17.17,0,0-.19.1,0,.11.15.17-.06,0-.19a.25.25,0,0,0,.09,0l.14.13.15-.09,0-.18a.24.24,0,0,0,.08-.06l.16.11.13-.11-.08-.17.07-.08.18.08.11-.14-.12-.15,0,0,0,0,.18,0a1.09,1.09,0,0,0,.08-.15l-.14-.13a.36.36,0,0,0,0-.09h.19l.06-.16-.16-.1s0-.06,0-.1l.19,0a.88.88,0,0,0,0-.16l-.17-.07v-.11l.18-.06a1.11,1.11,0,0,0,0-.17l-.18,0s0-.07,0-.1l.17-.1a1,1,0,0,0,0-.16h-.19l0-.1.14-.12-.07-.15-.19,0a.41.41,0,0,1,0-.09l.12-.14-.11-.14-.18.07-.06-.08.09-.16-.13-.12-.16.1-.08-.07.06-.17-.08,0-.07,0-.14.12-.1,0,0-.18-.16-.07-.12.15-.1,0V34l-.17,0-.09.17h-.1l0-.19h-.17l-.06.18h-.1l-.08-.17a.47.47,0,0,0-.17,0l0,.18-.1,0-.11-.16-.16.06v.19l-.09,0-.14-.13-.15.09.05.18-.08.06-.16-.11-.13.12.08.16-.07.08-.18-.08-.1.14.11.15,0,0a.08.08,0,0,0,0,0l-.19,0a1.09,1.09,0,0,0-.08.15l.14.13a.3.3,0,0,0,0,.1h-.19a.49.49,0,0,0,0,.16l.16.1a.3.3,0,0,0,0,.1l-.19,0a.88.88,0,0,0,0,.17l.18.06a.41.41,0,0,0,0,.11l-.18.06a1,1,0,0,1,0,.17l.19,0s0,.07,0,.1l-.17.1c0,.05,0,.11,0,.16h.19a.42.42,0,0,0,0,.1l-.15.12.07.15.19,0a.41.41,0,0,1,0,.09l-.11.14.1.14.18-.07a.27.27,0,0,0,.07.08l-.1.16.13.12.16-.09.08.06Zm.41-.29.62-.94a.42.42,0,0,0,.16,0h.13l.23,1.09A1.77,1.77,0,0,1,116.72,37.56Zm1.33.16-.24-1.09a.63.63,0,0,0,.24-.16l1,.61A1.77,1.77,0,0,1,118.05,37.72Zm1.06-.79-1-.61a.69.69,0,0,0,0-.28l1.12-.23A1.72,1.72,0,0,1,119.11,36.93Zm.17-1.3-1.12.24a.66.66,0,0,0-.17-.24l.63-.94A1.72,1.72,0,0,1,119.28,35.63Zm-.82-1-.62.93a.71.71,0,0,0-.29-.05l-.23-1.09A1.71,1.71,0,0,1,118.46,34.6Zm-1.33-.17.24,1.09a.74.74,0,0,0-.22.14,0,0,0,0,1,0,0l-1-.61A1.76,1.76,0,0,1,117.13,34.43Zm-1.06.8,1,.6a.71.71,0,0,0-.06.28l-1.12.23A1.69,1.69,0,0,1,116.07,35.23Zm-.17,1.29,1.12-.23a.72.72,0,0,0,.15.22h0l-.62.94A1.69,1.69,0,0,1,115.9,36.52Z"/><path class="cls-3" d="M59.31,53.85l.07,0,.08.05.14-.13.09,0,0,.19.17.06.11-.15.1,0v.19l.17,0,.09-.16h.1l.05.18h.17l.06-.18h.1l.08.17.17,0,0-.19.1,0,.11.15.17-.06,0-.19a.25.25,0,0,0,.09,0l.14.13.15-.09,0-.18a.24.24,0,0,0,.08-.06l.16.11.13-.11L62,53.49l.07-.08.18.08.11-.14-.12-.15,0,0,0,0,.18,0A1.09,1.09,0,0,0,62.6,53l-.14-.13a.36.36,0,0,0,0-.09h.19l.06-.16-.16-.1s0-.06,0-.1l.19,0a.88.88,0,0,0,0-.16l-.17-.07v-.11l.18-.06a1.11,1.11,0,0,0,0-.17l-.18,0s0-.07,0-.1l.17-.1a1,1,0,0,0-.05-.16h-.19l0-.1.14-.12-.07-.15-.19,0a.41.41,0,0,1-.05-.09l.12-.14-.11-.14-.18.07-.06-.08.09-.16-.13-.12-.16.1-.08-.07.06-.17-.08,0-.07,0-.14.12-.1,0,0-.18L61.36,50l-.12.15-.1,0V50l-.17,0-.09.17h-.1l-.05-.19h-.17l-.06.18h-.1l-.08-.17a.47.47,0,0,0-.17,0l0,.18-.1,0L59.91,50l-.16.06v.19l-.09,0-.14-.13-.15.09,0,.18-.08.06-.16-.11-.13.12.08.16-.07.08-.18-.08-.1.14.11.15,0,0a.08.08,0,0,0,0,0l-.19,0a1.09,1.09,0,0,0-.08.15l.14.13a.3.3,0,0,0,0,.1h-.19a.49.49,0,0,0-.05.16l.16.1a.3.3,0,0,0,0,.1l-.19,0a.88.88,0,0,0,0,.17l.18.06a.41.41,0,0,0,0,.11l-.18.06a1,1,0,0,1,0,.17l.19,0s0,.07,0,.1l-.17.1c0,.05,0,.11.05.16h.19a.42.42,0,0,0,0,.1l-.15.12.07.15.19,0a.41.41,0,0,1,.05.09l-.11.14.1.14.18-.07a.27.27,0,0,0,.07.08l-.1.16.13.12.16-.09.08.06Zm.41-.29.62-.94a.42.42,0,0,0,.16,0h.13l.23,1.09A1.77,1.77,0,0,1,59.72,53.56Zm1.33.16-.24-1.09a.63.63,0,0,0,.24-.16l1,.61A1.77,1.77,0,0,1,61.05,53.72Zm1.06-.79-1-.61A.69.69,0,0,0,61.2,52l1.12-.23A1.72,1.72,0,0,1,62.11,52.93Zm.17-1.3-1.12.24a.66.66,0,0,0-.17-.24l.63-.94A1.72,1.72,0,0,1,62.28,51.63Zm-.82-1-.62.93a.71.71,0,0,0-.29-.05l-.23-1.09A1.71,1.71,0,0,1,61.46,50.6Zm-1.33-.17.24,1.09a.74.74,0,0,0-.22.14,0,0,0,0,1,0,0l-1-.61A1.76,1.76,0,0,1,60.13,50.43Zm-1.06.8,1,.6a.71.71,0,0,0-.06.28l-1.12.23A1.69,1.69,0,0,1,59.07,51.23Zm-.17,1.29L60,52.29a.72.72,0,0,0,.15.22h0l-.62.94A1.69,1.69,0,0,1,58.9,52.52Z"/><path class="cls-1" d="M74.31,70.85l.07.05.08,0,.14-.13.09.05,0,.19.17.06.11-.15.1,0v.19l.17,0,.09-.16h.1l0,.18h.17l.06-.18h.1l.08.17.17,0,0-.19.1,0,.11.15.17-.06,0-.19a.25.25,0,0,0,.09,0l.14.13.15-.09,0-.18a.24.24,0,0,0,.08-.06l.16.11.13-.11L77,70.49l.07-.08.18.08.11-.14-.12-.15,0,0,0,0,.18,0A1.09,1.09,0,0,0,77.6,70l-.14-.13a.36.36,0,0,0,0-.09h.19l.06-.16-.16-.1s0-.06,0-.1l.19,0a.88.88,0,0,0,0-.16l-.17-.07v-.11l.18-.06a1.11,1.11,0,0,0,0-.17l-.18,0s0-.07,0-.1l.17-.1a1,1,0,0,0,0-.16h-.19l0-.1.14-.12-.07-.15-.19,0a.41.41,0,0,1,0-.09l.12-.14-.11-.14-.18.07-.06-.08.09-.16-.13-.12-.16.1-.08-.07.06-.17-.08,0-.07,0-.14.12-.1,0,0-.18L76.36,67l-.12.15-.1,0V67l-.17,0-.09.17h-.1l0-.19h-.17l-.06.18h-.1l-.08-.17a.47.47,0,0,0-.17,0l0,.18-.1,0L74.91,67l-.16.06v.19l-.09,0-.14-.13-.15.09.05.18-.08.06-.16-.11-.13.12.08.16-.07.08-.18-.08-.1.14.11.15,0,0a.08.08,0,0,0,0,0l-.19,0a1.09,1.09,0,0,0-.08.15l.14.13a.3.3,0,0,0,0,.1h-.19a.49.49,0,0,0,0,.16l.16.1a.3.3,0,0,0,0,.1l-.19,0a.88.88,0,0,0,0,.17l.18.06a.41.41,0,0,0,0,.11l-.18.06a1,1,0,0,1,0,.17l.19,0s0,.07,0,.1l-.17.1s0,.11,0,.16h.19a.42.42,0,0,0,0,.1l-.15.12.07.15.19,0a.41.41,0,0,1,0,.09l-.11.14.1.14.18-.07a.27.27,0,0,0,.07.08l-.1.16.13.12.16-.09.08.06Zm.41-.29.62-.94a.42.42,0,0,0,.16,0h.13l.23,1.09A1.77,1.77,0,0,1,74.72,70.56Zm1.33.16-.24-1.09a.63.63,0,0,0,.24-.16l1,.61A1.77,1.77,0,0,1,76.05,70.72Zm1.06-.79-1-.61a.69.69,0,0,0,0-.28l1.12-.23A1.72,1.72,0,0,1,77.11,69.93Zm.17-1.3-1.12.24a.66.66,0,0,0-.17-.24l.63-.94A1.72,1.72,0,0,1,77.28,68.63Zm-.82-1-.62.93a.71.71,0,0,0-.29,0l-.23-1.09A1.71,1.71,0,0,1,76.46,67.6Zm-1.33-.17.24,1.09a.74.74,0,0,0-.22.14,0,0,0,0,1,0,0l-1-.61A1.76,1.76,0,0,1,75.13,67.43Zm-1.06.8,1,.6a.71.71,0,0,0-.06.28l-1.12.23A1.69,1.69,0,0,1,74.07,68.23Zm-.17,1.29L75,69.29a.72.72,0,0,0,.15.22h0l-.62.94A1.69,1.69,0,0,1,73.9,69.52Z"/><path class="cls-1" d="M87.31,102.85l.07.05.08,0,.14-.13.09.05,0,.19.17.06.11-.15.1,0v.19l.17,0,.09-.16h.1l0,.18h.17l.06-.18h.1l.08.17.17,0,0-.19.1,0,.11.15.17-.06,0-.19a.25.25,0,0,0,.09,0l.14.13.15-.09,0-.18a.24.24,0,0,0,.08-.06l.16.11.13-.11-.08-.17.07-.08.18.08.11-.14-.12-.15,0,0,0,0,.18,0a1.09,1.09,0,0,0,.08-.15l-.14-.13a.36.36,0,0,0,0-.09h.19l.06-.16-.16-.1s0-.06,0-.1l.19,0a.88.88,0,0,0,0-.16l-.17-.07v-.11l.18-.06a1.11,1.11,0,0,0,0-.17l-.18,0s0-.07,0-.1l.17-.1a1,1,0,0,0,0-.16h-.19l0-.1.14-.12-.07-.15-.19,0a.41.41,0,0,1,0-.09l.12-.14-.11-.14-.18.07-.06-.08.09-.16-.13-.12-.16.1-.08-.07.06-.17-.08,0-.07,0-.14.12-.1,0,0-.18L89.36,99l-.12.15-.1,0V99l-.17,0-.09.17h-.1l0-.19h-.17l-.06.18h-.1l-.08-.17a.47.47,0,0,0-.17,0l0,.18-.1,0L87.91,99l-.16.06v.19l-.09,0-.14-.13-.15.09.05.18-.08.06-.16-.11-.13.12.08.16-.07.08-.18-.08-.1.14.11.15,0,0a.08.08,0,0,0,0,0l-.19,0a1.09,1.09,0,0,0-.08.15l.14.13a.3.3,0,0,0,0,.1h-.19a.49.49,0,0,0,0,.16l.16.1a.3.3,0,0,0,0,.1l-.19,0a.88.88,0,0,0,0,.17l.18.06a.41.41,0,0,0,0,.11l-.18.06a1,1,0,0,1,0,.17l.19,0s0,.07,0,.1l-.17.1s0,.11,0,.16h.19a.42.42,0,0,0,0,.1l-.15.12.07.15.19,0a.41.41,0,0,1,0,.09l-.11.14.1.14.18-.07a.27.27,0,0,0,.07.08l-.1.16.13.12.16-.09.08.06Zm.41-.29.62-.94a.42.42,0,0,0,.16,0h.13l.23,1.09A1.77,1.77,0,0,1,87.72,102.56Zm1.33.16-.24-1.09a.63.63,0,0,0,.24-.16l1,.61A1.77,1.77,0,0,1,89.05,102.72Zm1.06-.79-1-.61a.69.69,0,0,0,0-.28l1.12-.23A1.72,1.72,0,0,1,90.11,101.93Zm.17-1.3-1.12.24a.66.66,0,0,0-.17-.24l.63-.94A1.72,1.72,0,0,1,90.28,100.63Zm-.82-1-.62.93a.71.71,0,0,0-.29,0l-.23-1.09A1.71,1.71,0,0,1,89.46,99.6Zm-1.33-.17.24,1.09a.74.74,0,0,0-.22.14,0,0,0,0,1,0,0l-1-.61A1.76,1.76,0,0,1,88.13,99.43Zm-1.06.8,1,.6a.71.71,0,0,0-.06.28l-1.12.23A1.69,1.69,0,0,1,87.07,100.23Zm-.17,1.29,1.12-.23a.72.72,0,0,0,.15.22h0l-.62.94A1.69,1.69,0,0,1,86.9,101.52Z"/><path class="cls-1" d="M82,17.65l.06,0,.06,0,.12-.1.07,0,0,.15.13.06.1-.13.08,0v.15l.14,0,.07-.14h.08l0,.15h.14l.05-.14h.08l.07.14.14,0v-.16l.09,0,.09.13.13-.05v-.15l.07,0,.12.11.12-.07,0-.15.07-.05.13.09.1-.09-.06-.14,0-.06.15.06.09-.11-.1-.12,0,0,0,0,.15,0a.54.54,0,0,0,.07-.13l-.12-.1,0-.08h.15s0-.09,0-.13l-.14-.08s0-.06,0-.09l.15,0a.68.68,0,0,0,0-.14l-.15-.05a.28.28,0,0,0,0-.09l.14-.05a.71.71,0,0,0,0-.14l-.15,0s0-.05,0-.08l.14-.07a.74.74,0,0,0,0-.14h-.15l0-.08.12-.1-.06-.12-.16,0a.43.43,0,0,1,0-.07l.1-.12-.09-.11-.14.06-.06-.07.08-.13-.11-.1-.13.08-.07,0,0-.15-.06,0-.06,0-.12.1-.07,0,0-.15-.13-.05-.1.12-.08,0v-.15l-.14,0-.07.14h-.09l0-.15H83l0,.15h-.09l-.06-.14-.14,0,0,.15-.08,0-.09-.12-.13,0v.15l-.08,0-.11-.1-.12.06,0,.15-.07.05-.13-.08-.11.09.07.13-.06.07L81.65,15l-.09.12.09.12,0,0s0,0,0,0l-.15,0-.07.13.12.1a.3.3,0,0,0,0,.08h-.16l0,.14.13.08,0,.08-.15,0a.59.59,0,0,0,0,.13l.14.06v.08l-.15.05a.66.66,0,0,1,0,.14l.16,0s0,.06,0,.08l-.13.08,0,.13h.16l0,.08-.12.1.06.13.15,0,.05.07-.1.12a1,1,0,0,0,.08.11l.15-.05.06.06-.08.13.11.1.13-.08.06.05Zm.34-.25.51-.77a.28.28,0,0,0,.13,0h.1l.19.89A1.4,1.4,0,0,1,82.33,17.4Zm1.09.14-.2-.89a.64.64,0,0,0,.19-.13l.79.49A1.43,1.43,0,0,1,83.42,17.54Zm.86-.65-.79-.5a.37.37,0,0,0,0-.23l.92-.19A1.37,1.37,0,0,1,84.28,16.89Zm.14-1.06L83.5,16a.41.41,0,0,0-.13-.19l.51-.77A1.39,1.39,0,0,1,84.42,15.83ZM83.75,15l-.51.77a.45.45,0,0,0-.23,0l-.2-.9A1.41,1.41,0,0,1,83.75,15Zm-1.09-.14.2.9a.42.42,0,0,0-.18.11v0l-.79-.5A1.43,1.43,0,0,1,82.66,14.84Zm-.86.66.78.49a.62.62,0,0,0,0,.23l-.92.19A1.35,1.35,0,0,1,81.8,15.5Zm-.14,1.06.91-.19a.66.66,0,0,0,.12.17h0l-.51.77A1.32,1.32,0,0,1,81.66,16.56Z"/><path class="cls-3" d="M52.31,32.85l.07,0,.08.05.14-.13.09,0,0,.19.17.06.11-.15.1,0v.19l.17,0,.09-.16h.1l.05.18h.17l.06-.18h.1l.08.17.17,0,0-.19.1,0,.11.15.17-.06,0-.19a.25.25,0,0,0,.09,0l.14.13.15-.09,0-.18a.24.24,0,0,0,.08-.06l.16.11.13-.11L55,32.49l.07-.08.18.08.11-.14-.12-.15,0,0,0,0,.18,0A1.09,1.09,0,0,0,55.6,32l-.14-.13a.36.36,0,0,0,0-.09h.19l.06-.16-.16-.1s0-.06,0-.1l.19,0a.88.88,0,0,0,0-.16l-.17-.07v-.11l.18-.06a1.11,1.11,0,0,0,0-.17l-.18,0s0-.07,0-.1l.17-.1a1,1,0,0,0-.05-.16h-.19l0-.1.14-.12-.07-.15-.19,0a.41.41,0,0,1-.05-.09l.12-.14-.11-.14-.18.07-.06-.08.09-.16-.13-.12-.16.1-.08-.07.06-.17-.08-.05-.07,0-.14.12-.1,0,0-.18L54.36,29l-.12.15-.1,0V29l-.17,0-.09.17h-.1l-.05-.19h-.17l-.06.18h-.1l-.08-.17a.47.47,0,0,0-.17,0l0,.18-.1,0L52.91,29l-.16.06v.19l-.09,0-.14-.13-.15.09,0,.18-.08.06-.16-.11-.13.12.08.16-.07.08-.18-.08-.1.14.11.15,0,0a.08.08,0,0,0,0,0l-.19,0a1.09,1.09,0,0,0-.08.15l.14.13a.3.3,0,0,0,0,.1h-.19a.49.49,0,0,0-.05.16l.16.1a.3.3,0,0,0,0,.1l-.19,0a.88.88,0,0,0,0,.17l.18.06a.41.41,0,0,0,0,.11l-.18.06a1,1,0,0,1,0,.17l.19,0s0,.07,0,.1l-.17.1c0,.05,0,.11.05.16h.19a.42.42,0,0,0,0,.1l-.15.12.07.15.19,0a.41.41,0,0,1,.05.09l-.11.14.1.14.18-.07a.27.27,0,0,0,.07.08l-.1.16.13.12.16-.09.08.06Zm.41-.29.62-.94a.42.42,0,0,0,.16,0h.13l.23,1.09A1.77,1.77,0,0,1,52.72,32.56Zm1.33.16-.24-1.09a.63.63,0,0,0,.24-.16l1,.61A1.77,1.77,0,0,1,54.05,32.72Zm1.06-.79-1-.61A.69.69,0,0,0,54.2,31l1.12-.23A1.72,1.72,0,0,1,55.11,31.93Zm.17-1.3-1.12.24a.66.66,0,0,0-.17-.24l.63-.94A1.72,1.72,0,0,1,55.28,30.63Zm-.82-1-.62.93a.71.71,0,0,0-.29-.05l-.23-1.09A1.71,1.71,0,0,1,54.46,29.6Zm-1.33-.17.24,1.09a.74.74,0,0,0-.22.14,0,0,0,0,1,0,0l-1-.61A1.76,1.76,0,0,1,53.13,29.43Zm-1.06.8,1,.6a.71.71,0,0,0-.06.28l-1.12.23A1.69,1.69,0,0,1,52.07,30.23Zm-.17,1.29L53,31.29a.72.72,0,0,0,.15.22h0l-.62.94A1.69,1.69,0,0,1,51.9,31.52Z"/><path class="cls-1" d="M40.31,62.85l.07,0,.08.05.14-.13.09,0,0,.19.17.06.11-.15.1,0v.19l.17,0,.09-.16h.1l.05.18h.17l.06-.18h.1l.08.17.17,0,0-.19.1,0,.11.15.17-.06,0-.19a.25.25,0,0,0,.09,0l.14.13.15-.09,0-.18a.24.24,0,0,0,.08-.06l.16.11.13-.11L43,62.49l.07-.08.18.08.11-.14-.12-.15,0,0,0,0,.18,0A1.09,1.09,0,0,0,43.6,62l-.14-.13a.36.36,0,0,0,0-.09h.19l.06-.16-.16-.1s0-.06,0-.1l.19,0a.88.88,0,0,0,0-.16l-.17-.07v-.11l.18-.06a1.11,1.11,0,0,0,0-.17l-.18,0s0-.07,0-.1l.17-.1a1,1,0,0,0-.05-.16h-.19l0-.1.14-.12-.07-.15-.19,0a.41.41,0,0,1-.05-.09l.12-.14-.11-.14-.18.07-.06-.08.09-.16-.13-.12-.16.1-.08-.07.06-.17-.08,0-.07,0-.14.12-.1,0,0-.18L42.36,59l-.12.15-.1,0V59l-.17,0-.09.17h-.1l-.05-.19h-.17l-.06.18h-.1l-.08-.17a.47.47,0,0,0-.17,0l0,.18-.1,0L40.91,59l-.16.06v.19l-.09,0-.14-.13-.15.09,0,.18-.08.06-.16-.11-.13.12.08.16-.07.08-.18-.08-.1.14.11.15,0,0a.08.08,0,0,0,0,0l-.19,0a1.09,1.09,0,0,0-.08.15l.14.13a.3.3,0,0,0,0,.1h-.19a.49.49,0,0,0-.05.16l.16.1a.3.3,0,0,0,0,.1l-.19,0a.88.88,0,0,0,0,.17l.18.06a.41.41,0,0,0,0,.11l-.18.06a1,1,0,0,1,0,.17l.19,0s0,.07,0,.1l-.17.1c0,.05,0,.11.05.16h.19a.42.42,0,0,0,0,.1l-.15.12.07.15.19,0a.41.41,0,0,1,.05.09l-.11.14.1.14.18-.07a.27.27,0,0,0,.07.08l-.1.16.13.12.16-.09.08.06Zm.41-.29.62-.94a.42.42,0,0,0,.16,0h.13l.23,1.09A1.77,1.77,0,0,1,40.72,62.56Zm1.33.16-.24-1.09a.63.63,0,0,0,.24-.16l1,.61A1.77,1.77,0,0,1,42.05,62.72Zm1.06-.79-1-.61A.69.69,0,0,0,42.2,61l1.12-.23A1.72,1.72,0,0,1,43.11,61.93Zm.17-1.3-1.12.24a.66.66,0,0,0-.17-.24l.63-.94A1.72,1.72,0,0,1,43.28,60.63Zm-.82-1-.62.93a.71.71,0,0,0-.29-.05l-.23-1.09A1.71,1.71,0,0,1,42.46,59.6Zm-1.33-.17.24,1.09a.74.74,0,0,0-.22.14,0,0,0,0,1,0,0l-1-.61A1.76,1.76,0,0,1,41.13,59.43Zm-1.06.8,1,.6a.71.71,0,0,0-.06.28l-1.12.23A1.69,1.69,0,0,1,40.07,60.23Zm-.17,1.29L41,61.29a.72.72,0,0,0,.15.22h0l-.62.94A1.69,1.69,0,0,1,39.9,61.52Z"/></g></g></g></svg>